%TF.GenerationSoftware,KiCad,Pcbnew,7.0.9*%
%TF.CreationDate,2024-05-12T14:32:29+05:30*%
%TF.ProjectId,Analog_Macropad,416e616c-6f67-45f4-9d61-63726f706164,rev?*%
%TF.SameCoordinates,Original*%
%TF.FileFunction,Legend,Top*%
%TF.FilePolarity,Positive*%
%FSLAX46Y46*%
G04 Gerber Fmt 4.6, Leading zero omitted, Abs format (unit mm)*
G04 Created by KiCad (PCBNEW 7.0.9) date 2024-05-12 14:32:29*
%MOMM*%
%LPD*%
G01*
G04 APERTURE LIST*
%ADD10C,0.150000*%
%ADD11C,0.100000*%
%ADD12C,0.200000*%
%ADD13C,0.120000*%
G04 APERTURE END LIST*
D10*
X19486779Y-112739819D02*
X19486779Y-111739819D01*
X19486779Y-112120771D02*
X19582017Y-112073152D01*
X19582017Y-112073152D02*
X19772493Y-112073152D01*
X19772493Y-112073152D02*
X19867731Y-112120771D01*
X19867731Y-112120771D02*
X19915350Y-112168390D01*
X19915350Y-112168390D02*
X19962969Y-112263628D01*
X19962969Y-112263628D02*
X19962969Y-112549342D01*
X19962969Y-112549342D02*
X19915350Y-112644580D01*
X19915350Y-112644580D02*
X19867731Y-112692200D01*
X19867731Y-112692200D02*
X19772493Y-112739819D01*
X19772493Y-112739819D02*
X19582017Y-112739819D01*
X19582017Y-112739819D02*
X19486779Y-112692200D01*
X20296303Y-112073152D02*
X20534398Y-112739819D01*
X20772493Y-112073152D02*
X20534398Y-112739819D01*
X20534398Y-112739819D02*
X20439160Y-112977914D01*
X20439160Y-112977914D02*
X20391541Y-113025533D01*
X20391541Y-113025533D02*
X20296303Y-113073152D01*
X21867732Y-112692200D02*
X22010589Y-112739819D01*
X22010589Y-112739819D02*
X22248684Y-112739819D01*
X22248684Y-112739819D02*
X22343922Y-112692200D01*
X22343922Y-112692200D02*
X22391541Y-112644580D01*
X22391541Y-112644580D02*
X22439160Y-112549342D01*
X22439160Y-112549342D02*
X22439160Y-112454104D01*
X22439160Y-112454104D02*
X22391541Y-112358866D01*
X22391541Y-112358866D02*
X22343922Y-112311247D01*
X22343922Y-112311247D02*
X22248684Y-112263628D01*
X22248684Y-112263628D02*
X22058208Y-112216009D01*
X22058208Y-112216009D02*
X21962970Y-112168390D01*
X21962970Y-112168390D02*
X21915351Y-112120771D01*
X21915351Y-112120771D02*
X21867732Y-112025533D01*
X21867732Y-112025533D02*
X21867732Y-111930295D01*
X21867732Y-111930295D02*
X21915351Y-111835057D01*
X21915351Y-111835057D02*
X21962970Y-111787438D01*
X21962970Y-111787438D02*
X22058208Y-111739819D01*
X22058208Y-111739819D02*
X22296303Y-111739819D01*
X22296303Y-111739819D02*
X22439160Y-111787438D01*
X22867732Y-112073152D02*
X22867732Y-112739819D01*
X22867732Y-112168390D02*
X22915351Y-112120771D01*
X22915351Y-112120771D02*
X23010589Y-112073152D01*
X23010589Y-112073152D02*
X23153446Y-112073152D01*
X23153446Y-112073152D02*
X23248684Y-112120771D01*
X23248684Y-112120771D02*
X23296303Y-112216009D01*
X23296303Y-112216009D02*
X23296303Y-112739819D01*
X24201065Y-112739819D02*
X24201065Y-112216009D01*
X24201065Y-112216009D02*
X24153446Y-112120771D01*
X24153446Y-112120771D02*
X24058208Y-112073152D01*
X24058208Y-112073152D02*
X23867732Y-112073152D01*
X23867732Y-112073152D02*
X23772494Y-112120771D01*
X24201065Y-112692200D02*
X24105827Y-112739819D01*
X24105827Y-112739819D02*
X23867732Y-112739819D01*
X23867732Y-112739819D02*
X23772494Y-112692200D01*
X23772494Y-112692200D02*
X23724875Y-112596961D01*
X23724875Y-112596961D02*
X23724875Y-112501723D01*
X23724875Y-112501723D02*
X23772494Y-112406485D01*
X23772494Y-112406485D02*
X23867732Y-112358866D01*
X23867732Y-112358866D02*
X24105827Y-112358866D01*
X24105827Y-112358866D02*
X24201065Y-112311247D01*
X24677256Y-112073152D02*
X24677256Y-113073152D01*
X24677256Y-112120771D02*
X24772494Y-112073152D01*
X24772494Y-112073152D02*
X24962970Y-112073152D01*
X24962970Y-112073152D02*
X25058208Y-112120771D01*
X25058208Y-112120771D02*
X25105827Y-112168390D01*
X25105827Y-112168390D02*
X25153446Y-112263628D01*
X25153446Y-112263628D02*
X25153446Y-112549342D01*
X25153446Y-112549342D02*
X25105827Y-112644580D01*
X25105827Y-112644580D02*
X25058208Y-112692200D01*
X25058208Y-112692200D02*
X24962970Y-112739819D01*
X24962970Y-112739819D02*
X24772494Y-112739819D01*
X24772494Y-112739819D02*
X24677256Y-112692200D01*
X25582018Y-112073152D02*
X25582018Y-113073152D01*
X25582018Y-112120771D02*
X25677256Y-112073152D01*
X25677256Y-112073152D02*
X25867732Y-112073152D01*
X25867732Y-112073152D02*
X25962970Y-112120771D01*
X25962970Y-112120771D02*
X26010589Y-112168390D01*
X26010589Y-112168390D02*
X26058208Y-112263628D01*
X26058208Y-112263628D02*
X26058208Y-112549342D01*
X26058208Y-112549342D02*
X26010589Y-112644580D01*
X26010589Y-112644580D02*
X25962970Y-112692200D01*
X25962970Y-112692200D02*
X25867732Y-112739819D01*
X25867732Y-112739819D02*
X25677256Y-112739819D01*
X25677256Y-112739819D02*
X25582018Y-112692200D01*
X26391542Y-112073152D02*
X26629637Y-112739819D01*
X26867732Y-112073152D02*
X26629637Y-112739819D01*
X26629637Y-112739819D02*
X26534399Y-112977914D01*
X26534399Y-112977914D02*
X26486780Y-113025533D01*
X26486780Y-113025533D02*
X26391542Y-113073152D01*
X19529160Y-110464104D02*
X20005350Y-110464104D01*
X19433922Y-110749819D02*
X19767255Y-109749819D01*
X19767255Y-109749819D02*
X20100588Y-110749819D01*
X20433922Y-110083152D02*
X20433922Y-110749819D01*
X20433922Y-110178390D02*
X20481541Y-110130771D01*
X20481541Y-110130771D02*
X20576779Y-110083152D01*
X20576779Y-110083152D02*
X20719636Y-110083152D01*
X20719636Y-110083152D02*
X20814874Y-110130771D01*
X20814874Y-110130771D02*
X20862493Y-110226009D01*
X20862493Y-110226009D02*
X20862493Y-110749819D01*
X21767255Y-110749819D02*
X21767255Y-110226009D01*
X21767255Y-110226009D02*
X21719636Y-110130771D01*
X21719636Y-110130771D02*
X21624398Y-110083152D01*
X21624398Y-110083152D02*
X21433922Y-110083152D01*
X21433922Y-110083152D02*
X21338684Y-110130771D01*
X21767255Y-110702200D02*
X21672017Y-110749819D01*
X21672017Y-110749819D02*
X21433922Y-110749819D01*
X21433922Y-110749819D02*
X21338684Y-110702200D01*
X21338684Y-110702200D02*
X21291065Y-110606961D01*
X21291065Y-110606961D02*
X21291065Y-110511723D01*
X21291065Y-110511723D02*
X21338684Y-110416485D01*
X21338684Y-110416485D02*
X21433922Y-110368866D01*
X21433922Y-110368866D02*
X21672017Y-110368866D01*
X21672017Y-110368866D02*
X21767255Y-110321247D01*
X22386303Y-110749819D02*
X22291065Y-110702200D01*
X22291065Y-110702200D02*
X22243446Y-110606961D01*
X22243446Y-110606961D02*
X22243446Y-109749819D01*
X22910113Y-110749819D02*
X22814875Y-110702200D01*
X22814875Y-110702200D02*
X22767256Y-110654580D01*
X22767256Y-110654580D02*
X22719637Y-110559342D01*
X22719637Y-110559342D02*
X22719637Y-110273628D01*
X22719637Y-110273628D02*
X22767256Y-110178390D01*
X22767256Y-110178390D02*
X22814875Y-110130771D01*
X22814875Y-110130771D02*
X22910113Y-110083152D01*
X22910113Y-110083152D02*
X23052970Y-110083152D01*
X23052970Y-110083152D02*
X23148208Y-110130771D01*
X23148208Y-110130771D02*
X23195827Y-110178390D01*
X23195827Y-110178390D02*
X23243446Y-110273628D01*
X23243446Y-110273628D02*
X23243446Y-110559342D01*
X23243446Y-110559342D02*
X23195827Y-110654580D01*
X23195827Y-110654580D02*
X23148208Y-110702200D01*
X23148208Y-110702200D02*
X23052970Y-110749819D01*
X23052970Y-110749819D02*
X22910113Y-110749819D01*
X24100589Y-110083152D02*
X24100589Y-110892676D01*
X24100589Y-110892676D02*
X24052970Y-110987914D01*
X24052970Y-110987914D02*
X24005351Y-111035533D01*
X24005351Y-111035533D02*
X23910113Y-111083152D01*
X23910113Y-111083152D02*
X23767256Y-111083152D01*
X23767256Y-111083152D02*
X23672018Y-111035533D01*
X24100589Y-110702200D02*
X24005351Y-110749819D01*
X24005351Y-110749819D02*
X23814875Y-110749819D01*
X23814875Y-110749819D02*
X23719637Y-110702200D01*
X23719637Y-110702200D02*
X23672018Y-110654580D01*
X23672018Y-110654580D02*
X23624399Y-110559342D01*
X23624399Y-110559342D02*
X23624399Y-110273628D01*
X23624399Y-110273628D02*
X23672018Y-110178390D01*
X23672018Y-110178390D02*
X23719637Y-110130771D01*
X23719637Y-110130771D02*
X23814875Y-110083152D01*
X23814875Y-110083152D02*
X24005351Y-110083152D01*
X24005351Y-110083152D02*
X24100589Y-110130771D01*
X25338685Y-110749819D02*
X25338685Y-109749819D01*
X25338685Y-109749819D02*
X25672018Y-110464104D01*
X25672018Y-110464104D02*
X26005351Y-109749819D01*
X26005351Y-109749819D02*
X26005351Y-110749819D01*
X26910113Y-110749819D02*
X26910113Y-110226009D01*
X26910113Y-110226009D02*
X26862494Y-110130771D01*
X26862494Y-110130771D02*
X26767256Y-110083152D01*
X26767256Y-110083152D02*
X26576780Y-110083152D01*
X26576780Y-110083152D02*
X26481542Y-110130771D01*
X26910113Y-110702200D02*
X26814875Y-110749819D01*
X26814875Y-110749819D02*
X26576780Y-110749819D01*
X26576780Y-110749819D02*
X26481542Y-110702200D01*
X26481542Y-110702200D02*
X26433923Y-110606961D01*
X26433923Y-110606961D02*
X26433923Y-110511723D01*
X26433923Y-110511723D02*
X26481542Y-110416485D01*
X26481542Y-110416485D02*
X26576780Y-110368866D01*
X26576780Y-110368866D02*
X26814875Y-110368866D01*
X26814875Y-110368866D02*
X26910113Y-110321247D01*
X27814875Y-110702200D02*
X27719637Y-110749819D01*
X27719637Y-110749819D02*
X27529161Y-110749819D01*
X27529161Y-110749819D02*
X27433923Y-110702200D01*
X27433923Y-110702200D02*
X27386304Y-110654580D01*
X27386304Y-110654580D02*
X27338685Y-110559342D01*
X27338685Y-110559342D02*
X27338685Y-110273628D01*
X27338685Y-110273628D02*
X27386304Y-110178390D01*
X27386304Y-110178390D02*
X27433923Y-110130771D01*
X27433923Y-110130771D02*
X27529161Y-110083152D01*
X27529161Y-110083152D02*
X27719637Y-110083152D01*
X27719637Y-110083152D02*
X27814875Y-110130771D01*
X28243447Y-110749819D02*
X28243447Y-110083152D01*
X28243447Y-110273628D02*
X28291066Y-110178390D01*
X28291066Y-110178390D02*
X28338685Y-110130771D01*
X28338685Y-110130771D02*
X28433923Y-110083152D01*
X28433923Y-110083152D02*
X28529161Y-110083152D01*
X29005352Y-110749819D02*
X28910114Y-110702200D01*
X28910114Y-110702200D02*
X28862495Y-110654580D01*
X28862495Y-110654580D02*
X28814876Y-110559342D01*
X28814876Y-110559342D02*
X28814876Y-110273628D01*
X28814876Y-110273628D02*
X28862495Y-110178390D01*
X28862495Y-110178390D02*
X28910114Y-110130771D01*
X28910114Y-110130771D02*
X29005352Y-110083152D01*
X29005352Y-110083152D02*
X29148209Y-110083152D01*
X29148209Y-110083152D02*
X29243447Y-110130771D01*
X29243447Y-110130771D02*
X29291066Y-110178390D01*
X29291066Y-110178390D02*
X29338685Y-110273628D01*
X29338685Y-110273628D02*
X29338685Y-110559342D01*
X29338685Y-110559342D02*
X29291066Y-110654580D01*
X29291066Y-110654580D02*
X29243447Y-110702200D01*
X29243447Y-110702200D02*
X29148209Y-110749819D01*
X29148209Y-110749819D02*
X29005352Y-110749819D01*
X29767257Y-110083152D02*
X29767257Y-111083152D01*
X29767257Y-110130771D02*
X29862495Y-110083152D01*
X29862495Y-110083152D02*
X30052971Y-110083152D01*
X30052971Y-110083152D02*
X30148209Y-110130771D01*
X30148209Y-110130771D02*
X30195828Y-110178390D01*
X30195828Y-110178390D02*
X30243447Y-110273628D01*
X30243447Y-110273628D02*
X30243447Y-110559342D01*
X30243447Y-110559342D02*
X30195828Y-110654580D01*
X30195828Y-110654580D02*
X30148209Y-110702200D01*
X30148209Y-110702200D02*
X30052971Y-110749819D01*
X30052971Y-110749819D02*
X29862495Y-110749819D01*
X29862495Y-110749819D02*
X29767257Y-110702200D01*
X31100590Y-110749819D02*
X31100590Y-110226009D01*
X31100590Y-110226009D02*
X31052971Y-110130771D01*
X31052971Y-110130771D02*
X30957733Y-110083152D01*
X30957733Y-110083152D02*
X30767257Y-110083152D01*
X30767257Y-110083152D02*
X30672019Y-110130771D01*
X31100590Y-110702200D02*
X31005352Y-110749819D01*
X31005352Y-110749819D02*
X30767257Y-110749819D01*
X30767257Y-110749819D02*
X30672019Y-110702200D01*
X30672019Y-110702200D02*
X30624400Y-110606961D01*
X30624400Y-110606961D02*
X30624400Y-110511723D01*
X30624400Y-110511723D02*
X30672019Y-110416485D01*
X30672019Y-110416485D02*
X30767257Y-110368866D01*
X30767257Y-110368866D02*
X31005352Y-110368866D01*
X31005352Y-110368866D02*
X31100590Y-110321247D01*
X32005352Y-110749819D02*
X32005352Y-109749819D01*
X32005352Y-110702200D02*
X31910114Y-110749819D01*
X31910114Y-110749819D02*
X31719638Y-110749819D01*
X31719638Y-110749819D02*
X31624400Y-110702200D01*
X31624400Y-110702200D02*
X31576781Y-110654580D01*
X31576781Y-110654580D02*
X31529162Y-110559342D01*
X31529162Y-110559342D02*
X31529162Y-110273628D01*
X31529162Y-110273628D02*
X31576781Y-110178390D01*
X31576781Y-110178390D02*
X31624400Y-110130771D01*
X31624400Y-110130771D02*
X31719638Y-110083152D01*
X31719638Y-110083152D02*
X31910114Y-110083152D01*
X31910114Y-110083152D02*
X32005352Y-110130771D01*
X33100591Y-109749819D02*
X33433924Y-110749819D01*
X33433924Y-110749819D02*
X33767257Y-109749819D01*
X34624400Y-110749819D02*
X34052972Y-110749819D01*
X34338686Y-110749819D02*
X34338686Y-109749819D01*
X34338686Y-109749819D02*
X34243448Y-109892676D01*
X34243448Y-109892676D02*
X34148210Y-109987914D01*
X34148210Y-109987914D02*
X34052972Y-110035533D01*
X15238095Y-69124819D02*
X15238095Y-68124819D01*
X15238095Y-68601009D02*
X15809523Y-68601009D01*
X15809523Y-69124819D02*
X15809523Y-68124819D01*
X16428571Y-68553390D02*
X16333333Y-68505771D01*
X16333333Y-68505771D02*
X16285714Y-68458152D01*
X16285714Y-68458152D02*
X16238095Y-68362914D01*
X16238095Y-68362914D02*
X16238095Y-68315295D01*
X16238095Y-68315295D02*
X16285714Y-68220057D01*
X16285714Y-68220057D02*
X16333333Y-68172438D01*
X16333333Y-68172438D02*
X16428571Y-68124819D01*
X16428571Y-68124819D02*
X16619047Y-68124819D01*
X16619047Y-68124819D02*
X16714285Y-68172438D01*
X16714285Y-68172438D02*
X16761904Y-68220057D01*
X16761904Y-68220057D02*
X16809523Y-68315295D01*
X16809523Y-68315295D02*
X16809523Y-68362914D01*
X16809523Y-68362914D02*
X16761904Y-68458152D01*
X16761904Y-68458152D02*
X16714285Y-68505771D01*
X16714285Y-68505771D02*
X16619047Y-68553390D01*
X16619047Y-68553390D02*
X16428571Y-68553390D01*
X16428571Y-68553390D02*
X16333333Y-68601009D01*
X16333333Y-68601009D02*
X16285714Y-68648628D01*
X16285714Y-68648628D02*
X16238095Y-68743866D01*
X16238095Y-68743866D02*
X16238095Y-68934342D01*
X16238095Y-68934342D02*
X16285714Y-69029580D01*
X16285714Y-69029580D02*
X16333333Y-69077200D01*
X16333333Y-69077200D02*
X16428571Y-69124819D01*
X16428571Y-69124819D02*
X16619047Y-69124819D01*
X16619047Y-69124819D02*
X16714285Y-69077200D01*
X16714285Y-69077200D02*
X16761904Y-69029580D01*
X16761904Y-69029580D02*
X16809523Y-68934342D01*
X16809523Y-68934342D02*
X16809523Y-68743866D01*
X16809523Y-68743866D02*
X16761904Y-68648628D01*
X16761904Y-68648628D02*
X16714285Y-68601009D01*
X16714285Y-68601009D02*
X16619047Y-68553390D01*
D11*
X69978095Y-66437419D02*
X69978095Y-67246942D01*
X69978095Y-67246942D02*
X70025714Y-67342180D01*
X70025714Y-67342180D02*
X70073333Y-67389800D01*
X70073333Y-67389800D02*
X70168571Y-67437419D01*
X70168571Y-67437419D02*
X70359047Y-67437419D01*
X70359047Y-67437419D02*
X70454285Y-67389800D01*
X70454285Y-67389800D02*
X70501904Y-67342180D01*
X70501904Y-67342180D02*
X70549523Y-67246942D01*
X70549523Y-67246942D02*
X70549523Y-66437419D01*
X70930476Y-66437419D02*
X71597142Y-66437419D01*
X71597142Y-66437419D02*
X71168571Y-67437419D01*
X51098095Y-66437419D02*
X51098095Y-67246942D01*
X51098095Y-67246942D02*
X51145714Y-67342180D01*
X51145714Y-67342180D02*
X51193333Y-67389800D01*
X51193333Y-67389800D02*
X51288571Y-67437419D01*
X51288571Y-67437419D02*
X51479047Y-67437419D01*
X51479047Y-67437419D02*
X51574285Y-67389800D01*
X51574285Y-67389800D02*
X51621904Y-67342180D01*
X51621904Y-67342180D02*
X51669523Y-67246942D01*
X51669523Y-67246942D02*
X51669523Y-66437419D01*
X52574285Y-66437419D02*
X52383809Y-66437419D01*
X52383809Y-66437419D02*
X52288571Y-66485038D01*
X52288571Y-66485038D02*
X52240952Y-66532657D01*
X52240952Y-66532657D02*
X52145714Y-66675514D01*
X52145714Y-66675514D02*
X52098095Y-66865990D01*
X52098095Y-66865990D02*
X52098095Y-67246942D01*
X52098095Y-67246942D02*
X52145714Y-67342180D01*
X52145714Y-67342180D02*
X52193333Y-67389800D01*
X52193333Y-67389800D02*
X52288571Y-67437419D01*
X52288571Y-67437419D02*
X52479047Y-67437419D01*
X52479047Y-67437419D02*
X52574285Y-67389800D01*
X52574285Y-67389800D02*
X52621904Y-67342180D01*
X52621904Y-67342180D02*
X52669523Y-67246942D01*
X52669523Y-67246942D02*
X52669523Y-67008847D01*
X52669523Y-67008847D02*
X52621904Y-66913609D01*
X52621904Y-66913609D02*
X52574285Y-66865990D01*
X52574285Y-66865990D02*
X52479047Y-66818371D01*
X52479047Y-66818371D02*
X52288571Y-66818371D01*
X52288571Y-66818371D02*
X52193333Y-66865990D01*
X52193333Y-66865990D02*
X52145714Y-66913609D01*
X52145714Y-66913609D02*
X52098095Y-67008847D01*
D10*
X122678095Y-16764819D02*
X122678095Y-15764819D01*
X122678095Y-16241009D02*
X123249523Y-16241009D01*
X123249523Y-16764819D02*
X123249523Y-15764819D01*
X123630476Y-15764819D02*
X124249523Y-15764819D01*
X124249523Y-15764819D02*
X123916190Y-16145771D01*
X123916190Y-16145771D02*
X124059047Y-16145771D01*
X124059047Y-16145771D02*
X124154285Y-16193390D01*
X124154285Y-16193390D02*
X124201904Y-16241009D01*
X124201904Y-16241009D02*
X124249523Y-16336247D01*
X124249523Y-16336247D02*
X124249523Y-16574342D01*
X124249523Y-16574342D02*
X124201904Y-16669580D01*
X124201904Y-16669580D02*
X124154285Y-16717200D01*
X124154285Y-16717200D02*
X124059047Y-16764819D01*
X124059047Y-16764819D02*
X123773333Y-16764819D01*
X123773333Y-16764819D02*
X123678095Y-16717200D01*
X123678095Y-16717200D02*
X123630476Y-16669580D01*
X114305714Y-119874819D02*
X114305714Y-118874819D01*
X114305714Y-118874819D02*
X114543809Y-118874819D01*
X114543809Y-118874819D02*
X114686666Y-118922438D01*
X114686666Y-118922438D02*
X114781904Y-119017676D01*
X114781904Y-119017676D02*
X114829523Y-119112914D01*
X114829523Y-119112914D02*
X114877142Y-119303390D01*
X114877142Y-119303390D02*
X114877142Y-119446247D01*
X114877142Y-119446247D02*
X114829523Y-119636723D01*
X114829523Y-119636723D02*
X114781904Y-119731961D01*
X114781904Y-119731961D02*
X114686666Y-119827200D01*
X114686666Y-119827200D02*
X114543809Y-119874819D01*
X114543809Y-119874819D02*
X114305714Y-119874819D01*
X115829523Y-119874819D02*
X115258095Y-119874819D01*
X115543809Y-119874819D02*
X115543809Y-118874819D01*
X115543809Y-118874819D02*
X115448571Y-119017676D01*
X115448571Y-119017676D02*
X115353333Y-119112914D01*
X115353333Y-119112914D02*
X115258095Y-119160533D01*
X116162857Y-118874819D02*
X116781904Y-118874819D01*
X116781904Y-118874819D02*
X116448571Y-119255771D01*
X116448571Y-119255771D02*
X116591428Y-119255771D01*
X116591428Y-119255771D02*
X116686666Y-119303390D01*
X116686666Y-119303390D02*
X116734285Y-119351009D01*
X116734285Y-119351009D02*
X116781904Y-119446247D01*
X116781904Y-119446247D02*
X116781904Y-119684342D01*
X116781904Y-119684342D02*
X116734285Y-119779580D01*
X116734285Y-119779580D02*
X116686666Y-119827200D01*
X116686666Y-119827200D02*
X116591428Y-119874819D01*
X116591428Y-119874819D02*
X116305714Y-119874819D01*
X116305714Y-119874819D02*
X116210476Y-119827200D01*
X116210476Y-119827200D02*
X116162857Y-119779580D01*
X76525714Y-100994819D02*
X76525714Y-99994819D01*
X76525714Y-99994819D02*
X76763809Y-99994819D01*
X76763809Y-99994819D02*
X76906666Y-100042438D01*
X76906666Y-100042438D02*
X77001904Y-100137676D01*
X77001904Y-100137676D02*
X77049523Y-100232914D01*
X77049523Y-100232914D02*
X77097142Y-100423390D01*
X77097142Y-100423390D02*
X77097142Y-100566247D01*
X77097142Y-100566247D02*
X77049523Y-100756723D01*
X77049523Y-100756723D02*
X77001904Y-100851961D01*
X77001904Y-100851961D02*
X76906666Y-100947200D01*
X76906666Y-100947200D02*
X76763809Y-100994819D01*
X76763809Y-100994819D02*
X76525714Y-100994819D01*
X78049523Y-100994819D02*
X77478095Y-100994819D01*
X77763809Y-100994819D02*
X77763809Y-99994819D01*
X77763809Y-99994819D02*
X77668571Y-100137676D01*
X77668571Y-100137676D02*
X77573333Y-100232914D01*
X77573333Y-100232914D02*
X77478095Y-100280533D01*
X79001904Y-100994819D02*
X78430476Y-100994819D01*
X78716190Y-100994819D02*
X78716190Y-99994819D01*
X78716190Y-99994819D02*
X78620952Y-100137676D01*
X78620952Y-100137676D02*
X78525714Y-100232914D01*
X78525714Y-100232914D02*
X78430476Y-100280533D01*
X114781905Y-100994819D02*
X114781905Y-99994819D01*
X114781905Y-99994819D02*
X115020000Y-99994819D01*
X115020000Y-99994819D02*
X115162857Y-100042438D01*
X115162857Y-100042438D02*
X115258095Y-100137676D01*
X115258095Y-100137676D02*
X115305714Y-100232914D01*
X115305714Y-100232914D02*
X115353333Y-100423390D01*
X115353333Y-100423390D02*
X115353333Y-100566247D01*
X115353333Y-100566247D02*
X115305714Y-100756723D01*
X115305714Y-100756723D02*
X115258095Y-100851961D01*
X115258095Y-100851961D02*
X115162857Y-100947200D01*
X115162857Y-100947200D02*
X115020000Y-100994819D01*
X115020000Y-100994819D02*
X114781905Y-100994819D01*
X115829524Y-100994819D02*
X116020000Y-100994819D01*
X116020000Y-100994819D02*
X116115238Y-100947200D01*
X116115238Y-100947200D02*
X116162857Y-100899580D01*
X116162857Y-100899580D02*
X116258095Y-100756723D01*
X116258095Y-100756723D02*
X116305714Y-100566247D01*
X116305714Y-100566247D02*
X116305714Y-100185295D01*
X116305714Y-100185295D02*
X116258095Y-100090057D01*
X116258095Y-100090057D02*
X116210476Y-100042438D01*
X116210476Y-100042438D02*
X116115238Y-99994819D01*
X116115238Y-99994819D02*
X115924762Y-99994819D01*
X115924762Y-99994819D02*
X115829524Y-100042438D01*
X115829524Y-100042438D02*
X115781905Y-100090057D01*
X115781905Y-100090057D02*
X115734286Y-100185295D01*
X115734286Y-100185295D02*
X115734286Y-100423390D01*
X115734286Y-100423390D02*
X115781905Y-100518628D01*
X115781905Y-100518628D02*
X115829524Y-100566247D01*
X115829524Y-100566247D02*
X115924762Y-100613866D01*
X115924762Y-100613866D02*
X116115238Y-100613866D01*
X116115238Y-100613866D02*
X116210476Y-100566247D01*
X116210476Y-100566247D02*
X116258095Y-100518628D01*
X116258095Y-100518628D02*
X116305714Y-100423390D01*
X27966779Y-53394819D02*
X27966779Y-54204342D01*
X27966779Y-54204342D02*
X28014398Y-54299580D01*
X28014398Y-54299580D02*
X28062017Y-54347200D01*
X28062017Y-54347200D02*
X28157255Y-54394819D01*
X28157255Y-54394819D02*
X28347731Y-54394819D01*
X28347731Y-54394819D02*
X28442969Y-54347200D01*
X28442969Y-54347200D02*
X28490588Y-54299580D01*
X28490588Y-54299580D02*
X28538207Y-54204342D01*
X28538207Y-54204342D02*
X28538207Y-53394819D01*
X29538207Y-54394819D02*
X28966779Y-54394819D01*
X29252493Y-54394819D02*
X29252493Y-53394819D01*
X29252493Y-53394819D02*
X29157255Y-53537676D01*
X29157255Y-53537676D02*
X29062017Y-53632914D01*
X29062017Y-53632914D02*
X28966779Y-53680533D01*
X30109636Y-53823390D02*
X30014398Y-53775771D01*
X30014398Y-53775771D02*
X29966779Y-53728152D01*
X29966779Y-53728152D02*
X29919160Y-53632914D01*
X29919160Y-53632914D02*
X29919160Y-53585295D01*
X29919160Y-53585295D02*
X29966779Y-53490057D01*
X29966779Y-53490057D02*
X30014398Y-53442438D01*
X30014398Y-53442438D02*
X30109636Y-53394819D01*
X30109636Y-53394819D02*
X30300112Y-53394819D01*
X30300112Y-53394819D02*
X30395350Y-53442438D01*
X30395350Y-53442438D02*
X30442969Y-53490057D01*
X30442969Y-53490057D02*
X30490588Y-53585295D01*
X30490588Y-53585295D02*
X30490588Y-53632914D01*
X30490588Y-53632914D02*
X30442969Y-53728152D01*
X30442969Y-53728152D02*
X30395350Y-53775771D01*
X30395350Y-53775771D02*
X30300112Y-53823390D01*
X30300112Y-53823390D02*
X30109636Y-53823390D01*
X30109636Y-53823390D02*
X30014398Y-53871009D01*
X30014398Y-53871009D02*
X29966779Y-53918628D01*
X29966779Y-53918628D02*
X29919160Y-54013866D01*
X29919160Y-54013866D02*
X29919160Y-54204342D01*
X29919160Y-54204342D02*
X29966779Y-54299580D01*
X29966779Y-54299580D02*
X30014398Y-54347200D01*
X30014398Y-54347200D02*
X30109636Y-54394819D01*
X30109636Y-54394819D02*
X30300112Y-54394819D01*
X30300112Y-54394819D02*
X30395350Y-54347200D01*
X30395350Y-54347200D02*
X30442969Y-54299580D01*
X30442969Y-54299580D02*
X30490588Y-54204342D01*
X30490588Y-54204342D02*
X30490588Y-54013866D01*
X30490588Y-54013866D02*
X30442969Y-53918628D01*
X30442969Y-53918628D02*
X30395350Y-53871009D01*
X30395350Y-53871009D02*
X30300112Y-53823390D01*
X35508095Y-20369819D02*
X35508095Y-21179342D01*
X35508095Y-21179342D02*
X35555714Y-21274580D01*
X35555714Y-21274580D02*
X35603333Y-21322200D01*
X35603333Y-21322200D02*
X35698571Y-21369819D01*
X35698571Y-21369819D02*
X35889047Y-21369819D01*
X35889047Y-21369819D02*
X35984285Y-21322200D01*
X35984285Y-21322200D02*
X36031904Y-21274580D01*
X36031904Y-21274580D02*
X36079523Y-21179342D01*
X36079523Y-21179342D02*
X36079523Y-20369819D01*
X36508095Y-21322200D02*
X36650952Y-21369819D01*
X36650952Y-21369819D02*
X36889047Y-21369819D01*
X36889047Y-21369819D02*
X36984285Y-21322200D01*
X36984285Y-21322200D02*
X37031904Y-21274580D01*
X37031904Y-21274580D02*
X37079523Y-21179342D01*
X37079523Y-21179342D02*
X37079523Y-21084104D01*
X37079523Y-21084104D02*
X37031904Y-20988866D01*
X37031904Y-20988866D02*
X36984285Y-20941247D01*
X36984285Y-20941247D02*
X36889047Y-20893628D01*
X36889047Y-20893628D02*
X36698571Y-20846009D01*
X36698571Y-20846009D02*
X36603333Y-20798390D01*
X36603333Y-20798390D02*
X36555714Y-20750771D01*
X36555714Y-20750771D02*
X36508095Y-20655533D01*
X36508095Y-20655533D02*
X36508095Y-20560295D01*
X36508095Y-20560295D02*
X36555714Y-20465057D01*
X36555714Y-20465057D02*
X36603333Y-20417438D01*
X36603333Y-20417438D02*
X36698571Y-20369819D01*
X36698571Y-20369819D02*
X36936666Y-20369819D01*
X36936666Y-20369819D02*
X37079523Y-20417438D01*
X37841428Y-20846009D02*
X37984285Y-20893628D01*
X37984285Y-20893628D02*
X38031904Y-20941247D01*
X38031904Y-20941247D02*
X38079523Y-21036485D01*
X38079523Y-21036485D02*
X38079523Y-21179342D01*
X38079523Y-21179342D02*
X38031904Y-21274580D01*
X38031904Y-21274580D02*
X37984285Y-21322200D01*
X37984285Y-21322200D02*
X37889047Y-21369819D01*
X37889047Y-21369819D02*
X37508095Y-21369819D01*
X37508095Y-21369819D02*
X37508095Y-20369819D01*
X37508095Y-20369819D02*
X37841428Y-20369819D01*
X37841428Y-20369819D02*
X37936666Y-20417438D01*
X37936666Y-20417438D02*
X37984285Y-20465057D01*
X37984285Y-20465057D02*
X38031904Y-20560295D01*
X38031904Y-20560295D02*
X38031904Y-20655533D01*
X38031904Y-20655533D02*
X37984285Y-20750771D01*
X37984285Y-20750771D02*
X37936666Y-20798390D01*
X37936666Y-20798390D02*
X37841428Y-20846009D01*
X37841428Y-20846009D02*
X37508095Y-20846009D01*
X34150952Y-22103152D02*
X34531904Y-22103152D01*
X34293809Y-21769819D02*
X34293809Y-22626961D01*
X34293809Y-22626961D02*
X34341428Y-22722200D01*
X34341428Y-22722200D02*
X34436666Y-22769819D01*
X34436666Y-22769819D02*
X34531904Y-22769819D01*
X35008095Y-22769819D02*
X34912857Y-22722200D01*
X34912857Y-22722200D02*
X34865238Y-22674580D01*
X34865238Y-22674580D02*
X34817619Y-22579342D01*
X34817619Y-22579342D02*
X34817619Y-22293628D01*
X34817619Y-22293628D02*
X34865238Y-22198390D01*
X34865238Y-22198390D02*
X34912857Y-22150771D01*
X34912857Y-22150771D02*
X35008095Y-22103152D01*
X35008095Y-22103152D02*
X35150952Y-22103152D01*
X35150952Y-22103152D02*
X35246190Y-22150771D01*
X35246190Y-22150771D02*
X35293809Y-22198390D01*
X35293809Y-22198390D02*
X35341428Y-22293628D01*
X35341428Y-22293628D02*
X35341428Y-22579342D01*
X35341428Y-22579342D02*
X35293809Y-22674580D01*
X35293809Y-22674580D02*
X35246190Y-22722200D01*
X35246190Y-22722200D02*
X35150952Y-22769819D01*
X35150952Y-22769819D02*
X35008095Y-22769819D01*
X35770000Y-22103152D02*
X35770000Y-23103152D01*
X35770000Y-22150771D02*
X35865238Y-22103152D01*
X35865238Y-22103152D02*
X36055714Y-22103152D01*
X36055714Y-22103152D02*
X36150952Y-22150771D01*
X36150952Y-22150771D02*
X36198571Y-22198390D01*
X36198571Y-22198390D02*
X36246190Y-22293628D01*
X36246190Y-22293628D02*
X36246190Y-22579342D01*
X36246190Y-22579342D02*
X36198571Y-22674580D01*
X36198571Y-22674580D02*
X36150952Y-22722200D01*
X36150952Y-22722200D02*
X36055714Y-22769819D01*
X36055714Y-22769819D02*
X35865238Y-22769819D01*
X35865238Y-22769819D02*
X35770000Y-22722200D01*
X36627143Y-22722200D02*
X36722381Y-22769819D01*
X36722381Y-22769819D02*
X36912857Y-22769819D01*
X36912857Y-22769819D02*
X37008095Y-22722200D01*
X37008095Y-22722200D02*
X37055714Y-22626961D01*
X37055714Y-22626961D02*
X37055714Y-22579342D01*
X37055714Y-22579342D02*
X37008095Y-22484104D01*
X37008095Y-22484104D02*
X36912857Y-22436485D01*
X36912857Y-22436485D02*
X36770000Y-22436485D01*
X36770000Y-22436485D02*
X36674762Y-22388866D01*
X36674762Y-22388866D02*
X36627143Y-22293628D01*
X36627143Y-22293628D02*
X36627143Y-22246009D01*
X36627143Y-22246009D02*
X36674762Y-22150771D01*
X36674762Y-22150771D02*
X36770000Y-22103152D01*
X36770000Y-22103152D02*
X36912857Y-22103152D01*
X36912857Y-22103152D02*
X37008095Y-22150771D01*
X37484286Y-22769819D02*
X37484286Y-22103152D01*
X37484286Y-21769819D02*
X37436667Y-21817438D01*
X37436667Y-21817438D02*
X37484286Y-21865057D01*
X37484286Y-21865057D02*
X37531905Y-21817438D01*
X37531905Y-21817438D02*
X37484286Y-21769819D01*
X37484286Y-21769819D02*
X37484286Y-21865057D01*
X38389047Y-22769819D02*
X38389047Y-21769819D01*
X38389047Y-22722200D02*
X38293809Y-22769819D01*
X38293809Y-22769819D02*
X38103333Y-22769819D01*
X38103333Y-22769819D02*
X38008095Y-22722200D01*
X38008095Y-22722200D02*
X37960476Y-22674580D01*
X37960476Y-22674580D02*
X37912857Y-22579342D01*
X37912857Y-22579342D02*
X37912857Y-22293628D01*
X37912857Y-22293628D02*
X37960476Y-22198390D01*
X37960476Y-22198390D02*
X38008095Y-22150771D01*
X38008095Y-22150771D02*
X38103333Y-22103152D01*
X38103333Y-22103152D02*
X38293809Y-22103152D01*
X38293809Y-22103152D02*
X38389047Y-22150771D01*
X39246190Y-22722200D02*
X39150952Y-22769819D01*
X39150952Y-22769819D02*
X38960476Y-22769819D01*
X38960476Y-22769819D02*
X38865238Y-22722200D01*
X38865238Y-22722200D02*
X38817619Y-22626961D01*
X38817619Y-22626961D02*
X38817619Y-22246009D01*
X38817619Y-22246009D02*
X38865238Y-22150771D01*
X38865238Y-22150771D02*
X38960476Y-22103152D01*
X38960476Y-22103152D02*
X39150952Y-22103152D01*
X39150952Y-22103152D02*
X39246190Y-22150771D01*
X39246190Y-22150771D02*
X39293809Y-22246009D01*
X39293809Y-22246009D02*
X39293809Y-22341247D01*
X39293809Y-22341247D02*
X38817619Y-22436485D01*
X31340714Y-24287319D02*
X30769286Y-24287319D01*
X31055000Y-24287319D02*
X31055000Y-23287319D01*
X31055000Y-23287319D02*
X30959762Y-23430176D01*
X30959762Y-23430176D02*
X30864524Y-23525414D01*
X30864524Y-23525414D02*
X30769286Y-23573033D01*
X71108095Y-20264819D02*
X71108095Y-19264819D01*
X71108095Y-19741009D02*
X71679523Y-19741009D01*
X71679523Y-20264819D02*
X71679523Y-19264819D01*
X72108095Y-19360057D02*
X72155714Y-19312438D01*
X72155714Y-19312438D02*
X72250952Y-19264819D01*
X72250952Y-19264819D02*
X72489047Y-19264819D01*
X72489047Y-19264819D02*
X72584285Y-19312438D01*
X72584285Y-19312438D02*
X72631904Y-19360057D01*
X72631904Y-19360057D02*
X72679523Y-19455295D01*
X72679523Y-19455295D02*
X72679523Y-19550533D01*
X72679523Y-19550533D02*
X72631904Y-19693390D01*
X72631904Y-19693390D02*
X72060476Y-20264819D01*
X72060476Y-20264819D02*
X72679523Y-20264819D01*
X77001905Y-63234819D02*
X77001905Y-62234819D01*
X77001905Y-62234819D02*
X77240000Y-62234819D01*
X77240000Y-62234819D02*
X77382857Y-62282438D01*
X77382857Y-62282438D02*
X77478095Y-62377676D01*
X77478095Y-62377676D02*
X77525714Y-62472914D01*
X77525714Y-62472914D02*
X77573333Y-62663390D01*
X77573333Y-62663390D02*
X77573333Y-62806247D01*
X77573333Y-62806247D02*
X77525714Y-62996723D01*
X77525714Y-62996723D02*
X77478095Y-63091961D01*
X77478095Y-63091961D02*
X77382857Y-63187200D01*
X77382857Y-63187200D02*
X77240000Y-63234819D01*
X77240000Y-63234819D02*
X77001905Y-63234819D01*
X77954286Y-62330057D02*
X78001905Y-62282438D01*
X78001905Y-62282438D02*
X78097143Y-62234819D01*
X78097143Y-62234819D02*
X78335238Y-62234819D01*
X78335238Y-62234819D02*
X78430476Y-62282438D01*
X78430476Y-62282438D02*
X78478095Y-62330057D01*
X78478095Y-62330057D02*
X78525714Y-62425295D01*
X78525714Y-62425295D02*
X78525714Y-62520533D01*
X78525714Y-62520533D02*
X78478095Y-62663390D01*
X78478095Y-62663390D02*
X77906667Y-63234819D01*
X77906667Y-63234819D02*
X78525714Y-63234819D01*
D11*
X88858095Y-47557419D02*
X88858095Y-48366942D01*
X88858095Y-48366942D02*
X88905714Y-48462180D01*
X88905714Y-48462180D02*
X88953333Y-48509800D01*
X88953333Y-48509800D02*
X89048571Y-48557419D01*
X89048571Y-48557419D02*
X89239047Y-48557419D01*
X89239047Y-48557419D02*
X89334285Y-48509800D01*
X89334285Y-48509800D02*
X89381904Y-48462180D01*
X89381904Y-48462180D02*
X89429523Y-48366942D01*
X89429523Y-48366942D02*
X89429523Y-47557419D01*
X90334285Y-47890752D02*
X90334285Y-48557419D01*
X90096190Y-47509800D02*
X89858095Y-48224085D01*
X89858095Y-48224085D02*
X90477142Y-48224085D01*
D10*
X19448095Y-16724819D02*
X19448095Y-15724819D01*
X19448095Y-16201009D02*
X20019523Y-16201009D01*
X20019523Y-16724819D02*
X20019523Y-15724819D01*
X21019523Y-16724819D02*
X20448095Y-16724819D01*
X20733809Y-16724819D02*
X20733809Y-15724819D01*
X20733809Y-15724819D02*
X20638571Y-15867676D01*
X20638571Y-15867676D02*
X20543333Y-15962914D01*
X20543333Y-15962914D02*
X20448095Y-16010533D01*
X95881905Y-82114819D02*
X95881905Y-81114819D01*
X95881905Y-81114819D02*
X96120000Y-81114819D01*
X96120000Y-81114819D02*
X96262857Y-81162438D01*
X96262857Y-81162438D02*
X96358095Y-81257676D01*
X96358095Y-81257676D02*
X96405714Y-81352914D01*
X96405714Y-81352914D02*
X96453333Y-81543390D01*
X96453333Y-81543390D02*
X96453333Y-81686247D01*
X96453333Y-81686247D02*
X96405714Y-81876723D01*
X96405714Y-81876723D02*
X96358095Y-81971961D01*
X96358095Y-81971961D02*
X96262857Y-82067200D01*
X96262857Y-82067200D02*
X96120000Y-82114819D01*
X96120000Y-82114819D02*
X95881905Y-82114819D01*
X96786667Y-81114819D02*
X97453333Y-81114819D01*
X97453333Y-81114819D02*
X97024762Y-82114819D01*
X95405714Y-119874819D02*
X95405714Y-118874819D01*
X95405714Y-118874819D02*
X95643809Y-118874819D01*
X95643809Y-118874819D02*
X95786666Y-118922438D01*
X95786666Y-118922438D02*
X95881904Y-119017676D01*
X95881904Y-119017676D02*
X95929523Y-119112914D01*
X95929523Y-119112914D02*
X95977142Y-119303390D01*
X95977142Y-119303390D02*
X95977142Y-119446247D01*
X95977142Y-119446247D02*
X95929523Y-119636723D01*
X95929523Y-119636723D02*
X95881904Y-119731961D01*
X95881904Y-119731961D02*
X95786666Y-119827200D01*
X95786666Y-119827200D02*
X95643809Y-119874819D01*
X95643809Y-119874819D02*
X95405714Y-119874819D01*
X96929523Y-119874819D02*
X96358095Y-119874819D01*
X96643809Y-119874819D02*
X96643809Y-118874819D01*
X96643809Y-118874819D02*
X96548571Y-119017676D01*
X96548571Y-119017676D02*
X96453333Y-119112914D01*
X96453333Y-119112914D02*
X96358095Y-119160533D01*
X97786666Y-119208152D02*
X97786666Y-119874819D01*
X97548571Y-118827200D02*
X97310476Y-119541485D01*
X97310476Y-119541485D02*
X97929523Y-119541485D01*
X57665714Y-100994819D02*
X57665714Y-99994819D01*
X57665714Y-99994819D02*
X57903809Y-99994819D01*
X57903809Y-99994819D02*
X58046666Y-100042438D01*
X58046666Y-100042438D02*
X58141904Y-100137676D01*
X58141904Y-100137676D02*
X58189523Y-100232914D01*
X58189523Y-100232914D02*
X58237142Y-100423390D01*
X58237142Y-100423390D02*
X58237142Y-100566247D01*
X58237142Y-100566247D02*
X58189523Y-100756723D01*
X58189523Y-100756723D02*
X58141904Y-100851961D01*
X58141904Y-100851961D02*
X58046666Y-100947200D01*
X58046666Y-100947200D02*
X57903809Y-100994819D01*
X57903809Y-100994819D02*
X57665714Y-100994819D01*
X59189523Y-100994819D02*
X58618095Y-100994819D01*
X58903809Y-100994819D02*
X58903809Y-99994819D01*
X58903809Y-99994819D02*
X58808571Y-100137676D01*
X58808571Y-100137676D02*
X58713333Y-100232914D01*
X58713333Y-100232914D02*
X58618095Y-100280533D01*
X59570476Y-100090057D02*
X59618095Y-100042438D01*
X59618095Y-100042438D02*
X59713333Y-99994819D01*
X59713333Y-99994819D02*
X59951428Y-99994819D01*
X59951428Y-99994819D02*
X60046666Y-100042438D01*
X60046666Y-100042438D02*
X60094285Y-100090057D01*
X60094285Y-100090057D02*
X60141904Y-100185295D01*
X60141904Y-100185295D02*
X60141904Y-100280533D01*
X60141904Y-100280533D02*
X60094285Y-100423390D01*
X60094285Y-100423390D02*
X59522857Y-100994819D01*
X59522857Y-100994819D02*
X60141904Y-100994819D01*
X95881905Y-63234819D02*
X95881905Y-62234819D01*
X95881905Y-62234819D02*
X96120000Y-62234819D01*
X96120000Y-62234819D02*
X96262857Y-62282438D01*
X96262857Y-62282438D02*
X96358095Y-62377676D01*
X96358095Y-62377676D02*
X96405714Y-62472914D01*
X96405714Y-62472914D02*
X96453333Y-62663390D01*
X96453333Y-62663390D02*
X96453333Y-62806247D01*
X96453333Y-62806247D02*
X96405714Y-62996723D01*
X96405714Y-62996723D02*
X96358095Y-63091961D01*
X96358095Y-63091961D02*
X96262857Y-63187200D01*
X96262857Y-63187200D02*
X96120000Y-63234819D01*
X96120000Y-63234819D02*
X95881905Y-63234819D01*
X96786667Y-62234819D02*
X97405714Y-62234819D01*
X97405714Y-62234819D02*
X97072381Y-62615771D01*
X97072381Y-62615771D02*
X97215238Y-62615771D01*
X97215238Y-62615771D02*
X97310476Y-62663390D01*
X97310476Y-62663390D02*
X97358095Y-62711009D01*
X97358095Y-62711009D02*
X97405714Y-62806247D01*
X97405714Y-62806247D02*
X97405714Y-63044342D01*
X97405714Y-63044342D02*
X97358095Y-63139580D01*
X97358095Y-63139580D02*
X97310476Y-63187200D01*
X97310476Y-63187200D02*
X97215238Y-63234819D01*
X97215238Y-63234819D02*
X96929524Y-63234819D01*
X96929524Y-63234819D02*
X96834286Y-63187200D01*
X96834286Y-63187200D02*
X96786667Y-63139580D01*
X75088095Y-128534819D02*
X75088095Y-127534819D01*
X75088095Y-128011009D02*
X75659523Y-128011009D01*
X75659523Y-128534819D02*
X75659523Y-127534819D01*
X76564285Y-127534819D02*
X76373809Y-127534819D01*
X76373809Y-127534819D02*
X76278571Y-127582438D01*
X76278571Y-127582438D02*
X76230952Y-127630057D01*
X76230952Y-127630057D02*
X76135714Y-127772914D01*
X76135714Y-127772914D02*
X76088095Y-127963390D01*
X76088095Y-127963390D02*
X76088095Y-128344342D01*
X76088095Y-128344342D02*
X76135714Y-128439580D01*
X76135714Y-128439580D02*
X76183333Y-128487200D01*
X76183333Y-128487200D02*
X76278571Y-128534819D01*
X76278571Y-128534819D02*
X76469047Y-128534819D01*
X76469047Y-128534819D02*
X76564285Y-128487200D01*
X76564285Y-128487200D02*
X76611904Y-128439580D01*
X76611904Y-128439580D02*
X76659523Y-128344342D01*
X76659523Y-128344342D02*
X76659523Y-128106247D01*
X76659523Y-128106247D02*
X76611904Y-128011009D01*
X76611904Y-128011009D02*
X76564285Y-127963390D01*
X76564285Y-127963390D02*
X76469047Y-127915771D01*
X76469047Y-127915771D02*
X76278571Y-127915771D01*
X76278571Y-127915771D02*
X76183333Y-127963390D01*
X76183333Y-127963390D02*
X76135714Y-128011009D01*
X76135714Y-128011009D02*
X76088095Y-128106247D01*
D11*
X69978095Y-47557419D02*
X69978095Y-48366942D01*
X69978095Y-48366942D02*
X70025714Y-48462180D01*
X70025714Y-48462180D02*
X70073333Y-48509800D01*
X70073333Y-48509800D02*
X70168571Y-48557419D01*
X70168571Y-48557419D02*
X70359047Y-48557419D01*
X70359047Y-48557419D02*
X70454285Y-48509800D01*
X70454285Y-48509800D02*
X70501904Y-48462180D01*
X70501904Y-48462180D02*
X70549523Y-48366942D01*
X70549523Y-48366942D02*
X70549523Y-47557419D01*
X70930476Y-47557419D02*
X71549523Y-47557419D01*
X71549523Y-47557419D02*
X71216190Y-47938371D01*
X71216190Y-47938371D02*
X71359047Y-47938371D01*
X71359047Y-47938371D02*
X71454285Y-47985990D01*
X71454285Y-47985990D02*
X71501904Y-48033609D01*
X71501904Y-48033609D02*
X71549523Y-48128847D01*
X71549523Y-48128847D02*
X71549523Y-48366942D01*
X71549523Y-48366942D02*
X71501904Y-48462180D01*
X71501904Y-48462180D02*
X71454285Y-48509800D01*
X71454285Y-48509800D02*
X71359047Y-48557419D01*
X71359047Y-48557419D02*
X71073333Y-48557419D01*
X71073333Y-48557419D02*
X70978095Y-48509800D01*
X70978095Y-48509800D02*
X70930476Y-48462180D01*
X51098095Y-47557419D02*
X51098095Y-48366942D01*
X51098095Y-48366942D02*
X51145714Y-48462180D01*
X51145714Y-48462180D02*
X51193333Y-48509800D01*
X51193333Y-48509800D02*
X51288571Y-48557419D01*
X51288571Y-48557419D02*
X51479047Y-48557419D01*
X51479047Y-48557419D02*
X51574285Y-48509800D01*
X51574285Y-48509800D02*
X51621904Y-48462180D01*
X51621904Y-48462180D02*
X51669523Y-48366942D01*
X51669523Y-48366942D02*
X51669523Y-47557419D01*
X52098095Y-47652657D02*
X52145714Y-47605038D01*
X52145714Y-47605038D02*
X52240952Y-47557419D01*
X52240952Y-47557419D02*
X52479047Y-47557419D01*
X52479047Y-47557419D02*
X52574285Y-47605038D01*
X52574285Y-47605038D02*
X52621904Y-47652657D01*
X52621904Y-47652657D02*
X52669523Y-47747895D01*
X52669523Y-47747895D02*
X52669523Y-47843133D01*
X52669523Y-47843133D02*
X52621904Y-47985990D01*
X52621904Y-47985990D02*
X52050476Y-48557419D01*
X52050476Y-48557419D02*
X52669523Y-48557419D01*
D10*
X95425714Y-100994819D02*
X95425714Y-99994819D01*
X95425714Y-99994819D02*
X95663809Y-99994819D01*
X95663809Y-99994819D02*
X95806666Y-100042438D01*
X95806666Y-100042438D02*
X95901904Y-100137676D01*
X95901904Y-100137676D02*
X95949523Y-100232914D01*
X95949523Y-100232914D02*
X95997142Y-100423390D01*
X95997142Y-100423390D02*
X95997142Y-100566247D01*
X95997142Y-100566247D02*
X95949523Y-100756723D01*
X95949523Y-100756723D02*
X95901904Y-100851961D01*
X95901904Y-100851961D02*
X95806666Y-100947200D01*
X95806666Y-100947200D02*
X95663809Y-100994819D01*
X95663809Y-100994819D02*
X95425714Y-100994819D01*
X96949523Y-100994819D02*
X96378095Y-100994819D01*
X96663809Y-100994819D02*
X96663809Y-99994819D01*
X96663809Y-99994819D02*
X96568571Y-100137676D01*
X96568571Y-100137676D02*
X96473333Y-100232914D01*
X96473333Y-100232914D02*
X96378095Y-100280533D01*
X97568571Y-99994819D02*
X97663809Y-99994819D01*
X97663809Y-99994819D02*
X97759047Y-100042438D01*
X97759047Y-100042438D02*
X97806666Y-100090057D01*
X97806666Y-100090057D02*
X97854285Y-100185295D01*
X97854285Y-100185295D02*
X97901904Y-100375771D01*
X97901904Y-100375771D02*
X97901904Y-100613866D01*
X97901904Y-100613866D02*
X97854285Y-100804342D01*
X97854285Y-100804342D02*
X97806666Y-100899580D01*
X97806666Y-100899580D02*
X97759047Y-100947200D01*
X97759047Y-100947200D02*
X97663809Y-100994819D01*
X97663809Y-100994819D02*
X97568571Y-100994819D01*
X97568571Y-100994819D02*
X97473333Y-100947200D01*
X97473333Y-100947200D02*
X97425714Y-100899580D01*
X97425714Y-100899580D02*
X97378095Y-100804342D01*
X97378095Y-100804342D02*
X97330476Y-100613866D01*
X97330476Y-100613866D02*
X97330476Y-100375771D01*
X97330476Y-100375771D02*
X97378095Y-100185295D01*
X97378095Y-100185295D02*
X97425714Y-100090057D01*
X97425714Y-100090057D02*
X97473333Y-100042438D01*
X97473333Y-100042438D02*
X97568571Y-99994819D01*
X15188095Y-125034819D02*
X15188095Y-124034819D01*
X15188095Y-124511009D02*
X15759523Y-124511009D01*
X15759523Y-125034819D02*
X15759523Y-124034819D01*
X16140476Y-124034819D02*
X16807142Y-124034819D01*
X16807142Y-124034819D02*
X16378571Y-125034819D01*
X77001905Y-82114819D02*
X77001905Y-81114819D01*
X77001905Y-81114819D02*
X77240000Y-81114819D01*
X77240000Y-81114819D02*
X77382857Y-81162438D01*
X77382857Y-81162438D02*
X77478095Y-81257676D01*
X77478095Y-81257676D02*
X77525714Y-81352914D01*
X77525714Y-81352914D02*
X77573333Y-81543390D01*
X77573333Y-81543390D02*
X77573333Y-81686247D01*
X77573333Y-81686247D02*
X77525714Y-81876723D01*
X77525714Y-81876723D02*
X77478095Y-81971961D01*
X77478095Y-81971961D02*
X77382857Y-82067200D01*
X77382857Y-82067200D02*
X77240000Y-82114819D01*
X77240000Y-82114819D02*
X77001905Y-82114819D01*
X78430476Y-81114819D02*
X78240000Y-81114819D01*
X78240000Y-81114819D02*
X78144762Y-81162438D01*
X78144762Y-81162438D02*
X78097143Y-81210057D01*
X78097143Y-81210057D02*
X78001905Y-81352914D01*
X78001905Y-81352914D02*
X77954286Y-81543390D01*
X77954286Y-81543390D02*
X77954286Y-81924342D01*
X77954286Y-81924342D02*
X78001905Y-82019580D01*
X78001905Y-82019580D02*
X78049524Y-82067200D01*
X78049524Y-82067200D02*
X78144762Y-82114819D01*
X78144762Y-82114819D02*
X78335238Y-82114819D01*
X78335238Y-82114819D02*
X78430476Y-82067200D01*
X78430476Y-82067200D02*
X78478095Y-82019580D01*
X78478095Y-82019580D02*
X78525714Y-81924342D01*
X78525714Y-81924342D02*
X78525714Y-81686247D01*
X78525714Y-81686247D02*
X78478095Y-81591009D01*
X78478095Y-81591009D02*
X78430476Y-81543390D01*
X78430476Y-81543390D02*
X78335238Y-81495771D01*
X78335238Y-81495771D02*
X78144762Y-81495771D01*
X78144762Y-81495771D02*
X78049524Y-81543390D01*
X78049524Y-81543390D02*
X78001905Y-81591009D01*
X78001905Y-81591009D02*
X77954286Y-81686247D01*
D11*
X50621905Y-104197419D02*
X50621905Y-105006942D01*
X50621905Y-105006942D02*
X50669524Y-105102180D01*
X50669524Y-105102180D02*
X50717143Y-105149800D01*
X50717143Y-105149800D02*
X50812381Y-105197419D01*
X50812381Y-105197419D02*
X51002857Y-105197419D01*
X51002857Y-105197419D02*
X51098095Y-105149800D01*
X51098095Y-105149800D02*
X51145714Y-105102180D01*
X51145714Y-105102180D02*
X51193333Y-105006942D01*
X51193333Y-105006942D02*
X51193333Y-104197419D01*
X52193333Y-105197419D02*
X51621905Y-105197419D01*
X51907619Y-105197419D02*
X51907619Y-104197419D01*
X51907619Y-104197419D02*
X51812381Y-104340276D01*
X51812381Y-104340276D02*
X51717143Y-104435514D01*
X51717143Y-104435514D02*
X51621905Y-104483133D01*
X52526667Y-104197419D02*
X53193333Y-104197419D01*
X53193333Y-104197419D02*
X52764762Y-105197419D01*
D10*
X76525714Y-119874819D02*
X76525714Y-118874819D01*
X76525714Y-118874819D02*
X76763809Y-118874819D01*
X76763809Y-118874819D02*
X76906666Y-118922438D01*
X76906666Y-118922438D02*
X77001904Y-119017676D01*
X77001904Y-119017676D02*
X77049523Y-119112914D01*
X77049523Y-119112914D02*
X77097142Y-119303390D01*
X77097142Y-119303390D02*
X77097142Y-119446247D01*
X77097142Y-119446247D02*
X77049523Y-119636723D01*
X77049523Y-119636723D02*
X77001904Y-119731961D01*
X77001904Y-119731961D02*
X76906666Y-119827200D01*
X76906666Y-119827200D02*
X76763809Y-119874819D01*
X76763809Y-119874819D02*
X76525714Y-119874819D01*
X78049523Y-119874819D02*
X77478095Y-119874819D01*
X77763809Y-119874819D02*
X77763809Y-118874819D01*
X77763809Y-118874819D02*
X77668571Y-119017676D01*
X77668571Y-119017676D02*
X77573333Y-119112914D01*
X77573333Y-119112914D02*
X77478095Y-119160533D01*
X78954285Y-118874819D02*
X78478095Y-118874819D01*
X78478095Y-118874819D02*
X78430476Y-119351009D01*
X78430476Y-119351009D02*
X78478095Y-119303390D01*
X78478095Y-119303390D02*
X78573333Y-119255771D01*
X78573333Y-119255771D02*
X78811428Y-119255771D01*
X78811428Y-119255771D02*
X78906666Y-119303390D01*
X78906666Y-119303390D02*
X78954285Y-119351009D01*
X78954285Y-119351009D02*
X79001904Y-119446247D01*
X79001904Y-119446247D02*
X79001904Y-119684342D01*
X79001904Y-119684342D02*
X78954285Y-119779580D01*
X78954285Y-119779580D02*
X78906666Y-119827200D01*
X78906666Y-119827200D02*
X78811428Y-119874819D01*
X78811428Y-119874819D02*
X78573333Y-119874819D01*
X78573333Y-119874819D02*
X78478095Y-119827200D01*
X78478095Y-119827200D02*
X78430476Y-119779580D01*
D11*
X88858095Y-66437419D02*
X88858095Y-67246942D01*
X88858095Y-67246942D02*
X88905714Y-67342180D01*
X88905714Y-67342180D02*
X88953333Y-67389800D01*
X88953333Y-67389800D02*
X89048571Y-67437419D01*
X89048571Y-67437419D02*
X89239047Y-67437419D01*
X89239047Y-67437419D02*
X89334285Y-67389800D01*
X89334285Y-67389800D02*
X89381904Y-67342180D01*
X89381904Y-67342180D02*
X89429523Y-67246942D01*
X89429523Y-67246942D02*
X89429523Y-66437419D01*
X90048571Y-66865990D02*
X89953333Y-66818371D01*
X89953333Y-66818371D02*
X89905714Y-66770752D01*
X89905714Y-66770752D02*
X89858095Y-66675514D01*
X89858095Y-66675514D02*
X89858095Y-66627895D01*
X89858095Y-66627895D02*
X89905714Y-66532657D01*
X89905714Y-66532657D02*
X89953333Y-66485038D01*
X89953333Y-66485038D02*
X90048571Y-66437419D01*
X90048571Y-66437419D02*
X90239047Y-66437419D01*
X90239047Y-66437419D02*
X90334285Y-66485038D01*
X90334285Y-66485038D02*
X90381904Y-66532657D01*
X90381904Y-66532657D02*
X90429523Y-66627895D01*
X90429523Y-66627895D02*
X90429523Y-66675514D01*
X90429523Y-66675514D02*
X90381904Y-66770752D01*
X90381904Y-66770752D02*
X90334285Y-66818371D01*
X90334285Y-66818371D02*
X90239047Y-66865990D01*
X90239047Y-66865990D02*
X90048571Y-66865990D01*
X90048571Y-66865990D02*
X89953333Y-66913609D01*
X89953333Y-66913609D02*
X89905714Y-66961228D01*
X89905714Y-66961228D02*
X89858095Y-67056466D01*
X89858095Y-67056466D02*
X89858095Y-67246942D01*
X89858095Y-67246942D02*
X89905714Y-67342180D01*
X89905714Y-67342180D02*
X89953333Y-67389800D01*
X89953333Y-67389800D02*
X90048571Y-67437419D01*
X90048571Y-67437419D02*
X90239047Y-67437419D01*
X90239047Y-67437419D02*
X90334285Y-67389800D01*
X90334285Y-67389800D02*
X90381904Y-67342180D01*
X90381904Y-67342180D02*
X90429523Y-67246942D01*
X90429523Y-67246942D02*
X90429523Y-67056466D01*
X90429523Y-67056466D02*
X90381904Y-66961228D01*
X90381904Y-66961228D02*
X90334285Y-66913609D01*
X90334285Y-66913609D02*
X90239047Y-66865990D01*
D10*
X27639580Y-66766666D02*
X27687200Y-66814285D01*
X27687200Y-66814285D02*
X27734819Y-66957142D01*
X27734819Y-66957142D02*
X27734819Y-67052380D01*
X27734819Y-67052380D02*
X27687200Y-67195237D01*
X27687200Y-67195237D02*
X27591961Y-67290475D01*
X27591961Y-67290475D02*
X27496723Y-67338094D01*
X27496723Y-67338094D02*
X27306247Y-67385713D01*
X27306247Y-67385713D02*
X27163390Y-67385713D01*
X27163390Y-67385713D02*
X26972914Y-67338094D01*
X26972914Y-67338094D02*
X26877676Y-67290475D01*
X26877676Y-67290475D02*
X26782438Y-67195237D01*
X26782438Y-67195237D02*
X26734819Y-67052380D01*
X26734819Y-67052380D02*
X26734819Y-66957142D01*
X26734819Y-66957142D02*
X26782438Y-66814285D01*
X26782438Y-66814285D02*
X26830057Y-66766666D01*
X27734819Y-65814285D02*
X27734819Y-66385713D01*
X27734819Y-66099999D02*
X26734819Y-66099999D01*
X26734819Y-66099999D02*
X26877676Y-66195237D01*
X26877676Y-66195237D02*
X26972914Y-66290475D01*
X26972914Y-66290475D02*
X27020533Y-66385713D01*
D11*
X107261905Y-85317419D02*
X107261905Y-86126942D01*
X107261905Y-86126942D02*
X107309524Y-86222180D01*
X107309524Y-86222180D02*
X107357143Y-86269800D01*
X107357143Y-86269800D02*
X107452381Y-86317419D01*
X107452381Y-86317419D02*
X107642857Y-86317419D01*
X107642857Y-86317419D02*
X107738095Y-86269800D01*
X107738095Y-86269800D02*
X107785714Y-86222180D01*
X107785714Y-86222180D02*
X107833333Y-86126942D01*
X107833333Y-86126942D02*
X107833333Y-85317419D01*
X108833333Y-86317419D02*
X108261905Y-86317419D01*
X108547619Y-86317419D02*
X108547619Y-85317419D01*
X108547619Y-85317419D02*
X108452381Y-85460276D01*
X108452381Y-85460276D02*
X108357143Y-85555514D01*
X108357143Y-85555514D02*
X108261905Y-85603133D01*
X109452381Y-85317419D02*
X109547619Y-85317419D01*
X109547619Y-85317419D02*
X109642857Y-85365038D01*
X109642857Y-85365038D02*
X109690476Y-85412657D01*
X109690476Y-85412657D02*
X109738095Y-85507895D01*
X109738095Y-85507895D02*
X109785714Y-85698371D01*
X109785714Y-85698371D02*
X109785714Y-85936466D01*
X109785714Y-85936466D02*
X109738095Y-86126942D01*
X109738095Y-86126942D02*
X109690476Y-86222180D01*
X109690476Y-86222180D02*
X109642857Y-86269800D01*
X109642857Y-86269800D02*
X109547619Y-86317419D01*
X109547619Y-86317419D02*
X109452381Y-86317419D01*
X109452381Y-86317419D02*
X109357143Y-86269800D01*
X109357143Y-86269800D02*
X109309524Y-86222180D01*
X109309524Y-86222180D02*
X109261905Y-86126942D01*
X109261905Y-86126942D02*
X109214286Y-85936466D01*
X109214286Y-85936466D02*
X109214286Y-85698371D01*
X109214286Y-85698371D02*
X109261905Y-85507895D01*
X109261905Y-85507895D02*
X109309524Y-85412657D01*
X109309524Y-85412657D02*
X109357143Y-85365038D01*
X109357143Y-85365038D02*
X109452381Y-85317419D01*
X107261905Y-104197419D02*
X107261905Y-105006942D01*
X107261905Y-105006942D02*
X107309524Y-105102180D01*
X107309524Y-105102180D02*
X107357143Y-105149800D01*
X107357143Y-105149800D02*
X107452381Y-105197419D01*
X107452381Y-105197419D02*
X107642857Y-105197419D01*
X107642857Y-105197419D02*
X107738095Y-105149800D01*
X107738095Y-105149800D02*
X107785714Y-105102180D01*
X107785714Y-105102180D02*
X107833333Y-105006942D01*
X107833333Y-105006942D02*
X107833333Y-104197419D01*
X108833333Y-105197419D02*
X108261905Y-105197419D01*
X108547619Y-105197419D02*
X108547619Y-104197419D01*
X108547619Y-104197419D02*
X108452381Y-104340276D01*
X108452381Y-104340276D02*
X108357143Y-104435514D01*
X108357143Y-104435514D02*
X108261905Y-104483133D01*
X109690476Y-104530752D02*
X109690476Y-105197419D01*
X109452381Y-104149800D02*
X109214286Y-104864085D01*
X109214286Y-104864085D02*
X109833333Y-104864085D01*
D10*
X126978095Y-125004819D02*
X126978095Y-124004819D01*
X126978095Y-124481009D02*
X127549523Y-124481009D01*
X127549523Y-125004819D02*
X127549523Y-124004819D01*
X128501904Y-124004819D02*
X128025714Y-124004819D01*
X128025714Y-124004819D02*
X127978095Y-124481009D01*
X127978095Y-124481009D02*
X128025714Y-124433390D01*
X128025714Y-124433390D02*
X128120952Y-124385771D01*
X128120952Y-124385771D02*
X128359047Y-124385771D01*
X128359047Y-124385771D02*
X128454285Y-124433390D01*
X128454285Y-124433390D02*
X128501904Y-124481009D01*
X128501904Y-124481009D02*
X128549523Y-124576247D01*
X128549523Y-124576247D02*
X128549523Y-124814342D01*
X128549523Y-124814342D02*
X128501904Y-124909580D01*
X128501904Y-124909580D02*
X128454285Y-124957200D01*
X128454285Y-124957200D02*
X128359047Y-125004819D01*
X128359047Y-125004819D02*
X128120952Y-125004819D01*
X128120952Y-125004819D02*
X128025714Y-124957200D01*
X128025714Y-124957200D02*
X127978095Y-124909580D01*
D11*
X50621905Y-85317419D02*
X50621905Y-86126942D01*
X50621905Y-86126942D02*
X50669524Y-86222180D01*
X50669524Y-86222180D02*
X50717143Y-86269800D01*
X50717143Y-86269800D02*
X50812381Y-86317419D01*
X50812381Y-86317419D02*
X51002857Y-86317419D01*
X51002857Y-86317419D02*
X51098095Y-86269800D01*
X51098095Y-86269800D02*
X51145714Y-86222180D01*
X51145714Y-86222180D02*
X51193333Y-86126942D01*
X51193333Y-86126942D02*
X51193333Y-85317419D01*
X52193333Y-86317419D02*
X51621905Y-86317419D01*
X51907619Y-86317419D02*
X51907619Y-85317419D01*
X51907619Y-85317419D02*
X51812381Y-85460276D01*
X51812381Y-85460276D02*
X51717143Y-85555514D01*
X51717143Y-85555514D02*
X51621905Y-85603133D01*
X52526667Y-85317419D02*
X53145714Y-85317419D01*
X53145714Y-85317419D02*
X52812381Y-85698371D01*
X52812381Y-85698371D02*
X52955238Y-85698371D01*
X52955238Y-85698371D02*
X53050476Y-85745990D01*
X53050476Y-85745990D02*
X53098095Y-85793609D01*
X53098095Y-85793609D02*
X53145714Y-85888847D01*
X53145714Y-85888847D02*
X53145714Y-86126942D01*
X53145714Y-86126942D02*
X53098095Y-86222180D01*
X53098095Y-86222180D02*
X53050476Y-86269800D01*
X53050476Y-86269800D02*
X52955238Y-86317419D01*
X52955238Y-86317419D02*
X52669524Y-86317419D01*
X52669524Y-86317419D02*
X52574286Y-86269800D01*
X52574286Y-86269800D02*
X52526667Y-86222180D01*
D10*
X114761905Y-63234819D02*
X114761905Y-62234819D01*
X114761905Y-62234819D02*
X115000000Y-62234819D01*
X115000000Y-62234819D02*
X115142857Y-62282438D01*
X115142857Y-62282438D02*
X115238095Y-62377676D01*
X115238095Y-62377676D02*
X115285714Y-62472914D01*
X115285714Y-62472914D02*
X115333333Y-62663390D01*
X115333333Y-62663390D02*
X115333333Y-62806247D01*
X115333333Y-62806247D02*
X115285714Y-62996723D01*
X115285714Y-62996723D02*
X115238095Y-63091961D01*
X115238095Y-63091961D02*
X115142857Y-63187200D01*
X115142857Y-63187200D02*
X115000000Y-63234819D01*
X115000000Y-63234819D02*
X114761905Y-63234819D01*
X116190476Y-62568152D02*
X116190476Y-63234819D01*
X115952381Y-62187200D02*
X115714286Y-62901485D01*
X115714286Y-62901485D02*
X116333333Y-62901485D01*
D11*
X88381905Y-85317419D02*
X88381905Y-86126942D01*
X88381905Y-86126942D02*
X88429524Y-86222180D01*
X88429524Y-86222180D02*
X88477143Y-86269800D01*
X88477143Y-86269800D02*
X88572381Y-86317419D01*
X88572381Y-86317419D02*
X88762857Y-86317419D01*
X88762857Y-86317419D02*
X88858095Y-86269800D01*
X88858095Y-86269800D02*
X88905714Y-86222180D01*
X88905714Y-86222180D02*
X88953333Y-86126942D01*
X88953333Y-86126942D02*
X88953333Y-85317419D01*
X89953333Y-86317419D02*
X89381905Y-86317419D01*
X89667619Y-86317419D02*
X89667619Y-85317419D01*
X89667619Y-85317419D02*
X89572381Y-85460276D01*
X89572381Y-85460276D02*
X89477143Y-85555514D01*
X89477143Y-85555514D02*
X89381905Y-85603133D01*
X90905714Y-86317419D02*
X90334286Y-86317419D01*
X90620000Y-86317419D02*
X90620000Y-85317419D01*
X90620000Y-85317419D02*
X90524762Y-85460276D01*
X90524762Y-85460276D02*
X90429524Y-85555514D01*
X90429524Y-85555514D02*
X90334286Y-85603133D01*
D10*
X25199580Y-66826666D02*
X25247200Y-66874285D01*
X25247200Y-66874285D02*
X25294819Y-67017142D01*
X25294819Y-67017142D02*
X25294819Y-67112380D01*
X25294819Y-67112380D02*
X25247200Y-67255237D01*
X25247200Y-67255237D02*
X25151961Y-67350475D01*
X25151961Y-67350475D02*
X25056723Y-67398094D01*
X25056723Y-67398094D02*
X24866247Y-67445713D01*
X24866247Y-67445713D02*
X24723390Y-67445713D01*
X24723390Y-67445713D02*
X24532914Y-67398094D01*
X24532914Y-67398094D02*
X24437676Y-67350475D01*
X24437676Y-67350475D02*
X24342438Y-67255237D01*
X24342438Y-67255237D02*
X24294819Y-67112380D01*
X24294819Y-67112380D02*
X24294819Y-67017142D01*
X24294819Y-67017142D02*
X24342438Y-66874285D01*
X24342438Y-66874285D02*
X24390057Y-66826666D01*
X24390057Y-66445713D02*
X24342438Y-66398094D01*
X24342438Y-66398094D02*
X24294819Y-66302856D01*
X24294819Y-66302856D02*
X24294819Y-66064761D01*
X24294819Y-66064761D02*
X24342438Y-65969523D01*
X24342438Y-65969523D02*
X24390057Y-65921904D01*
X24390057Y-65921904D02*
X24485295Y-65874285D01*
X24485295Y-65874285D02*
X24580533Y-65874285D01*
X24580533Y-65874285D02*
X24723390Y-65921904D01*
X24723390Y-65921904D02*
X25294819Y-66493332D01*
X25294819Y-66493332D02*
X25294819Y-65874285D01*
D11*
X88381905Y-104197419D02*
X88381905Y-105006942D01*
X88381905Y-105006942D02*
X88429524Y-105102180D01*
X88429524Y-105102180D02*
X88477143Y-105149800D01*
X88477143Y-105149800D02*
X88572381Y-105197419D01*
X88572381Y-105197419D02*
X88762857Y-105197419D01*
X88762857Y-105197419D02*
X88858095Y-105149800D01*
X88858095Y-105149800D02*
X88905714Y-105102180D01*
X88905714Y-105102180D02*
X88953333Y-105006942D01*
X88953333Y-105006942D02*
X88953333Y-104197419D01*
X89953333Y-105197419D02*
X89381905Y-105197419D01*
X89667619Y-105197419D02*
X89667619Y-104197419D01*
X89667619Y-104197419D02*
X89572381Y-104340276D01*
X89572381Y-104340276D02*
X89477143Y-104435514D01*
X89477143Y-104435514D02*
X89381905Y-104483133D01*
X90858095Y-104197419D02*
X90381905Y-104197419D01*
X90381905Y-104197419D02*
X90334286Y-104673609D01*
X90334286Y-104673609D02*
X90381905Y-104625990D01*
X90381905Y-104625990D02*
X90477143Y-104578371D01*
X90477143Y-104578371D02*
X90715238Y-104578371D01*
X90715238Y-104578371D02*
X90810476Y-104625990D01*
X90810476Y-104625990D02*
X90858095Y-104673609D01*
X90858095Y-104673609D02*
X90905714Y-104768847D01*
X90905714Y-104768847D02*
X90905714Y-105006942D01*
X90905714Y-105006942D02*
X90858095Y-105102180D01*
X90858095Y-105102180D02*
X90810476Y-105149800D01*
X90810476Y-105149800D02*
X90715238Y-105197419D01*
X90715238Y-105197419D02*
X90477143Y-105197419D01*
X90477143Y-105197419D02*
X90381905Y-105149800D01*
X90381905Y-105149800D02*
X90334286Y-105102180D01*
D10*
X58121905Y-82114819D02*
X58121905Y-81114819D01*
X58121905Y-81114819D02*
X58360000Y-81114819D01*
X58360000Y-81114819D02*
X58502857Y-81162438D01*
X58502857Y-81162438D02*
X58598095Y-81257676D01*
X58598095Y-81257676D02*
X58645714Y-81352914D01*
X58645714Y-81352914D02*
X58693333Y-81543390D01*
X58693333Y-81543390D02*
X58693333Y-81686247D01*
X58693333Y-81686247D02*
X58645714Y-81876723D01*
X58645714Y-81876723D02*
X58598095Y-81971961D01*
X58598095Y-81971961D02*
X58502857Y-82067200D01*
X58502857Y-82067200D02*
X58360000Y-82114819D01*
X58360000Y-82114819D02*
X58121905Y-82114819D01*
X59598095Y-81114819D02*
X59121905Y-81114819D01*
X59121905Y-81114819D02*
X59074286Y-81591009D01*
X59074286Y-81591009D02*
X59121905Y-81543390D01*
X59121905Y-81543390D02*
X59217143Y-81495771D01*
X59217143Y-81495771D02*
X59455238Y-81495771D01*
X59455238Y-81495771D02*
X59550476Y-81543390D01*
X59550476Y-81543390D02*
X59598095Y-81591009D01*
X59598095Y-81591009D02*
X59645714Y-81686247D01*
X59645714Y-81686247D02*
X59645714Y-81924342D01*
X59645714Y-81924342D02*
X59598095Y-82019580D01*
X59598095Y-82019580D02*
X59550476Y-82067200D01*
X59550476Y-82067200D02*
X59455238Y-82114819D01*
X59455238Y-82114819D02*
X59217143Y-82114819D01*
X59217143Y-82114819D02*
X59121905Y-82067200D01*
X59121905Y-82067200D02*
X59074286Y-82019580D01*
X57645714Y-119874819D02*
X57645714Y-118874819D01*
X57645714Y-118874819D02*
X57883809Y-118874819D01*
X57883809Y-118874819D02*
X58026666Y-118922438D01*
X58026666Y-118922438D02*
X58121904Y-119017676D01*
X58121904Y-119017676D02*
X58169523Y-119112914D01*
X58169523Y-119112914D02*
X58217142Y-119303390D01*
X58217142Y-119303390D02*
X58217142Y-119446247D01*
X58217142Y-119446247D02*
X58169523Y-119636723D01*
X58169523Y-119636723D02*
X58121904Y-119731961D01*
X58121904Y-119731961D02*
X58026666Y-119827200D01*
X58026666Y-119827200D02*
X57883809Y-119874819D01*
X57883809Y-119874819D02*
X57645714Y-119874819D01*
X59169523Y-119874819D02*
X58598095Y-119874819D01*
X58883809Y-119874819D02*
X58883809Y-118874819D01*
X58883809Y-118874819D02*
X58788571Y-119017676D01*
X58788571Y-119017676D02*
X58693333Y-119112914D01*
X58693333Y-119112914D02*
X58598095Y-119160533D01*
X60026666Y-118874819D02*
X59836190Y-118874819D01*
X59836190Y-118874819D02*
X59740952Y-118922438D01*
X59740952Y-118922438D02*
X59693333Y-118970057D01*
X59693333Y-118970057D02*
X59598095Y-119112914D01*
X59598095Y-119112914D02*
X59550476Y-119303390D01*
X59550476Y-119303390D02*
X59550476Y-119684342D01*
X59550476Y-119684342D02*
X59598095Y-119779580D01*
X59598095Y-119779580D02*
X59645714Y-119827200D01*
X59645714Y-119827200D02*
X59740952Y-119874819D01*
X59740952Y-119874819D02*
X59931428Y-119874819D01*
X59931428Y-119874819D02*
X60026666Y-119827200D01*
X60026666Y-119827200D02*
X60074285Y-119779580D01*
X60074285Y-119779580D02*
X60121904Y-119684342D01*
X60121904Y-119684342D02*
X60121904Y-119446247D01*
X60121904Y-119446247D02*
X60074285Y-119351009D01*
X60074285Y-119351009D02*
X60026666Y-119303390D01*
X60026666Y-119303390D02*
X59931428Y-119255771D01*
X59931428Y-119255771D02*
X59740952Y-119255771D01*
X59740952Y-119255771D02*
X59645714Y-119303390D01*
X59645714Y-119303390D02*
X59598095Y-119351009D01*
X59598095Y-119351009D02*
X59550476Y-119446247D01*
X126978095Y-69144819D02*
X126978095Y-68144819D01*
X126978095Y-68621009D02*
X127549523Y-68621009D01*
X127549523Y-69144819D02*
X127549523Y-68144819D01*
X128454285Y-68478152D02*
X128454285Y-69144819D01*
X128216190Y-68097200D02*
X127978095Y-68811485D01*
X127978095Y-68811485D02*
X128597142Y-68811485D01*
D11*
X107738095Y-47557419D02*
X107738095Y-48366942D01*
X107738095Y-48366942D02*
X107785714Y-48462180D01*
X107785714Y-48462180D02*
X107833333Y-48509800D01*
X107833333Y-48509800D02*
X107928571Y-48557419D01*
X107928571Y-48557419D02*
X108119047Y-48557419D01*
X108119047Y-48557419D02*
X108214285Y-48509800D01*
X108214285Y-48509800D02*
X108261904Y-48462180D01*
X108261904Y-48462180D02*
X108309523Y-48366942D01*
X108309523Y-48366942D02*
X108309523Y-47557419D01*
X109261904Y-47557419D02*
X108785714Y-47557419D01*
X108785714Y-47557419D02*
X108738095Y-48033609D01*
X108738095Y-48033609D02*
X108785714Y-47985990D01*
X108785714Y-47985990D02*
X108880952Y-47938371D01*
X108880952Y-47938371D02*
X109119047Y-47938371D01*
X109119047Y-47938371D02*
X109214285Y-47985990D01*
X109214285Y-47985990D02*
X109261904Y-48033609D01*
X109261904Y-48033609D02*
X109309523Y-48128847D01*
X109309523Y-48128847D02*
X109309523Y-48366942D01*
X109309523Y-48366942D02*
X109261904Y-48462180D01*
X109261904Y-48462180D02*
X109214285Y-48509800D01*
X109214285Y-48509800D02*
X109119047Y-48557419D01*
X109119047Y-48557419D02*
X108880952Y-48557419D01*
X108880952Y-48557419D02*
X108785714Y-48509800D01*
X108785714Y-48509800D02*
X108738095Y-48462180D01*
D10*
X43924819Y-72141904D02*
X44734342Y-72141904D01*
X44734342Y-72141904D02*
X44829580Y-72094285D01*
X44829580Y-72094285D02*
X44877200Y-72046666D01*
X44877200Y-72046666D02*
X44924819Y-71951428D01*
X44924819Y-71951428D02*
X44924819Y-71760952D01*
X44924819Y-71760952D02*
X44877200Y-71665714D01*
X44877200Y-71665714D02*
X44829580Y-71618095D01*
X44829580Y-71618095D02*
X44734342Y-71570476D01*
X44734342Y-71570476D02*
X43924819Y-71570476D01*
X44924819Y-70570476D02*
X44924819Y-71141904D01*
X44924819Y-70856190D02*
X43924819Y-70856190D01*
X43924819Y-70856190D02*
X44067676Y-70951428D01*
X44067676Y-70951428D02*
X44162914Y-71046666D01*
X44162914Y-71046666D02*
X44210533Y-71141904D01*
X58121905Y-63234819D02*
X58121905Y-62234819D01*
X58121905Y-62234819D02*
X58360000Y-62234819D01*
X58360000Y-62234819D02*
X58502857Y-62282438D01*
X58502857Y-62282438D02*
X58598095Y-62377676D01*
X58598095Y-62377676D02*
X58645714Y-62472914D01*
X58645714Y-62472914D02*
X58693333Y-62663390D01*
X58693333Y-62663390D02*
X58693333Y-62806247D01*
X58693333Y-62806247D02*
X58645714Y-62996723D01*
X58645714Y-62996723D02*
X58598095Y-63091961D01*
X58598095Y-63091961D02*
X58502857Y-63187200D01*
X58502857Y-63187200D02*
X58360000Y-63234819D01*
X58360000Y-63234819D02*
X58121905Y-63234819D01*
X59645714Y-63234819D02*
X59074286Y-63234819D01*
X59360000Y-63234819D02*
X59360000Y-62234819D01*
X59360000Y-62234819D02*
X59264762Y-62377676D01*
X59264762Y-62377676D02*
X59169524Y-62472914D01*
X59169524Y-62472914D02*
X59074286Y-62520533D01*
D11*
X69501905Y-104197419D02*
X69501905Y-105006942D01*
X69501905Y-105006942D02*
X69549524Y-105102180D01*
X69549524Y-105102180D02*
X69597143Y-105149800D01*
X69597143Y-105149800D02*
X69692381Y-105197419D01*
X69692381Y-105197419D02*
X69882857Y-105197419D01*
X69882857Y-105197419D02*
X69978095Y-105149800D01*
X69978095Y-105149800D02*
X70025714Y-105102180D01*
X70025714Y-105102180D02*
X70073333Y-105006942D01*
X70073333Y-105006942D02*
X70073333Y-104197419D01*
X71073333Y-105197419D02*
X70501905Y-105197419D01*
X70787619Y-105197419D02*
X70787619Y-104197419D01*
X70787619Y-104197419D02*
X70692381Y-104340276D01*
X70692381Y-104340276D02*
X70597143Y-104435514D01*
X70597143Y-104435514D02*
X70501905Y-104483133D01*
X71930476Y-104197419D02*
X71740000Y-104197419D01*
X71740000Y-104197419D02*
X71644762Y-104245038D01*
X71644762Y-104245038D02*
X71597143Y-104292657D01*
X71597143Y-104292657D02*
X71501905Y-104435514D01*
X71501905Y-104435514D02*
X71454286Y-104625990D01*
X71454286Y-104625990D02*
X71454286Y-105006942D01*
X71454286Y-105006942D02*
X71501905Y-105102180D01*
X71501905Y-105102180D02*
X71549524Y-105149800D01*
X71549524Y-105149800D02*
X71644762Y-105197419D01*
X71644762Y-105197419D02*
X71835238Y-105197419D01*
X71835238Y-105197419D02*
X71930476Y-105149800D01*
X71930476Y-105149800D02*
X71978095Y-105102180D01*
X71978095Y-105102180D02*
X72025714Y-105006942D01*
X72025714Y-105006942D02*
X72025714Y-104768847D01*
X72025714Y-104768847D02*
X71978095Y-104673609D01*
X71978095Y-104673609D02*
X71930476Y-104625990D01*
X71930476Y-104625990D02*
X71835238Y-104578371D01*
X71835238Y-104578371D02*
X71644762Y-104578371D01*
X71644762Y-104578371D02*
X71549524Y-104625990D01*
X71549524Y-104625990D02*
X71501905Y-104673609D01*
X71501905Y-104673609D02*
X71454286Y-104768847D01*
D10*
X82266667Y-26057200D02*
X82409524Y-26104819D01*
X82409524Y-26104819D02*
X82647619Y-26104819D01*
X82647619Y-26104819D02*
X82742857Y-26057200D01*
X82742857Y-26057200D02*
X82790476Y-26009580D01*
X82790476Y-26009580D02*
X82838095Y-25914342D01*
X82838095Y-25914342D02*
X82838095Y-25819104D01*
X82838095Y-25819104D02*
X82790476Y-25723866D01*
X82790476Y-25723866D02*
X82742857Y-25676247D01*
X82742857Y-25676247D02*
X82647619Y-25628628D01*
X82647619Y-25628628D02*
X82457143Y-25581009D01*
X82457143Y-25581009D02*
X82361905Y-25533390D01*
X82361905Y-25533390D02*
X82314286Y-25485771D01*
X82314286Y-25485771D02*
X82266667Y-25390533D01*
X82266667Y-25390533D02*
X82266667Y-25295295D01*
X82266667Y-25295295D02*
X82314286Y-25200057D01*
X82314286Y-25200057D02*
X82361905Y-25152438D01*
X82361905Y-25152438D02*
X82457143Y-25104819D01*
X82457143Y-25104819D02*
X82695238Y-25104819D01*
X82695238Y-25104819D02*
X82838095Y-25152438D01*
X83171429Y-25104819D02*
X83409524Y-26104819D01*
X83409524Y-26104819D02*
X83600000Y-25390533D01*
X83600000Y-25390533D02*
X83790476Y-26104819D01*
X83790476Y-26104819D02*
X84028572Y-25104819D01*
X84933333Y-26104819D02*
X84361905Y-26104819D01*
X84647619Y-26104819D02*
X84647619Y-25104819D01*
X84647619Y-25104819D02*
X84552381Y-25247676D01*
X84552381Y-25247676D02*
X84457143Y-25342914D01*
X84457143Y-25342914D02*
X84361905Y-25390533D01*
X85004285Y-37071009D02*
X85147142Y-37118628D01*
X85147142Y-37118628D02*
X85194761Y-37166247D01*
X85194761Y-37166247D02*
X85242380Y-37261485D01*
X85242380Y-37261485D02*
X85242380Y-37404342D01*
X85242380Y-37404342D02*
X85194761Y-37499580D01*
X85194761Y-37499580D02*
X85147142Y-37547200D01*
X85147142Y-37547200D02*
X85051904Y-37594819D01*
X85051904Y-37594819D02*
X84670952Y-37594819D01*
X84670952Y-37594819D02*
X84670952Y-36594819D01*
X84670952Y-36594819D02*
X85004285Y-36594819D01*
X85004285Y-36594819D02*
X85099523Y-36642438D01*
X85099523Y-36642438D02*
X85147142Y-36690057D01*
X85147142Y-36690057D02*
X85194761Y-36785295D01*
X85194761Y-36785295D02*
X85194761Y-36880533D01*
X85194761Y-36880533D02*
X85147142Y-36975771D01*
X85147142Y-36975771D02*
X85099523Y-37023390D01*
X85099523Y-37023390D02*
X85004285Y-37071009D01*
X85004285Y-37071009D02*
X84670952Y-37071009D01*
X85528095Y-36594819D02*
X86099523Y-36594819D01*
X85813809Y-37594819D02*
X85813809Y-36594819D01*
X86956666Y-37594819D02*
X86385238Y-37594819D01*
X86670952Y-37594819D02*
X86670952Y-36594819D01*
X86670952Y-36594819D02*
X86575714Y-36737676D01*
X86575714Y-36737676D02*
X86480476Y-36832914D01*
X86480476Y-36832914D02*
X86385238Y-36880533D01*
D11*
X69501905Y-85317419D02*
X69501905Y-86126942D01*
X69501905Y-86126942D02*
X69549524Y-86222180D01*
X69549524Y-86222180D02*
X69597143Y-86269800D01*
X69597143Y-86269800D02*
X69692381Y-86317419D01*
X69692381Y-86317419D02*
X69882857Y-86317419D01*
X69882857Y-86317419D02*
X69978095Y-86269800D01*
X69978095Y-86269800D02*
X70025714Y-86222180D01*
X70025714Y-86222180D02*
X70073333Y-86126942D01*
X70073333Y-86126942D02*
X70073333Y-85317419D01*
X71073333Y-86317419D02*
X70501905Y-86317419D01*
X70787619Y-86317419D02*
X70787619Y-85317419D01*
X70787619Y-85317419D02*
X70692381Y-85460276D01*
X70692381Y-85460276D02*
X70597143Y-85555514D01*
X70597143Y-85555514D02*
X70501905Y-85603133D01*
X71454286Y-85412657D02*
X71501905Y-85365038D01*
X71501905Y-85365038D02*
X71597143Y-85317419D01*
X71597143Y-85317419D02*
X71835238Y-85317419D01*
X71835238Y-85317419D02*
X71930476Y-85365038D01*
X71930476Y-85365038D02*
X71978095Y-85412657D01*
X71978095Y-85412657D02*
X72025714Y-85507895D01*
X72025714Y-85507895D02*
X72025714Y-85603133D01*
X72025714Y-85603133D02*
X71978095Y-85745990D01*
X71978095Y-85745990D02*
X71406667Y-86317419D01*
X71406667Y-86317419D02*
X72025714Y-86317419D01*
D10*
X114761905Y-82114819D02*
X114761905Y-81114819D01*
X114761905Y-81114819D02*
X115000000Y-81114819D01*
X115000000Y-81114819D02*
X115142857Y-81162438D01*
X115142857Y-81162438D02*
X115238095Y-81257676D01*
X115238095Y-81257676D02*
X115285714Y-81352914D01*
X115285714Y-81352914D02*
X115333333Y-81543390D01*
X115333333Y-81543390D02*
X115333333Y-81686247D01*
X115333333Y-81686247D02*
X115285714Y-81876723D01*
X115285714Y-81876723D02*
X115238095Y-81971961D01*
X115238095Y-81971961D02*
X115142857Y-82067200D01*
X115142857Y-82067200D02*
X115000000Y-82114819D01*
X115000000Y-82114819D02*
X114761905Y-82114819D01*
X115904762Y-81543390D02*
X115809524Y-81495771D01*
X115809524Y-81495771D02*
X115761905Y-81448152D01*
X115761905Y-81448152D02*
X115714286Y-81352914D01*
X115714286Y-81352914D02*
X115714286Y-81305295D01*
X115714286Y-81305295D02*
X115761905Y-81210057D01*
X115761905Y-81210057D02*
X115809524Y-81162438D01*
X115809524Y-81162438D02*
X115904762Y-81114819D01*
X115904762Y-81114819D02*
X116095238Y-81114819D01*
X116095238Y-81114819D02*
X116190476Y-81162438D01*
X116190476Y-81162438D02*
X116238095Y-81210057D01*
X116238095Y-81210057D02*
X116285714Y-81305295D01*
X116285714Y-81305295D02*
X116285714Y-81352914D01*
X116285714Y-81352914D02*
X116238095Y-81448152D01*
X116238095Y-81448152D02*
X116190476Y-81495771D01*
X116190476Y-81495771D02*
X116095238Y-81543390D01*
X116095238Y-81543390D02*
X115904762Y-81543390D01*
X115904762Y-81543390D02*
X115809524Y-81591009D01*
X115809524Y-81591009D02*
X115761905Y-81638628D01*
X115761905Y-81638628D02*
X115714286Y-81733866D01*
X115714286Y-81733866D02*
X115714286Y-81924342D01*
X115714286Y-81924342D02*
X115761905Y-82019580D01*
X115761905Y-82019580D02*
X115809524Y-82067200D01*
X115809524Y-82067200D02*
X115904762Y-82114819D01*
X115904762Y-82114819D02*
X116095238Y-82114819D01*
X116095238Y-82114819D02*
X116190476Y-82067200D01*
X116190476Y-82067200D02*
X116238095Y-82019580D01*
X116238095Y-82019580D02*
X116285714Y-81924342D01*
X116285714Y-81924342D02*
X116285714Y-81733866D01*
X116285714Y-81733866D02*
X116238095Y-81638628D01*
X116238095Y-81638628D02*
X116190476Y-81591009D01*
X116190476Y-81591009D02*
X116095238Y-81543390D01*
D11*
X107738095Y-66437419D02*
X107738095Y-67246942D01*
X107738095Y-67246942D02*
X107785714Y-67342180D01*
X107785714Y-67342180D02*
X107833333Y-67389800D01*
X107833333Y-67389800D02*
X107928571Y-67437419D01*
X107928571Y-67437419D02*
X108119047Y-67437419D01*
X108119047Y-67437419D02*
X108214285Y-67389800D01*
X108214285Y-67389800D02*
X108261904Y-67342180D01*
X108261904Y-67342180D02*
X108309523Y-67246942D01*
X108309523Y-67246942D02*
X108309523Y-66437419D01*
X108833333Y-67437419D02*
X109023809Y-67437419D01*
X109023809Y-67437419D02*
X109119047Y-67389800D01*
X109119047Y-67389800D02*
X109166666Y-67342180D01*
X109166666Y-67342180D02*
X109261904Y-67199323D01*
X109261904Y-67199323D02*
X109309523Y-67008847D01*
X109309523Y-67008847D02*
X109309523Y-66627895D01*
X109309523Y-66627895D02*
X109261904Y-66532657D01*
X109261904Y-66532657D02*
X109214285Y-66485038D01*
X109214285Y-66485038D02*
X109119047Y-66437419D01*
X109119047Y-66437419D02*
X108928571Y-66437419D01*
X108928571Y-66437419D02*
X108833333Y-66485038D01*
X108833333Y-66485038D02*
X108785714Y-66532657D01*
X108785714Y-66532657D02*
X108738095Y-66627895D01*
X108738095Y-66627895D02*
X108738095Y-66865990D01*
X108738095Y-66865990D02*
X108785714Y-66961228D01*
X108785714Y-66961228D02*
X108833333Y-67008847D01*
X108833333Y-67008847D02*
X108928571Y-67056466D01*
X108928571Y-67056466D02*
X109119047Y-67056466D01*
X109119047Y-67056466D02*
X109214285Y-67008847D01*
X109214285Y-67008847D02*
X109261904Y-66961228D01*
X109261904Y-66961228D02*
X109309523Y-66865990D01*
D12*
%TO.C,U7*%
X70120000Y-69200000D02*
X85220000Y-69200000D01*
X85220000Y-69200000D02*
X85220000Y-84600000D01*
X85220000Y-84600000D02*
X70120000Y-84600000D01*
X70120000Y-84600000D02*
X70120000Y-69200000D01*
%TO.C,U6*%
X51240000Y-69200000D02*
X66340000Y-69200000D01*
X66340000Y-69200000D02*
X66340000Y-84600000D01*
X66340000Y-84600000D02*
X51240000Y-84600000D01*
X51240000Y-84600000D02*
X51240000Y-69200000D01*
D13*
%TO.C,D13*%
X113235000Y-120105000D02*
X113235000Y-122375000D01*
X113235000Y-122375000D02*
X117120000Y-122375000D01*
X117120000Y-120105000D02*
X113235000Y-120105000D01*
%TO.C,D11*%
X75455000Y-101225000D02*
X75455000Y-103495000D01*
X75455000Y-103495000D02*
X79340000Y-103495000D01*
X79340000Y-101225000D02*
X75455000Y-101225000D01*
%TO.C,D9*%
X113235000Y-101225000D02*
X113235000Y-103495000D01*
X113235000Y-103495000D02*
X117120000Y-103495000D01*
X117120000Y-101225000D02*
X113235000Y-101225000D01*
D10*
%TO.C,U18*%
X33220000Y-23500000D02*
X33220000Y-19920000D01*
X40320000Y-23500000D02*
X33220000Y-23500000D01*
X40320000Y-23500000D02*
X40320000Y-19920000D01*
X27880000Y-19920000D02*
X45660000Y-19920000D01*
X45660000Y-19920000D02*
X45660000Y-52940000D01*
X45660000Y-52940000D02*
X27880000Y-52940000D01*
X27880000Y-52940000D02*
X27880000Y-19920000D01*
D13*
%TO.C,D2*%
X75455000Y-63465000D02*
X75455000Y-65735000D01*
X75455000Y-65735000D02*
X79340000Y-65735000D01*
X79340000Y-63465000D02*
X75455000Y-63465000D01*
D12*
%TO.C,U4*%
X89000000Y-50320000D02*
X104100000Y-50320000D01*
X104100000Y-50320000D02*
X104100000Y-65720000D01*
X104100000Y-65720000D02*
X89000000Y-65720000D01*
X89000000Y-65720000D02*
X89000000Y-50320000D01*
D13*
%TO.C,D7*%
X98220000Y-82345000D02*
X94335000Y-82345000D01*
X94335000Y-84615000D02*
X98220000Y-84615000D01*
X94335000Y-82345000D02*
X94335000Y-84615000D01*
%TO.C,D14*%
X98220000Y-120105000D02*
X94335000Y-120105000D01*
X94335000Y-122375000D02*
X98220000Y-122375000D01*
X94335000Y-120105000D02*
X94335000Y-122375000D01*
%TO.C,D12*%
X56595000Y-101225000D02*
X56595000Y-103495000D01*
X56595000Y-103495000D02*
X60480000Y-103495000D01*
X60480000Y-101225000D02*
X56595000Y-101225000D01*
%TO.C,D3*%
X94335000Y-63465000D02*
X94335000Y-65735000D01*
X94335000Y-65735000D02*
X98220000Y-65735000D01*
X98220000Y-63465000D02*
X94335000Y-63465000D01*
D12*
%TO.C,U3*%
X70120000Y-50320000D02*
X85220000Y-50320000D01*
X85220000Y-50320000D02*
X85220000Y-65720000D01*
X85220000Y-65720000D02*
X70120000Y-65720000D01*
X70120000Y-65720000D02*
X70120000Y-50320000D01*
%TO.C,U2*%
X51240000Y-50320000D02*
X66340000Y-50320000D01*
X66340000Y-50320000D02*
X66340000Y-65720000D01*
X66340000Y-65720000D02*
X51240000Y-65720000D01*
X51240000Y-65720000D02*
X51240000Y-50320000D01*
D13*
%TO.C,D10*%
X94355000Y-101225000D02*
X94355000Y-103495000D01*
X94355000Y-103495000D02*
X98240000Y-103495000D01*
X98240000Y-101225000D02*
X94355000Y-101225000D01*
%TO.C,D6*%
X79340000Y-82345000D02*
X75455000Y-82345000D01*
X75455000Y-84615000D02*
X79340000Y-84615000D01*
X75455000Y-82345000D02*
X75455000Y-84615000D01*
D12*
%TO.C,U17*%
X51240000Y-106960000D02*
X66340000Y-106960000D01*
X66340000Y-106960000D02*
X66340000Y-122360000D01*
X66340000Y-122360000D02*
X51240000Y-122360000D01*
X51240000Y-122360000D02*
X51240000Y-106960000D01*
D13*
%TO.C,D15*%
X75455000Y-120105000D02*
X75455000Y-122375000D01*
X75455000Y-122375000D02*
X79340000Y-122375000D01*
X79340000Y-120105000D02*
X75455000Y-120105000D01*
D12*
%TO.C,U8*%
X89000000Y-69200000D02*
X104100000Y-69200000D01*
X104100000Y-69200000D02*
X104100000Y-84600000D01*
X104100000Y-84600000D02*
X89000000Y-84600000D01*
X89000000Y-84600000D02*
X89000000Y-69200000D01*
D13*
%TO.C,C1*%
X27670000Y-68830000D02*
X27655000Y-68830000D01*
X27670000Y-68830000D02*
X27670000Y-73370000D01*
X25545000Y-68830000D02*
X25530000Y-68830000D01*
X25530000Y-68830000D02*
X25530000Y-73370000D01*
X27670000Y-73370000D02*
X27655000Y-73370000D01*
X25545000Y-73370000D02*
X25530000Y-73370000D01*
D12*
%TO.C,U10*%
X107880000Y-88080000D02*
X122980000Y-88080000D01*
X122980000Y-88080000D02*
X122980000Y-103480000D01*
X122980000Y-103480000D02*
X107880000Y-103480000D01*
X107880000Y-103480000D02*
X107880000Y-88080000D01*
%TO.C,U14*%
X107880000Y-106960000D02*
X122980000Y-106960000D01*
X122980000Y-106960000D02*
X122980000Y-122360000D01*
X122980000Y-122360000D02*
X107880000Y-122360000D01*
X107880000Y-122360000D02*
X107880000Y-106960000D01*
%TO.C,U13*%
X51240000Y-88080000D02*
X66340000Y-88080000D01*
X66340000Y-88080000D02*
X66340000Y-103480000D01*
X66340000Y-103480000D02*
X51240000Y-103480000D01*
X51240000Y-103480000D02*
X51240000Y-88080000D01*
D13*
%TO.C,D4*%
X113215000Y-63465000D02*
X113215000Y-65735000D01*
X113215000Y-65735000D02*
X117100000Y-65735000D01*
X117100000Y-63465000D02*
X113215000Y-63465000D01*
D12*
%TO.C,U11*%
X89000000Y-88080000D02*
X104100000Y-88080000D01*
X104100000Y-88080000D02*
X104100000Y-103480000D01*
X104100000Y-103480000D02*
X89000000Y-103480000D01*
X89000000Y-103480000D02*
X89000000Y-88080000D01*
D13*
%TO.C,C2*%
X23080000Y-73380000D02*
X23095000Y-73380000D01*
X23080000Y-73380000D02*
X23080000Y-68840000D01*
X25205000Y-73380000D02*
X25220000Y-73380000D01*
X25220000Y-73380000D02*
X25220000Y-68840000D01*
X23080000Y-68840000D02*
X23095000Y-68840000D01*
X25205000Y-68840000D02*
X25220000Y-68840000D01*
D12*
%TO.C,U15*%
X89000000Y-106960000D02*
X104100000Y-106960000D01*
X104100000Y-106960000D02*
X104100000Y-122360000D01*
X104100000Y-122360000D02*
X89000000Y-122360000D01*
X89000000Y-122360000D02*
X89000000Y-106960000D01*
D13*
%TO.C,D5*%
X56575000Y-82345000D02*
X56575000Y-84615000D01*
X56575000Y-84615000D02*
X60460000Y-84615000D01*
X60460000Y-82345000D02*
X56575000Y-82345000D01*
%TO.C,D16*%
X56575000Y-120105000D02*
X56575000Y-122375000D01*
X56575000Y-122375000D02*
X60460000Y-122375000D01*
X60460000Y-120105000D02*
X56575000Y-120105000D01*
D12*
%TO.C,U5*%
X107880000Y-50320000D02*
X122980000Y-50320000D01*
X122980000Y-50320000D02*
X122980000Y-65720000D01*
X122980000Y-65720000D02*
X107880000Y-65720000D01*
X107880000Y-65720000D02*
X107880000Y-50320000D01*
D13*
%TO.C,U1*%
X43630000Y-67520000D02*
X43365000Y-67520000D01*
X43365000Y-67520000D02*
X43365000Y-65705000D01*
X28010000Y-67520000D02*
X28275000Y-67520000D01*
X43630000Y-71380000D02*
X43630000Y-67520000D01*
X43630000Y-71380000D02*
X43630000Y-75240000D01*
X28010000Y-71380000D02*
X28010000Y-67520000D01*
X28010000Y-71380000D02*
X28010000Y-75240000D01*
X43630000Y-75240000D02*
X43365000Y-75240000D01*
X28010000Y-75240000D02*
X28275000Y-75240000D01*
%TO.C,D1*%
X56575000Y-63465000D02*
X56575000Y-65735000D01*
X56575000Y-65735000D02*
X60460000Y-65735000D01*
X60460000Y-63465000D02*
X56575000Y-63465000D01*
D12*
%TO.C,U16*%
X70120000Y-106960000D02*
X85220000Y-106960000D01*
X85220000Y-106960000D02*
X85220000Y-122360000D01*
X85220000Y-122360000D02*
X70120000Y-122360000D01*
X70120000Y-122360000D02*
X70120000Y-106960000D01*
D13*
%TO.C,SW1*%
X88750000Y-24800000D02*
X88750000Y-23600000D01*
X88450000Y-24500000D02*
X88450000Y-20300000D01*
X88450000Y-20300000D02*
X87250000Y-20300000D01*
X87550000Y-24800000D02*
X88750000Y-24800000D01*
X87250000Y-24500000D02*
X88450000Y-24500000D01*
X80450000Y-24500000D02*
X79250000Y-24500000D01*
X79250000Y-24500000D02*
X79250000Y-20300000D01*
X79250000Y-20300000D02*
X80450000Y-20300000D01*
%TO.C,BT1*%
X46790000Y-28090000D02*
X124790000Y-28090000D01*
X46790000Y-48190000D02*
X46790000Y-28090000D01*
X124790000Y-28090000D02*
X124790000Y-48190000D01*
X124790000Y-48190000D02*
X46790000Y-48190000D01*
D12*
%TO.C,U12*%
X70120000Y-88080000D02*
X85220000Y-88080000D01*
X85220000Y-88080000D02*
X85220000Y-103480000D01*
X85220000Y-103480000D02*
X70120000Y-103480000D01*
X70120000Y-103480000D02*
X70120000Y-88080000D01*
D13*
%TO.C,D8*%
X113215000Y-82345000D02*
X113215000Y-84615000D01*
X113215000Y-84615000D02*
X117100000Y-84615000D01*
X117100000Y-82345000D02*
X113215000Y-82345000D01*
D12*
%TO.C,U9*%
X107880000Y-69200000D02*
X122980000Y-69200000D01*
X122980000Y-69200000D02*
X122980000Y-84600000D01*
X122980000Y-84600000D02*
X107880000Y-84600000D01*
X107880000Y-84600000D02*
X107880000Y-69200000D01*
%TD*%
M02*
