%TF.GenerationSoftware,KiCad,Pcbnew,7.0.9*%
%TF.CreationDate,2024-05-12T14:32:29+05:30*%
%TF.ProjectId,Analog_Macropad,416e616c-6f67-45f4-9d61-63726f706164,rev?*%
%TF.SameCoordinates,Original*%
%TF.FileFunction,Paste,Bot*%
%TF.FilePolarity,Positive*%
%FSLAX46Y46*%
G04 Gerber Fmt 4.6, Leading zero omitted, Abs format (unit mm)*
G04 Created by KiCad (PCBNEW 7.0.9) date 2024-05-12 14:32:29*
%MOMM*%
%LPD*%
G01*
G04 APERTURE LIST*
%ADD10R,1.270000X0.800000*%
%ADD11R,1.300000X0.840000*%
G04 APERTURE END LIST*
D10*
%TO.C,U7*%
X78640000Y-77880000D03*
D11*
X76725000Y-76990000D03*
D10*
X78640000Y-76140000D03*
%TD*%
%TO.C,U6*%
X59760000Y-76140000D03*
D11*
X57845000Y-76990000D03*
D10*
X59760000Y-77880000D03*
%TD*%
%TO.C,U4*%
X97520000Y-57260000D03*
D11*
X95605000Y-58110000D03*
D10*
X97520000Y-59000000D03*
%TD*%
%TO.C,U3*%
X78640000Y-57260000D03*
D11*
X76725000Y-58110000D03*
D10*
X78640000Y-59000000D03*
%TD*%
%TO.C,U2*%
X59760000Y-57260000D03*
D11*
X57845000Y-58110000D03*
D10*
X59760000Y-59000000D03*
%TD*%
%TO.C,U17*%
X59760000Y-113900000D03*
D11*
X57845000Y-114750000D03*
D10*
X59760000Y-115640000D03*
%TD*%
%TO.C,U8*%
X97520000Y-77880000D03*
D11*
X95605000Y-76990000D03*
D10*
X97520000Y-76140000D03*
%TD*%
%TO.C,U10*%
X116400000Y-95020000D03*
D11*
X114485000Y-95870000D03*
D10*
X116400000Y-96760000D03*
%TD*%
%TO.C,U14*%
X116400000Y-113900000D03*
D11*
X114485000Y-114750000D03*
D10*
X116400000Y-115640000D03*
%TD*%
%TO.C,U13*%
X59760000Y-95020000D03*
D11*
X57845000Y-95870000D03*
D10*
X59760000Y-96760000D03*
%TD*%
%TO.C,U11*%
X97520000Y-95020000D03*
D11*
X95605000Y-95870000D03*
D10*
X97520000Y-96760000D03*
%TD*%
%TO.C,U15*%
X97520000Y-113900000D03*
D11*
X95605000Y-114750000D03*
D10*
X97520000Y-115640000D03*
%TD*%
%TO.C,U5*%
X116400000Y-57260000D03*
D11*
X114485000Y-58110000D03*
D10*
X116400000Y-59000000D03*
%TD*%
%TO.C,U16*%
X78640000Y-113900000D03*
D11*
X76725000Y-114750000D03*
D10*
X78640000Y-115640000D03*
%TD*%
%TO.C,U12*%
X78640000Y-95020000D03*
D11*
X76725000Y-95870000D03*
D10*
X78640000Y-96760000D03*
%TD*%
%TO.C,U9*%
X116400000Y-77880000D03*
D11*
X114485000Y-76990000D03*
D10*
X116400000Y-76140000D03*
%TD*%
M02*
