%TF.GenerationSoftware,KiCad,Pcbnew,7.0.9*%
%TF.CreationDate,2024-05-12T14:32:29+05:30*%
%TF.ProjectId,Analog_Macropad,416e616c-6f67-45f4-9d61-63726f706164,rev?*%
%TF.SameCoordinates,Original*%
%TF.FileFunction,Profile,NP*%
%FSLAX46Y46*%
G04 Gerber Fmt 4.6, Leading zero omitted, Abs format (unit mm)*
G04 Created by KiCad (PCBNEW 7.0.9) date 2024-05-12 14:32:29*
%MOMM*%
%LPD*%
G01*
G04 APERTURE LIST*
%TA.AperFunction,Profile*%
%ADD10C,0.200000*%
%TD*%
G04 APERTURE END LIST*
D10*
X15234196Y-127054070D02*
X14957209Y-127331050D01*
X127745300Y-14789900D02*
X127862300Y-14793900D01*
X15851560Y-14793900D02*
X15970070Y-14789900D01*
X15234196Y-71166300D02*
X14957209Y-71443200D01*
X72869400Y-127331050D02*
X72592200Y-127054070D01*
X72592200Y-129077025D02*
X72869400Y-128800041D01*
X128320300Y-14903900D02*
X128426300Y-14952900D01*
X14487299Y-128299810D02*
X14473519Y-128182680D01*
X14718810Y-72177700D02*
X14780820Y-72563700D01*
X128995300Y-16289900D02*
X128933300Y-15902900D01*
X15582840Y-17477900D02*
X15970070Y-17539900D01*
X15582840Y-73365500D02*
X15970070Y-73427600D01*
X126734300Y-15553900D02*
X126556300Y-15902900D01*
X127358300Y-70988500D02*
X127011300Y-71166300D01*
X128320300Y-129450475D02*
X128208300Y-129491816D01*
X15505670Y-14862900D02*
X15618670Y-14830900D01*
X15395430Y-14903900D02*
X15505670Y-14862900D01*
X128480300Y-17299900D02*
X128757300Y-17022900D01*
X17157940Y-72563700D02*
X17219950Y-72177700D01*
X71123200Y-17299900D02*
X71470700Y-17477900D01*
X126734300Y-72912200D02*
X127011300Y-73189100D01*
X126556300Y-71790700D02*
X126494300Y-72177700D01*
X14510726Y-15938900D02*
X14542421Y-15825900D01*
X15734420Y-14806900D02*
X15851560Y-14793900D01*
X16703180Y-17299900D02*
X16980170Y-17022900D01*
X127979300Y-14806900D02*
X128095300Y-14830900D01*
X17157940Y-15902900D02*
X16980170Y-15553900D01*
X15582840Y-70988500D02*
X15234196Y-71166300D01*
X14718810Y-128065550D02*
X14780820Y-128451400D01*
X129246300Y-16289900D02*
X129246300Y-128065550D01*
X15088125Y-15075900D02*
X15185964Y-15010900D01*
X73045800Y-15902900D02*
X72869400Y-15553900D01*
X15970070Y-126815670D02*
X15582840Y-126876300D01*
X14780820Y-128451400D02*
X14957209Y-128800041D01*
X73045800Y-16675900D02*
X73107600Y-16289900D01*
X14957209Y-72912200D02*
X15234196Y-73189100D01*
X72869400Y-15553900D02*
X72592200Y-15276900D01*
X15088125Y-129278221D02*
X14994416Y-129205186D01*
X129171300Y-128528570D02*
X129130300Y-128640190D01*
X126556300Y-15902900D02*
X126494300Y-16289900D01*
X127358300Y-126876300D02*
X127011300Y-127054070D01*
X15185964Y-15010900D02*
X15289317Y-14952900D01*
X71857700Y-15039900D02*
X71470700Y-15100900D01*
X15234196Y-17299900D02*
X15582840Y-17477900D01*
X14780820Y-71790700D02*
X14718810Y-72177700D01*
X73107600Y-128065550D02*
X73045800Y-127678320D01*
X128131300Y-70988500D02*
X127745300Y-70927800D01*
X73045800Y-127678320D02*
X72869400Y-127331050D01*
X128933300Y-71790700D02*
X128757300Y-71443200D01*
X128933300Y-127678320D02*
X128757300Y-127331050D01*
X126494300Y-128065550D02*
X126556300Y-128451400D01*
X128958300Y-15407900D02*
X129024300Y-15505900D01*
X126734300Y-127331050D02*
X126556300Y-127678320D01*
X14542421Y-15825900D02*
X14583762Y-15715900D01*
X127745300Y-126815670D02*
X127358300Y-126876300D01*
X15970070Y-129315429D02*
X16355920Y-129253414D01*
X71123200Y-129077025D02*
X71470700Y-129253414D01*
X128995300Y-128065550D02*
X128933300Y-127678320D01*
X71857700Y-126815670D02*
X71470700Y-126876300D01*
X73107600Y-16289900D02*
X73045800Y-15902900D01*
X15289317Y-14952900D02*
X15395430Y-14903900D01*
X15970070Y-14789900D02*
X127745300Y-14789900D01*
X128426300Y-14952900D02*
X128528300Y-15010900D01*
X14780820Y-16675900D02*
X14957209Y-17022900D01*
X127862300Y-14793900D02*
X127979300Y-14806900D01*
X16703180Y-129077025D02*
X16980170Y-128800041D01*
X72243600Y-15100900D02*
X71857700Y-15039900D01*
X16980170Y-127331050D02*
X16703180Y-127054070D01*
X14633371Y-15609900D02*
X14691249Y-15505900D01*
X127011300Y-71166300D02*
X126734300Y-71443200D01*
X17219950Y-72177700D02*
X17157940Y-71790700D01*
X71470700Y-129253414D02*
X71857700Y-129315429D01*
X14469385Y-128064170D02*
X14469385Y-16289900D01*
X127745300Y-15039900D02*
X127358300Y-15100900D01*
X16980170Y-17022900D02*
X17157940Y-16675900D01*
X15395430Y-129450475D02*
X15289317Y-129402244D01*
X16355920Y-73365500D02*
X16703180Y-73189100D01*
X128995300Y-72177700D02*
X128933300Y-71790700D01*
X126556300Y-127678320D02*
X126494300Y-128065550D01*
X129024300Y-128848273D02*
X128958300Y-128947492D01*
X15851560Y-129560718D02*
X15734420Y-129546938D01*
X14994416Y-129205186D02*
X14908981Y-129125257D01*
X129240300Y-128182680D02*
X129226300Y-128299810D01*
X128757300Y-17022900D02*
X128933300Y-16675900D01*
X127745300Y-129315429D02*
X128131300Y-129253414D01*
X129226300Y-128299810D02*
X129203300Y-128415570D01*
X127744300Y-129566230D02*
X15970070Y-129566230D01*
X14957209Y-15553900D02*
X14780820Y-15902900D01*
X14957209Y-71443200D02*
X14780820Y-71790700D01*
X128208300Y-129491816D02*
X128095300Y-129523511D01*
X128757300Y-127331050D02*
X128480300Y-127054070D01*
X127745300Y-70927800D02*
X127358300Y-70988500D01*
X127011300Y-129077025D02*
X127358300Y-129253414D01*
X128131300Y-129253414D02*
X128480300Y-129077025D01*
X16703180Y-127054070D02*
X16355920Y-126876300D01*
X16980170Y-71443200D02*
X16703180Y-71166300D01*
X128480300Y-71166300D02*
X128131300Y-70988500D01*
X14957209Y-128800041D02*
X15234196Y-129077025D01*
X128720300Y-15148900D02*
X128805300Y-15228900D01*
X72243600Y-17477900D02*
X72592200Y-17299900D01*
X128885300Y-15314900D02*
X128958300Y-15407900D01*
X14908981Y-129125257D02*
X14829052Y-129039821D01*
X17219950Y-128065550D02*
X17157940Y-127678320D01*
X70607800Y-128065550D02*
X70668500Y-128451400D01*
X14780820Y-127678320D02*
X14718810Y-128065550D01*
X14756016Y-15407900D02*
X14829052Y-15314900D01*
X15618670Y-129523511D02*
X15505670Y-129491816D01*
X14583762Y-15715900D02*
X14633371Y-15609900D01*
X129203300Y-128415570D02*
X129171300Y-128528570D01*
X127745300Y-73427600D02*
X128131300Y-73365500D01*
X16980170Y-72912200D02*
X17157940Y-72563700D01*
X14780820Y-15902900D02*
X14718810Y-16289900D01*
X129130300Y-15715900D02*
X129171300Y-15825900D01*
X129246300Y-128065550D02*
X129240300Y-128182680D01*
X17157940Y-71790700D02*
X16980170Y-71443200D01*
X16355920Y-129253414D02*
X16703180Y-129077025D01*
X15582840Y-15100900D02*
X15234196Y-15276900D01*
X17157940Y-127678320D02*
X16980170Y-127331050D01*
X71857700Y-129315429D02*
X72243600Y-129253414D01*
X127358300Y-17477900D02*
X127745300Y-17539900D01*
X15234196Y-73189100D02*
X15582840Y-73365500D01*
X129240300Y-16171900D02*
X129246300Y-16289900D01*
X127358300Y-73365500D02*
X127745300Y-73427600D01*
X71123200Y-127054070D02*
X70846300Y-127331050D01*
X71470700Y-126876300D02*
X71123200Y-127054070D01*
X16355920Y-126876300D02*
X15970070Y-126815670D01*
X70846300Y-128800041D02*
X71123200Y-129077025D01*
X71470700Y-17477900D02*
X71857700Y-17539900D01*
X126734300Y-17022900D02*
X127011300Y-17299900D01*
X70846300Y-15553900D02*
X70668500Y-15902900D01*
X128757300Y-128800041D02*
X128933300Y-128451400D01*
X128933300Y-15902900D02*
X128757300Y-15553900D01*
X70846300Y-127331050D02*
X70668500Y-127678320D01*
X14542421Y-128528570D02*
X14510726Y-128415570D01*
X15970070Y-17539900D02*
X16355920Y-17477900D01*
X128805300Y-15228900D02*
X128885300Y-15314900D01*
X128933300Y-16675900D02*
X128995300Y-16289900D01*
X14780820Y-72563700D02*
X14957209Y-72912200D01*
X71123200Y-15276900D02*
X70846300Y-15553900D01*
X127011300Y-17299900D02*
X127358300Y-17477900D01*
X128958300Y-128947492D02*
X128885300Y-129039821D01*
X128095300Y-129523511D02*
X127979300Y-129546938D01*
X14756016Y-128947492D02*
X14691249Y-128848273D01*
X126556300Y-128451400D02*
X126734300Y-128800041D01*
X126734300Y-128800041D02*
X127011300Y-129077025D01*
X16980170Y-15553900D02*
X16703180Y-15276900D01*
X126494300Y-16289900D02*
X126556300Y-16675900D01*
X127979300Y-129546938D02*
X127862300Y-129560718D01*
X16355920Y-17477900D02*
X16703180Y-17299900D01*
X15505670Y-129491816D02*
X15395430Y-129450475D01*
X14957209Y-127331050D02*
X14780820Y-127678320D01*
X16703180Y-15276900D02*
X16355920Y-15100900D01*
X126734300Y-71443200D02*
X126556300Y-71790700D01*
X14473519Y-16171900D02*
X14487299Y-16053900D01*
X15618670Y-14830900D02*
X15734420Y-14806900D01*
X72243600Y-129253414D02*
X72592200Y-129077025D01*
X17219950Y-16289900D02*
X17157940Y-15902900D01*
X15582840Y-126876300D02*
X15234196Y-127054070D01*
X71470700Y-15100900D02*
X71123200Y-15276900D01*
X128627300Y-15075900D02*
X128720300Y-15148900D01*
X14473519Y-128182680D02*
X14469385Y-128064170D01*
X14691249Y-15505900D02*
X14756016Y-15407900D01*
X16980170Y-128800041D02*
X17157940Y-128451400D01*
X129082300Y-128746296D02*
X129024300Y-128848273D01*
X14487299Y-16053900D02*
X14510726Y-15938900D01*
X128757300Y-71443200D02*
X128480300Y-71166300D01*
X72592200Y-127054070D02*
X72243600Y-126876300D01*
X127358300Y-15100900D02*
X127011300Y-15276900D01*
X128480300Y-73189100D02*
X128757300Y-72912200D01*
X70668500Y-16675900D02*
X70846300Y-17022900D01*
X15734420Y-129546938D02*
X15618670Y-129523511D01*
X127011300Y-73189100D02*
X127358300Y-73365500D01*
X128131300Y-17477900D02*
X128480300Y-17299900D01*
X72592200Y-15276900D02*
X72243600Y-15100900D01*
X15234196Y-129077025D02*
X15582840Y-129253414D01*
X16355920Y-70988500D02*
X15970070Y-70927800D01*
X70668500Y-15902900D02*
X70607800Y-16289900D01*
X16703180Y-73189100D02*
X16980170Y-72912200D01*
X14829052Y-15314900D02*
X14908981Y-15228900D01*
X15185964Y-129344367D02*
X15088125Y-129278221D01*
X14957209Y-17022900D02*
X15234196Y-17299900D01*
X128720300Y-129205186D02*
X128627300Y-129278221D01*
X126556300Y-16675900D02*
X126734300Y-17022900D01*
X127358300Y-129253414D02*
X127745300Y-129315429D01*
X128131300Y-126876300D02*
X127745300Y-126815670D01*
X72869400Y-128800041D02*
X73045800Y-128451400D01*
X72592200Y-17299900D02*
X72869400Y-17022900D01*
X127011300Y-127054070D02*
X126734300Y-127331050D01*
X128757300Y-15553900D02*
X128480300Y-15276900D01*
X129226300Y-16053900D02*
X129240300Y-16171900D01*
X128528300Y-15010900D02*
X128627300Y-15075900D01*
X128885300Y-129039821D02*
X128805300Y-129125257D01*
X14908981Y-15228900D02*
X14994416Y-15148900D01*
X128480300Y-127054070D02*
X128131300Y-126876300D01*
X73045800Y-128451400D02*
X73107600Y-128065550D01*
X129130300Y-128640190D02*
X129082300Y-128746296D01*
X15289317Y-129402244D02*
X15185964Y-129344367D01*
X16703180Y-71166300D02*
X16355920Y-70988500D01*
X126494300Y-72177700D02*
X126556300Y-72563700D01*
X128208300Y-14862900D02*
X128320300Y-14903900D01*
X17157940Y-16675900D02*
X17219950Y-16289900D01*
X14829052Y-129039821D02*
X14756016Y-128947492D01*
X15582840Y-129253414D02*
X15970070Y-129315429D01*
X14994416Y-15148900D02*
X15088125Y-15075900D01*
X127862300Y-129560718D02*
X127744300Y-129566230D01*
X70668500Y-128451400D02*
X70846300Y-128800041D01*
X16355920Y-15100900D02*
X15970070Y-15039900D01*
X71857700Y-17539900D02*
X72243600Y-17477900D01*
X15970070Y-129566230D02*
X15851560Y-129560718D01*
X15970070Y-70927800D02*
X15582840Y-70988500D01*
X14718810Y-16289900D02*
X14780820Y-16675900D01*
X15970070Y-15039900D02*
X15582840Y-15100900D01*
X15970070Y-73427600D02*
X16355920Y-73365500D01*
X128627300Y-129278221D02*
X128528300Y-129344367D01*
X128528300Y-129344367D02*
X128426300Y-129402244D01*
X128426300Y-129402244D02*
X128320300Y-129450475D01*
X128480300Y-15276900D02*
X128131300Y-15100900D01*
X14691249Y-128848273D02*
X14633371Y-128746296D01*
X127011300Y-15276900D02*
X126734300Y-15553900D01*
X128095300Y-14830900D02*
X128208300Y-14862900D01*
X17157940Y-128451400D02*
X17219950Y-128065550D01*
X129171300Y-15825900D02*
X129203300Y-15938900D01*
X70607800Y-16289900D02*
X70668500Y-16675900D01*
X127745300Y-17539900D02*
X128131300Y-17477900D01*
X72869400Y-17022900D02*
X73045800Y-16675900D01*
X129082300Y-15609900D02*
X129130300Y-15715900D01*
X128131300Y-15100900D02*
X127745300Y-15039900D01*
X128933300Y-72563700D02*
X128995300Y-72177700D01*
X126556300Y-72563700D02*
X126734300Y-72912200D01*
X128805300Y-129125257D02*
X128720300Y-129205186D01*
X14583762Y-128640190D02*
X14542421Y-128528570D01*
X72243600Y-126876300D02*
X71857700Y-126815670D01*
X128131300Y-73365500D02*
X128480300Y-73189100D01*
X128757300Y-72912200D02*
X128933300Y-72563700D01*
X14510726Y-128415570D02*
X14487299Y-128299810D01*
X128933300Y-128451400D02*
X128995300Y-128065550D01*
X14633371Y-128746296D02*
X14583762Y-128640190D01*
X129024300Y-15505900D02*
X129082300Y-15609900D01*
X70846300Y-17022900D02*
X71123200Y-17299900D01*
X70668500Y-127678320D02*
X70607800Y-128065550D01*
X15234196Y-15276900D02*
X14957209Y-15553900D01*
X129203300Y-15938900D02*
X129226300Y-16053900D01*
X14469385Y-16289900D02*
X14473519Y-16171900D01*
X128480300Y-129077025D02*
X128757300Y-128800041D01*
M02*
