M48
; DRILL file {KiCad 7.0.9} date Sun May 12 14:32:31 2024
; FORMAT={-:-/ absolute / inch / decimal}
; #@! TF.CreationDate,2024-05-12T14:32:31+05:30
; #@! TF.GenerationSoftware,Kicad,Pcbnew,7.0.9
; #@! TF.FileFunction,Plated,1,2,PTH
FMAT,2
INCH
; #@! TA.AperFunction,Plated,PTH,ViaDrill
T1C0.0315
; #@! TA.AperFunction,Plated,PTH,ComponentDrill
T2C0.0315
; #@! TA.AperFunction,Plated,PTH,ComponentDrill
T3C0.0354
; #@! TA.AperFunction,Plated,PTH,ViaDrill
T4C0.0394
; #@! TA.AperFunction,Plated,PTH,ComponentDrill
T5C0.0394
; #@! TA.AperFunction,Plated,PTH,ComponentDrill
T6C0.0787
%
G90
G05
T1
X0.7717Y-1.5331
X0.7754Y-2.3567
X0.7933Y-1.637
X0.8021Y-2.4374
X1.6638Y-3.239
X1.7601Y-2.6272
X1.9579Y-0.6996
X2.3528Y-2.3724
X2.3528Y-3.1158
X2.3528Y-3.8602
X2.5183Y-3.9053
X2.5249Y-3.6005
X2.7033Y-4.2552
X3.0961Y-2.3724
X3.0961Y-3.859
X3.098Y-3.1162
X3.1626Y-4.5048
X3.8302Y-2.4601
X3.8394Y-3.1165
X3.8426Y-3.8589
X4.0204Y-3.9275
X4.5724Y-2.4205
X4.5826Y-3.8602
X4.5827Y-3.3554
T2
X0.9508Y-2.7012
X0.9508Y-2.898
X1.0472Y-2.7008
X1.0472Y-2.8976
T3
X3.2028Y-0.8169
X3.2028Y-0.9469
X3.3012Y-0.8169
X3.3012Y-0.9469
X3.3996Y-0.8169
X3.3996Y-0.9469
T4
X2.2591Y-2.6229
X2.3599Y-2.9385
X3.0207Y-3.3984
T5
X1.1476Y-0.8343
X1.1476Y-0.9343
X1.1476Y-1.0343
X1.1476Y-1.1343
X1.1476Y-1.2343
X1.1476Y-1.3343
X1.1476Y-1.4343
X1.1476Y-1.5343
X1.1476Y-1.6343
X1.1476Y-1.7343
X1.1476Y-1.8343
X1.1476Y-1.9343
X1.1476Y-2.0343
X1.2476Y-1.8343
X1.3476Y-1.8343
X1.4476Y-1.8343
X1.7476Y-0.8343
X1.7476Y-0.9343
X1.7476Y-1.0343
X1.7476Y-1.1343
X1.7476Y-1.2343
X1.7476Y-1.3343
X1.7476Y-1.4343
X1.7476Y-1.5343
X1.7476Y-1.6343
X1.7476Y-1.7343
X1.7476Y-1.8343
X1.7476Y-1.9343
X1.7476Y-2.0343
T6
X1.9602Y-1.5016
X4.7949Y-1.5016
T0
M30
