%TF.GenerationSoftware,KiCad,Pcbnew,7.0.9*%
%TF.CreationDate,2024-05-12T14:32:29+05:30*%
%TF.ProjectId,Analog_Macropad,416e616c-6f67-45f4-9d61-63726f706164,rev?*%
%TF.SameCoordinates,Original*%
%TF.FileFunction,Soldermask,Top*%
%TF.FilePolarity,Negative*%
%FSLAX46Y46*%
G04 Gerber Fmt 4.6, Leading zero omitted, Abs format (unit mm)*
G04 Created by KiCad (PCBNEW 7.0.9) date 2024-05-12 14:32:29*
%MOMM*%
%LPD*%
G01*
G04 APERTURE LIST*
G04 Aperture macros list*
%AMRoundRect*
0 Rectangle with rounded corners*
0 $1 Rounding radius*
0 $2 $3 $4 $5 $6 $7 $8 $9 X,Y pos of 4 corners*
0 Add a 4 corners polygon primitive as box body*
4,1,4,$2,$3,$4,$5,$6,$7,$8,$9,$2,$3,0*
0 Add four circle primitives for the rounded corners*
1,1,$1+$1,$2,$3*
1,1,$1+$1,$4,$5*
1,1,$1+$1,$6,$7*
1,1,$1+$1,$8,$9*
0 Add four rect primitives between the rounded corners*
20,1,$1+$1,$2,$3,$4,$5,0*
20,1,$1+$1,$4,$5,$6,$7,0*
20,1,$1+$1,$6,$7,$8,$9,0*
20,1,$1+$1,$8,$9,$2,$3,0*%
G04 Aperture macros list end*
%ADD10C,0.100000*%
%ADD11C,2.500000*%
%ADD12C,1.750000*%
%ADD13RoundRect,0.250000X-0.375000X-0.625000X0.375000X-0.625000X0.375000X0.625000X-0.375000X0.625000X0*%
%ADD14C,1.600000*%
%ADD15RoundRect,0.150000X-0.150000X0.875000X-0.150000X-0.875000X0.150000X-0.875000X0.150000X0.875000X0*%
%ADD16R,1.400000X1.400000*%
%ADD17C,1.400000*%
%ADD18C,3.500000*%
%ADD19R,3.500000X3.500000*%
%ADD20C,3.200000*%
G04 APERTURE END LIST*
D10*
%TO.C,U7*%
X68850000Y-68090000D02*
X69950000Y-68090000D01*
X70350000Y-68090000D02*
X70350000Y-68090000D01*
X70750000Y-68090000D02*
X71850000Y-68090000D01*
X72250000Y-68090000D02*
X72250000Y-68090000D01*
X72650000Y-68090000D02*
X73750000Y-68090000D01*
X74150000Y-68090000D02*
X74150000Y-68090000D01*
X74550000Y-68090000D02*
X75650000Y-68090000D01*
X76050000Y-68090000D02*
X76050000Y-68090000D01*
X76450000Y-68090000D02*
X77550000Y-68090000D01*
X77950000Y-68090000D02*
X77950000Y-68090000D01*
X78350000Y-68090000D02*
X79450000Y-68090000D01*
X79850000Y-68090000D02*
X79850000Y-68090000D01*
X80250000Y-68090000D02*
X81350000Y-68090000D01*
X81750000Y-68090000D02*
X81750000Y-68090000D01*
X82150000Y-68090000D02*
X83250000Y-68090000D01*
X83650000Y-68090000D02*
X83650000Y-68090000D01*
X84050000Y-68090000D02*
X85150000Y-68090000D01*
X85550000Y-68090000D02*
X85550000Y-68090000D01*
X85950000Y-68090000D02*
X86630000Y-68090000D01*
X86630000Y-68090000D02*
X86630000Y-69190000D01*
X86630000Y-69590000D02*
X86630000Y-69590000D01*
X86630000Y-69990000D02*
X86630000Y-71090000D01*
X86630000Y-71490000D02*
X86630000Y-71490000D01*
X86630000Y-71890000D02*
X86630000Y-72990000D01*
X86630000Y-73390000D02*
X86630000Y-73390000D01*
X86630000Y-73790000D02*
X86630000Y-74890000D01*
X86630000Y-75290000D02*
X86630000Y-75290000D01*
X86630000Y-75690000D02*
X86630000Y-76790000D01*
X86630000Y-77190000D02*
X86630000Y-77190000D01*
X86630000Y-77590000D02*
X86630000Y-78690000D01*
X86630000Y-79090000D02*
X86630000Y-79090000D01*
X86630000Y-79490000D02*
X86630000Y-80590000D01*
X86630000Y-80990000D02*
X86630000Y-80990000D01*
X86630000Y-81390000D02*
X86630000Y-82490000D01*
X86630000Y-82890000D02*
X86630000Y-82890000D01*
X86630000Y-83290000D02*
X86630000Y-84390000D01*
X86630000Y-84790000D02*
X86630000Y-84790000D01*
X86630000Y-85190000D02*
X86630000Y-85870000D01*
X86630000Y-85870000D02*
X85530000Y-85870000D01*
X85130000Y-85870000D02*
X85130000Y-85870000D01*
X84730000Y-85870000D02*
X83630000Y-85870000D01*
X83230000Y-85870000D02*
X83230000Y-85870000D01*
X82830000Y-85870000D02*
X81730000Y-85870000D01*
X81330000Y-85870000D02*
X81330000Y-85870000D01*
X80930000Y-85870000D02*
X79830000Y-85870000D01*
X79430000Y-85870000D02*
X79430000Y-85870000D01*
X79030000Y-85870000D02*
X77930000Y-85870000D01*
X77530000Y-85870000D02*
X77530000Y-85870000D01*
X77130000Y-85870000D02*
X76030000Y-85870000D01*
X75630000Y-85870000D02*
X75630000Y-85870000D01*
X75230000Y-85870000D02*
X74130000Y-85870000D01*
X73730000Y-85870000D02*
X73730000Y-85870000D01*
X73330000Y-85870000D02*
X72230000Y-85870000D01*
X71830000Y-85870000D02*
X71830000Y-85870000D01*
X71430000Y-85870000D02*
X70330000Y-85870000D01*
X69930000Y-85870000D02*
X69930000Y-85870000D01*
X69530000Y-85870000D02*
X68850000Y-85870000D01*
X68850000Y-85870000D02*
X68850000Y-84770000D01*
X68850000Y-84370000D02*
X68850000Y-84370000D01*
X68850000Y-83970000D02*
X68850000Y-82870000D01*
X68850000Y-82470000D02*
X68850000Y-82470000D01*
X68850000Y-82070000D02*
X68850000Y-80970000D01*
X68850000Y-80570000D02*
X68850000Y-80570000D01*
X68850000Y-80170000D02*
X68850000Y-79070000D01*
X68850000Y-78670000D02*
X68850000Y-78670000D01*
X68850000Y-78270000D02*
X68850000Y-77170000D01*
X68850000Y-76770000D02*
X68850000Y-76770000D01*
X68850000Y-76370000D02*
X68850000Y-75270000D01*
X68850000Y-74870000D02*
X68850000Y-74870000D01*
X68850000Y-74470000D02*
X68850000Y-73370000D01*
X68850000Y-72970000D02*
X68850000Y-72970000D01*
X68850000Y-72570000D02*
X68850000Y-71470000D01*
X68850000Y-71070000D02*
X68850000Y-71070000D01*
X68850000Y-70670000D02*
X68850000Y-69570000D01*
X68850000Y-69170000D02*
X68850000Y-69170000D01*
X68850000Y-68770000D02*
X68850000Y-68090000D01*
%TO.C,U6*%
X49970000Y-68090000D02*
X51070000Y-68090000D01*
X51470000Y-68090000D02*
X51470000Y-68090000D01*
X51870000Y-68090000D02*
X52970000Y-68090000D01*
X53370000Y-68090000D02*
X53370000Y-68090000D01*
X53770000Y-68090000D02*
X54870000Y-68090000D01*
X55270000Y-68090000D02*
X55270000Y-68090000D01*
X55670000Y-68090000D02*
X56770000Y-68090000D01*
X57170000Y-68090000D02*
X57170000Y-68090000D01*
X57570000Y-68090000D02*
X58670000Y-68090000D01*
X59070000Y-68090000D02*
X59070000Y-68090000D01*
X59470000Y-68090000D02*
X60570000Y-68090000D01*
X60970000Y-68090000D02*
X60970000Y-68090000D01*
X61370000Y-68090000D02*
X62470000Y-68090000D01*
X62870000Y-68090000D02*
X62870000Y-68090000D01*
X63270000Y-68090000D02*
X64370000Y-68090000D01*
X64770000Y-68090000D02*
X64770000Y-68090000D01*
X65170000Y-68090000D02*
X66270000Y-68090000D01*
X66670000Y-68090000D02*
X66670000Y-68090000D01*
X67070000Y-68090000D02*
X67750000Y-68090000D01*
X67750000Y-68090000D02*
X67750000Y-69190000D01*
X67750000Y-69590000D02*
X67750000Y-69590000D01*
X67750000Y-69990000D02*
X67750000Y-71090000D01*
X67750000Y-71490000D02*
X67750000Y-71490000D01*
X67750000Y-71890000D02*
X67750000Y-72990000D01*
X67750000Y-73390000D02*
X67750000Y-73390000D01*
X67750000Y-73790000D02*
X67750000Y-74890000D01*
X67750000Y-75290000D02*
X67750000Y-75290000D01*
X67750000Y-75690000D02*
X67750000Y-76790000D01*
X67750000Y-77190000D02*
X67750000Y-77190000D01*
X67750000Y-77590000D02*
X67750000Y-78690000D01*
X67750000Y-79090000D02*
X67750000Y-79090000D01*
X67750000Y-79490000D02*
X67750000Y-80590000D01*
X67750000Y-80990000D02*
X67750000Y-80990000D01*
X67750000Y-81390000D02*
X67750000Y-82490000D01*
X67750000Y-82890000D02*
X67750000Y-82890000D01*
X67750000Y-83290000D02*
X67750000Y-84390000D01*
X67750000Y-84790000D02*
X67750000Y-84790000D01*
X67750000Y-85190000D02*
X67750000Y-85870000D01*
X67750000Y-85870000D02*
X66650000Y-85870000D01*
X66250000Y-85870000D02*
X66250000Y-85870000D01*
X65850000Y-85870000D02*
X64750000Y-85870000D01*
X64350000Y-85870000D02*
X64350000Y-85870000D01*
X63950000Y-85870000D02*
X62850000Y-85870000D01*
X62450000Y-85870000D02*
X62450000Y-85870000D01*
X62050000Y-85870000D02*
X60950000Y-85870000D01*
X60550000Y-85870000D02*
X60550000Y-85870000D01*
X60150000Y-85870000D02*
X59050000Y-85870000D01*
X58650000Y-85870000D02*
X58650000Y-85870000D01*
X58250000Y-85870000D02*
X57150000Y-85870000D01*
X56750000Y-85870000D02*
X56750000Y-85870000D01*
X56350000Y-85870000D02*
X55250000Y-85870000D01*
X54850000Y-85870000D02*
X54850000Y-85870000D01*
X54450000Y-85870000D02*
X53350000Y-85870000D01*
X52950000Y-85870000D02*
X52950000Y-85870000D01*
X52550000Y-85870000D02*
X51450000Y-85870000D01*
X51050000Y-85870000D02*
X51050000Y-85870000D01*
X50650000Y-85870000D02*
X49970000Y-85870000D01*
X49970000Y-85870000D02*
X49970000Y-84770000D01*
X49970000Y-84370000D02*
X49970000Y-84370000D01*
X49970000Y-83970000D02*
X49970000Y-82870000D01*
X49970000Y-82470000D02*
X49970000Y-82470000D01*
X49970000Y-82070000D02*
X49970000Y-80970000D01*
X49970000Y-80570000D02*
X49970000Y-80570000D01*
X49970000Y-80170000D02*
X49970000Y-79070000D01*
X49970000Y-78670000D02*
X49970000Y-78670000D01*
X49970000Y-78270000D02*
X49970000Y-77170000D01*
X49970000Y-76770000D02*
X49970000Y-76770000D01*
X49970000Y-76370000D02*
X49970000Y-75270000D01*
X49970000Y-74870000D02*
X49970000Y-74870000D01*
X49970000Y-74470000D02*
X49970000Y-73370000D01*
X49970000Y-72970000D02*
X49970000Y-72970000D01*
X49970000Y-72570000D02*
X49970000Y-71470000D01*
X49970000Y-71070000D02*
X49970000Y-71070000D01*
X49970000Y-70670000D02*
X49970000Y-69570000D01*
X49970000Y-69170000D02*
X49970000Y-69170000D01*
X49970000Y-68770000D02*
X49970000Y-68090000D01*
%TO.C,U4*%
X87730000Y-49210000D02*
X88830000Y-49210000D01*
X89230000Y-49210000D02*
X89230000Y-49210000D01*
X89630000Y-49210000D02*
X90730000Y-49210000D01*
X91130000Y-49210000D02*
X91130000Y-49210000D01*
X91530000Y-49210000D02*
X92630000Y-49210000D01*
X93030000Y-49210000D02*
X93030000Y-49210000D01*
X93430000Y-49210000D02*
X94530000Y-49210000D01*
X94930000Y-49210000D02*
X94930000Y-49210000D01*
X95330000Y-49210000D02*
X96430000Y-49210000D01*
X96830000Y-49210000D02*
X96830000Y-49210000D01*
X97230000Y-49210000D02*
X98330000Y-49210000D01*
X98730000Y-49210000D02*
X98730000Y-49210000D01*
X99130000Y-49210000D02*
X100230000Y-49210000D01*
X100630000Y-49210000D02*
X100630000Y-49210000D01*
X101030000Y-49210000D02*
X102130000Y-49210000D01*
X102530000Y-49210000D02*
X102530000Y-49210000D01*
X102930000Y-49210000D02*
X104030000Y-49210000D01*
X104430000Y-49210000D02*
X104430000Y-49210000D01*
X104830000Y-49210000D02*
X105510000Y-49210000D01*
X105510000Y-49210000D02*
X105510000Y-50310000D01*
X105510000Y-50710000D02*
X105510000Y-50710000D01*
X105510000Y-51110000D02*
X105510000Y-52210000D01*
X105510000Y-52610000D02*
X105510000Y-52610000D01*
X105510000Y-53010000D02*
X105510000Y-54110000D01*
X105510000Y-54510000D02*
X105510000Y-54510000D01*
X105510000Y-54910000D02*
X105510000Y-56010000D01*
X105510000Y-56410000D02*
X105510000Y-56410000D01*
X105510000Y-56810000D02*
X105510000Y-57910000D01*
X105510000Y-58310000D02*
X105510000Y-58310000D01*
X105510000Y-58710000D02*
X105510000Y-59810000D01*
X105510000Y-60210000D02*
X105510000Y-60210000D01*
X105510000Y-60610000D02*
X105510000Y-61710000D01*
X105510000Y-62110000D02*
X105510000Y-62110000D01*
X105510000Y-62510000D02*
X105510000Y-63610000D01*
X105510000Y-64010000D02*
X105510000Y-64010000D01*
X105510000Y-64410000D02*
X105510000Y-65510000D01*
X105510000Y-65910000D02*
X105510000Y-65910000D01*
X105510000Y-66310000D02*
X105510000Y-66990000D01*
X105510000Y-66990000D02*
X104410000Y-66990000D01*
X104010000Y-66990000D02*
X104010000Y-66990000D01*
X103610000Y-66990000D02*
X102510000Y-66990000D01*
X102110000Y-66990000D02*
X102110000Y-66990000D01*
X101710000Y-66990000D02*
X100610000Y-66990000D01*
X100210000Y-66990000D02*
X100210000Y-66990000D01*
X99810000Y-66990000D02*
X98710000Y-66990000D01*
X98310000Y-66990000D02*
X98310000Y-66990000D01*
X97910000Y-66990000D02*
X96810000Y-66990000D01*
X96410000Y-66990000D02*
X96410000Y-66990000D01*
X96010000Y-66990000D02*
X94910000Y-66990000D01*
X94510000Y-66990000D02*
X94510000Y-66990000D01*
X94110000Y-66990000D02*
X93010000Y-66990000D01*
X92610000Y-66990000D02*
X92610000Y-66990000D01*
X92210000Y-66990000D02*
X91110000Y-66990000D01*
X90710000Y-66990000D02*
X90710000Y-66990000D01*
X90310000Y-66990000D02*
X89210000Y-66990000D01*
X88810000Y-66990000D02*
X88810000Y-66990000D01*
X88410000Y-66990000D02*
X87730000Y-66990000D01*
X87730000Y-66990000D02*
X87730000Y-65890000D01*
X87730000Y-65490000D02*
X87730000Y-65490000D01*
X87730000Y-65090000D02*
X87730000Y-63990000D01*
X87730000Y-63590000D02*
X87730000Y-63590000D01*
X87730000Y-63190000D02*
X87730000Y-62090000D01*
X87730000Y-61690000D02*
X87730000Y-61690000D01*
X87730000Y-61290000D02*
X87730000Y-60190000D01*
X87730000Y-59790000D02*
X87730000Y-59790000D01*
X87730000Y-59390000D02*
X87730000Y-58290000D01*
X87730000Y-57890000D02*
X87730000Y-57890000D01*
X87730000Y-57490000D02*
X87730000Y-56390000D01*
X87730000Y-55990000D02*
X87730000Y-55990000D01*
X87730000Y-55590000D02*
X87730000Y-54490000D01*
X87730000Y-54090000D02*
X87730000Y-54090000D01*
X87730000Y-53690000D02*
X87730000Y-52590000D01*
X87730000Y-52190000D02*
X87730000Y-52190000D01*
X87730000Y-51790000D02*
X87730000Y-50690000D01*
X87730000Y-50290000D02*
X87730000Y-50290000D01*
X87730000Y-49890000D02*
X87730000Y-49210000D01*
%TO.C,U3*%
X68850000Y-49210000D02*
X69950000Y-49210000D01*
X70350000Y-49210000D02*
X70350000Y-49210000D01*
X70750000Y-49210000D02*
X71850000Y-49210000D01*
X72250000Y-49210000D02*
X72250000Y-49210000D01*
X72650000Y-49210000D02*
X73750000Y-49210000D01*
X74150000Y-49210000D02*
X74150000Y-49210000D01*
X74550000Y-49210000D02*
X75650000Y-49210000D01*
X76050000Y-49210000D02*
X76050000Y-49210000D01*
X76450000Y-49210000D02*
X77550000Y-49210000D01*
X77950000Y-49210000D02*
X77950000Y-49210000D01*
X78350000Y-49210000D02*
X79450000Y-49210000D01*
X79850000Y-49210000D02*
X79850000Y-49210000D01*
X80250000Y-49210000D02*
X81350000Y-49210000D01*
X81750000Y-49210000D02*
X81750000Y-49210000D01*
X82150000Y-49210000D02*
X83250000Y-49210000D01*
X83650000Y-49210000D02*
X83650000Y-49210000D01*
X84050000Y-49210000D02*
X85150000Y-49210000D01*
X85550000Y-49210000D02*
X85550000Y-49210000D01*
X85950000Y-49210000D02*
X86630000Y-49210000D01*
X86630000Y-49210000D02*
X86630000Y-50310000D01*
X86630000Y-50710000D02*
X86630000Y-50710000D01*
X86630000Y-51110000D02*
X86630000Y-52210000D01*
X86630000Y-52610000D02*
X86630000Y-52610000D01*
X86630000Y-53010000D02*
X86630000Y-54110000D01*
X86630000Y-54510000D02*
X86630000Y-54510000D01*
X86630000Y-54910000D02*
X86630000Y-56010000D01*
X86630000Y-56410000D02*
X86630000Y-56410000D01*
X86630000Y-56810000D02*
X86630000Y-57910000D01*
X86630000Y-58310000D02*
X86630000Y-58310000D01*
X86630000Y-58710000D02*
X86630000Y-59810000D01*
X86630000Y-60210000D02*
X86630000Y-60210000D01*
X86630000Y-60610000D02*
X86630000Y-61710000D01*
X86630000Y-62110000D02*
X86630000Y-62110000D01*
X86630000Y-62510000D02*
X86630000Y-63610000D01*
X86630000Y-64010000D02*
X86630000Y-64010000D01*
X86630000Y-64410000D02*
X86630000Y-65510000D01*
X86630000Y-65910000D02*
X86630000Y-65910000D01*
X86630000Y-66310000D02*
X86630000Y-66990000D01*
X86630000Y-66990000D02*
X85530000Y-66990000D01*
X85130000Y-66990000D02*
X85130000Y-66990000D01*
X84730000Y-66990000D02*
X83630000Y-66990000D01*
X83230000Y-66990000D02*
X83230000Y-66990000D01*
X82830000Y-66990000D02*
X81730000Y-66990000D01*
X81330000Y-66990000D02*
X81330000Y-66990000D01*
X80930000Y-66990000D02*
X79830000Y-66990000D01*
X79430000Y-66990000D02*
X79430000Y-66990000D01*
X79030000Y-66990000D02*
X77930000Y-66990000D01*
X77530000Y-66990000D02*
X77530000Y-66990000D01*
X77130000Y-66990000D02*
X76030000Y-66990000D01*
X75630000Y-66990000D02*
X75630000Y-66990000D01*
X75230000Y-66990000D02*
X74130000Y-66990000D01*
X73730000Y-66990000D02*
X73730000Y-66990000D01*
X73330000Y-66990000D02*
X72230000Y-66990000D01*
X71830000Y-66990000D02*
X71830000Y-66990000D01*
X71430000Y-66990000D02*
X70330000Y-66990000D01*
X69930000Y-66990000D02*
X69930000Y-66990000D01*
X69530000Y-66990000D02*
X68850000Y-66990000D01*
X68850000Y-66990000D02*
X68850000Y-65890000D01*
X68850000Y-65490000D02*
X68850000Y-65490000D01*
X68850000Y-65090000D02*
X68850000Y-63990000D01*
X68850000Y-63590000D02*
X68850000Y-63590000D01*
X68850000Y-63190000D02*
X68850000Y-62090000D01*
X68850000Y-61690000D02*
X68850000Y-61690000D01*
X68850000Y-61290000D02*
X68850000Y-60190000D01*
X68850000Y-59790000D02*
X68850000Y-59790000D01*
X68850000Y-59390000D02*
X68850000Y-58290000D01*
X68850000Y-57890000D02*
X68850000Y-57890000D01*
X68850000Y-57490000D02*
X68850000Y-56390000D01*
X68850000Y-55990000D02*
X68850000Y-55990000D01*
X68850000Y-55590000D02*
X68850000Y-54490000D01*
X68850000Y-54090000D02*
X68850000Y-54090000D01*
X68850000Y-53690000D02*
X68850000Y-52590000D01*
X68850000Y-52190000D02*
X68850000Y-52190000D01*
X68850000Y-51790000D02*
X68850000Y-50690000D01*
X68850000Y-50290000D02*
X68850000Y-50290000D01*
X68850000Y-49890000D02*
X68850000Y-49210000D01*
%TO.C,U2*%
X49970000Y-49210000D02*
X51070000Y-49210000D01*
X51470000Y-49210000D02*
X51470000Y-49210000D01*
X51870000Y-49210000D02*
X52970000Y-49210000D01*
X53370000Y-49210000D02*
X53370000Y-49210000D01*
X53770000Y-49210000D02*
X54870000Y-49210000D01*
X55270000Y-49210000D02*
X55270000Y-49210000D01*
X55670000Y-49210000D02*
X56770000Y-49210000D01*
X57170000Y-49210000D02*
X57170000Y-49210000D01*
X57570000Y-49210000D02*
X58670000Y-49210000D01*
X59070000Y-49210000D02*
X59070000Y-49210000D01*
X59470000Y-49210000D02*
X60570000Y-49210000D01*
X60970000Y-49210000D02*
X60970000Y-49210000D01*
X61370000Y-49210000D02*
X62470000Y-49210000D01*
X62870000Y-49210000D02*
X62870000Y-49210000D01*
X63270000Y-49210000D02*
X64370000Y-49210000D01*
X64770000Y-49210000D02*
X64770000Y-49210000D01*
X65170000Y-49210000D02*
X66270000Y-49210000D01*
X66670000Y-49210000D02*
X66670000Y-49210000D01*
X67070000Y-49210000D02*
X67750000Y-49210000D01*
X67750000Y-49210000D02*
X67750000Y-50310000D01*
X67750000Y-50710000D02*
X67750000Y-50710000D01*
X67750000Y-51110000D02*
X67750000Y-52210000D01*
X67750000Y-52610000D02*
X67750000Y-52610000D01*
X67750000Y-53010000D02*
X67750000Y-54110000D01*
X67750000Y-54510000D02*
X67750000Y-54510000D01*
X67750000Y-54910000D02*
X67750000Y-56010000D01*
X67750000Y-56410000D02*
X67750000Y-56410000D01*
X67750000Y-56810000D02*
X67750000Y-57910000D01*
X67750000Y-58310000D02*
X67750000Y-58310000D01*
X67750000Y-58710000D02*
X67750000Y-59810000D01*
X67750000Y-60210000D02*
X67750000Y-60210000D01*
X67750000Y-60610000D02*
X67750000Y-61710000D01*
X67750000Y-62110000D02*
X67750000Y-62110000D01*
X67750000Y-62510000D02*
X67750000Y-63610000D01*
X67750000Y-64010000D02*
X67750000Y-64010000D01*
X67750000Y-64410000D02*
X67750000Y-65510000D01*
X67750000Y-65910000D02*
X67750000Y-65910000D01*
X67750000Y-66310000D02*
X67750000Y-66990000D01*
X67750000Y-66990000D02*
X66650000Y-66990000D01*
X66250000Y-66990000D02*
X66250000Y-66990000D01*
X65850000Y-66990000D02*
X64750000Y-66990000D01*
X64350000Y-66990000D02*
X64350000Y-66990000D01*
X63950000Y-66990000D02*
X62850000Y-66990000D01*
X62450000Y-66990000D02*
X62450000Y-66990000D01*
X62050000Y-66990000D02*
X60950000Y-66990000D01*
X60550000Y-66990000D02*
X60550000Y-66990000D01*
X60150000Y-66990000D02*
X59050000Y-66990000D01*
X58650000Y-66990000D02*
X58650000Y-66990000D01*
X58250000Y-66990000D02*
X57150000Y-66990000D01*
X56750000Y-66990000D02*
X56750000Y-66990000D01*
X56350000Y-66990000D02*
X55250000Y-66990000D01*
X54850000Y-66990000D02*
X54850000Y-66990000D01*
X54450000Y-66990000D02*
X53350000Y-66990000D01*
X52950000Y-66990000D02*
X52950000Y-66990000D01*
X52550000Y-66990000D02*
X51450000Y-66990000D01*
X51050000Y-66990000D02*
X51050000Y-66990000D01*
X50650000Y-66990000D02*
X49970000Y-66990000D01*
X49970000Y-66990000D02*
X49970000Y-65890000D01*
X49970000Y-65490000D02*
X49970000Y-65490000D01*
X49970000Y-65090000D02*
X49970000Y-63990000D01*
X49970000Y-63590000D02*
X49970000Y-63590000D01*
X49970000Y-63190000D02*
X49970000Y-62090000D01*
X49970000Y-61690000D02*
X49970000Y-61690000D01*
X49970000Y-61290000D02*
X49970000Y-60190000D01*
X49970000Y-59790000D02*
X49970000Y-59790000D01*
X49970000Y-59390000D02*
X49970000Y-58290000D01*
X49970000Y-57890000D02*
X49970000Y-57890000D01*
X49970000Y-57490000D02*
X49970000Y-56390000D01*
X49970000Y-55990000D02*
X49970000Y-55990000D01*
X49970000Y-55590000D02*
X49970000Y-54490000D01*
X49970000Y-54090000D02*
X49970000Y-54090000D01*
X49970000Y-53690000D02*
X49970000Y-52590000D01*
X49970000Y-52190000D02*
X49970000Y-52190000D01*
X49970000Y-51790000D02*
X49970000Y-50690000D01*
X49970000Y-50290000D02*
X49970000Y-50290000D01*
X49970000Y-49890000D02*
X49970000Y-49210000D01*
%TO.C,U17*%
X49970000Y-105850000D02*
X51070000Y-105850000D01*
X51470000Y-105850000D02*
X51470000Y-105850000D01*
X51870000Y-105850000D02*
X52970000Y-105850000D01*
X53370000Y-105850000D02*
X53370000Y-105850000D01*
X53770000Y-105850000D02*
X54870000Y-105850000D01*
X55270000Y-105850000D02*
X55270000Y-105850000D01*
X55670000Y-105850000D02*
X56770000Y-105850000D01*
X57170000Y-105850000D02*
X57170000Y-105850000D01*
X57570000Y-105850000D02*
X58670000Y-105850000D01*
X59070000Y-105850000D02*
X59070000Y-105850000D01*
X59470000Y-105850000D02*
X60570000Y-105850000D01*
X60970000Y-105850000D02*
X60970000Y-105850000D01*
X61370000Y-105850000D02*
X62470000Y-105850000D01*
X62870000Y-105850000D02*
X62870000Y-105850000D01*
X63270000Y-105850000D02*
X64370000Y-105850000D01*
X64770000Y-105850000D02*
X64770000Y-105850000D01*
X65170000Y-105850000D02*
X66270000Y-105850000D01*
X66670000Y-105850000D02*
X66670000Y-105850000D01*
X67070000Y-105850000D02*
X67750000Y-105850000D01*
X67750000Y-105850000D02*
X67750000Y-106950000D01*
X67750000Y-107350000D02*
X67750000Y-107350000D01*
X67750000Y-107750000D02*
X67750000Y-108850000D01*
X67750000Y-109250000D02*
X67750000Y-109250000D01*
X67750000Y-109650000D02*
X67750000Y-110750000D01*
X67750000Y-111150000D02*
X67750000Y-111150000D01*
X67750000Y-111550000D02*
X67750000Y-112650000D01*
X67750000Y-113050000D02*
X67750000Y-113050000D01*
X67750000Y-113450000D02*
X67750000Y-114550000D01*
X67750000Y-114950000D02*
X67750000Y-114950000D01*
X67750000Y-115350000D02*
X67750000Y-116450000D01*
X67750000Y-116850000D02*
X67750000Y-116850000D01*
X67750000Y-117250000D02*
X67750000Y-118350000D01*
X67750000Y-118750000D02*
X67750000Y-118750000D01*
X67750000Y-119150000D02*
X67750000Y-120250000D01*
X67750000Y-120650000D02*
X67750000Y-120650000D01*
X67750000Y-121050000D02*
X67750000Y-122150000D01*
X67750000Y-122550000D02*
X67750000Y-122550000D01*
X67750000Y-122950000D02*
X67750000Y-123630000D01*
X67750000Y-123630000D02*
X66650000Y-123630000D01*
X66250000Y-123630000D02*
X66250000Y-123630000D01*
X65850000Y-123630000D02*
X64750000Y-123630000D01*
X64350000Y-123630000D02*
X64350000Y-123630000D01*
X63950000Y-123630000D02*
X62850000Y-123630000D01*
X62450000Y-123630000D02*
X62450000Y-123630000D01*
X62050000Y-123630000D02*
X60950000Y-123630000D01*
X60550000Y-123630000D02*
X60550000Y-123630000D01*
X60150000Y-123630000D02*
X59050000Y-123630000D01*
X58650000Y-123630000D02*
X58650000Y-123630000D01*
X58250000Y-123630000D02*
X57150000Y-123630000D01*
X56750000Y-123630000D02*
X56750000Y-123630000D01*
X56350000Y-123630000D02*
X55250000Y-123630000D01*
X54850000Y-123630000D02*
X54850000Y-123630000D01*
X54450000Y-123630000D02*
X53350000Y-123630000D01*
X52950000Y-123630000D02*
X52950000Y-123630000D01*
X52550000Y-123630000D02*
X51450000Y-123630000D01*
X51050000Y-123630000D02*
X51050000Y-123630000D01*
X50650000Y-123630000D02*
X49970000Y-123630000D01*
X49970000Y-123630000D02*
X49970000Y-122530000D01*
X49970000Y-122130000D02*
X49970000Y-122130000D01*
X49970000Y-121730000D02*
X49970000Y-120630000D01*
X49970000Y-120230000D02*
X49970000Y-120230000D01*
X49970000Y-119830000D02*
X49970000Y-118730000D01*
X49970000Y-118330000D02*
X49970000Y-118330000D01*
X49970000Y-117930000D02*
X49970000Y-116830000D01*
X49970000Y-116430000D02*
X49970000Y-116430000D01*
X49970000Y-116030000D02*
X49970000Y-114930000D01*
X49970000Y-114530000D02*
X49970000Y-114530000D01*
X49970000Y-114130000D02*
X49970000Y-113030000D01*
X49970000Y-112630000D02*
X49970000Y-112630000D01*
X49970000Y-112230000D02*
X49970000Y-111130000D01*
X49970000Y-110730000D02*
X49970000Y-110730000D01*
X49970000Y-110330000D02*
X49970000Y-109230000D01*
X49970000Y-108830000D02*
X49970000Y-108830000D01*
X49970000Y-108430000D02*
X49970000Y-107330000D01*
X49970000Y-106930000D02*
X49970000Y-106930000D01*
X49970000Y-106530000D02*
X49970000Y-105850000D01*
%TO.C,U8*%
X87730000Y-68090000D02*
X88830000Y-68090000D01*
X89230000Y-68090000D02*
X89230000Y-68090000D01*
X89630000Y-68090000D02*
X90730000Y-68090000D01*
X91130000Y-68090000D02*
X91130000Y-68090000D01*
X91530000Y-68090000D02*
X92630000Y-68090000D01*
X93030000Y-68090000D02*
X93030000Y-68090000D01*
X93430000Y-68090000D02*
X94530000Y-68090000D01*
X94930000Y-68090000D02*
X94930000Y-68090000D01*
X95330000Y-68090000D02*
X96430000Y-68090000D01*
X96830000Y-68090000D02*
X96830000Y-68090000D01*
X97230000Y-68090000D02*
X98330000Y-68090000D01*
X98730000Y-68090000D02*
X98730000Y-68090000D01*
X99130000Y-68090000D02*
X100230000Y-68090000D01*
X100630000Y-68090000D02*
X100630000Y-68090000D01*
X101030000Y-68090000D02*
X102130000Y-68090000D01*
X102530000Y-68090000D02*
X102530000Y-68090000D01*
X102930000Y-68090000D02*
X104030000Y-68090000D01*
X104430000Y-68090000D02*
X104430000Y-68090000D01*
X104830000Y-68090000D02*
X105510000Y-68090000D01*
X105510000Y-68090000D02*
X105510000Y-69190000D01*
X105510000Y-69590000D02*
X105510000Y-69590000D01*
X105510000Y-69990000D02*
X105510000Y-71090000D01*
X105510000Y-71490000D02*
X105510000Y-71490000D01*
X105510000Y-71890000D02*
X105510000Y-72990000D01*
X105510000Y-73390000D02*
X105510000Y-73390000D01*
X105510000Y-73790000D02*
X105510000Y-74890000D01*
X105510000Y-75290000D02*
X105510000Y-75290000D01*
X105510000Y-75690000D02*
X105510000Y-76790000D01*
X105510000Y-77190000D02*
X105510000Y-77190000D01*
X105510000Y-77590000D02*
X105510000Y-78690000D01*
X105510000Y-79090000D02*
X105510000Y-79090000D01*
X105510000Y-79490000D02*
X105510000Y-80590000D01*
X105510000Y-80990000D02*
X105510000Y-80990000D01*
X105510000Y-81390000D02*
X105510000Y-82490000D01*
X105510000Y-82890000D02*
X105510000Y-82890000D01*
X105510000Y-83290000D02*
X105510000Y-84390000D01*
X105510000Y-84790000D02*
X105510000Y-84790000D01*
X105510000Y-85190000D02*
X105510000Y-85870000D01*
X105510000Y-85870000D02*
X104410000Y-85870000D01*
X104010000Y-85870000D02*
X104010000Y-85870000D01*
X103610000Y-85870000D02*
X102510000Y-85870000D01*
X102110000Y-85870000D02*
X102110000Y-85870000D01*
X101710000Y-85870000D02*
X100610000Y-85870000D01*
X100210000Y-85870000D02*
X100210000Y-85870000D01*
X99810000Y-85870000D02*
X98710000Y-85870000D01*
X98310000Y-85870000D02*
X98310000Y-85870000D01*
X97910000Y-85870000D02*
X96810000Y-85870000D01*
X96410000Y-85870000D02*
X96410000Y-85870000D01*
X96010000Y-85870000D02*
X94910000Y-85870000D01*
X94510000Y-85870000D02*
X94510000Y-85870000D01*
X94110000Y-85870000D02*
X93010000Y-85870000D01*
X92610000Y-85870000D02*
X92610000Y-85870000D01*
X92210000Y-85870000D02*
X91110000Y-85870000D01*
X90710000Y-85870000D02*
X90710000Y-85870000D01*
X90310000Y-85870000D02*
X89210000Y-85870000D01*
X88810000Y-85870000D02*
X88810000Y-85870000D01*
X88410000Y-85870000D02*
X87730000Y-85870000D01*
X87730000Y-85870000D02*
X87730000Y-84770000D01*
X87730000Y-84370000D02*
X87730000Y-84370000D01*
X87730000Y-83970000D02*
X87730000Y-82870000D01*
X87730000Y-82470000D02*
X87730000Y-82470000D01*
X87730000Y-82070000D02*
X87730000Y-80970000D01*
X87730000Y-80570000D02*
X87730000Y-80570000D01*
X87730000Y-80170000D02*
X87730000Y-79070000D01*
X87730000Y-78670000D02*
X87730000Y-78670000D01*
X87730000Y-78270000D02*
X87730000Y-77170000D01*
X87730000Y-76770000D02*
X87730000Y-76770000D01*
X87730000Y-76370000D02*
X87730000Y-75270000D01*
X87730000Y-74870000D02*
X87730000Y-74870000D01*
X87730000Y-74470000D02*
X87730000Y-73370000D01*
X87730000Y-72970000D02*
X87730000Y-72970000D01*
X87730000Y-72570000D02*
X87730000Y-71470000D01*
X87730000Y-71070000D02*
X87730000Y-71070000D01*
X87730000Y-70670000D02*
X87730000Y-69570000D01*
X87730000Y-69170000D02*
X87730000Y-69170000D01*
X87730000Y-68770000D02*
X87730000Y-68090000D01*
%TO.C,U10*%
X106610000Y-86970000D02*
X107710000Y-86970000D01*
X108110000Y-86970000D02*
X108110000Y-86970000D01*
X108510000Y-86970000D02*
X109610000Y-86970000D01*
X110010000Y-86970000D02*
X110010000Y-86970000D01*
X110410000Y-86970000D02*
X111510000Y-86970000D01*
X111910000Y-86970000D02*
X111910000Y-86970000D01*
X112310000Y-86970000D02*
X113410000Y-86970000D01*
X113810000Y-86970000D02*
X113810000Y-86970000D01*
X114210000Y-86970000D02*
X115310000Y-86970000D01*
X115710000Y-86970000D02*
X115710000Y-86970000D01*
X116110000Y-86970000D02*
X117210000Y-86970000D01*
X117610000Y-86970000D02*
X117610000Y-86970000D01*
X118010000Y-86970000D02*
X119110000Y-86970000D01*
X119510000Y-86970000D02*
X119510000Y-86970000D01*
X119910000Y-86970000D02*
X121010000Y-86970000D01*
X121410000Y-86970000D02*
X121410000Y-86970000D01*
X121810000Y-86970000D02*
X122910000Y-86970000D01*
X123310000Y-86970000D02*
X123310000Y-86970000D01*
X123710000Y-86970000D02*
X124390000Y-86970000D01*
X124390000Y-86970000D02*
X124390000Y-88070000D01*
X124390000Y-88470000D02*
X124390000Y-88470000D01*
X124390000Y-88870000D02*
X124390000Y-89970000D01*
X124390000Y-90370000D02*
X124390000Y-90370000D01*
X124390000Y-90770000D02*
X124390000Y-91870000D01*
X124390000Y-92270000D02*
X124390000Y-92270000D01*
X124390000Y-92670000D02*
X124390000Y-93770000D01*
X124390000Y-94170000D02*
X124390000Y-94170000D01*
X124390000Y-94570000D02*
X124390000Y-95670000D01*
X124390000Y-96070000D02*
X124390000Y-96070000D01*
X124390000Y-96470000D02*
X124390000Y-97570000D01*
X124390000Y-97970000D02*
X124390000Y-97970000D01*
X124390000Y-98370000D02*
X124390000Y-99470000D01*
X124390000Y-99870000D02*
X124390000Y-99870000D01*
X124390000Y-100270000D02*
X124390000Y-101370000D01*
X124390000Y-101770000D02*
X124390000Y-101770000D01*
X124390000Y-102170000D02*
X124390000Y-103270000D01*
X124390000Y-103670000D02*
X124390000Y-103670000D01*
X124390000Y-104070000D02*
X124390000Y-104750000D01*
X124390000Y-104750000D02*
X123290000Y-104750000D01*
X122890000Y-104750000D02*
X122890000Y-104750000D01*
X122490000Y-104750000D02*
X121390000Y-104750000D01*
X120990000Y-104750000D02*
X120990000Y-104750000D01*
X120590000Y-104750000D02*
X119490000Y-104750000D01*
X119090000Y-104750000D02*
X119090000Y-104750000D01*
X118690000Y-104750000D02*
X117590000Y-104750000D01*
X117190000Y-104750000D02*
X117190000Y-104750000D01*
X116790000Y-104750000D02*
X115690000Y-104750000D01*
X115290000Y-104750000D02*
X115290000Y-104750000D01*
X114890000Y-104750000D02*
X113790000Y-104750000D01*
X113390000Y-104750000D02*
X113390000Y-104750000D01*
X112990000Y-104750000D02*
X111890000Y-104750000D01*
X111490000Y-104750000D02*
X111490000Y-104750000D01*
X111090000Y-104750000D02*
X109990000Y-104750000D01*
X109590000Y-104750000D02*
X109590000Y-104750000D01*
X109190000Y-104750000D02*
X108090000Y-104750000D01*
X107690000Y-104750000D02*
X107690000Y-104750000D01*
X107290000Y-104750000D02*
X106610000Y-104750000D01*
X106610000Y-104750000D02*
X106610000Y-103650000D01*
X106610000Y-103250000D02*
X106610000Y-103250000D01*
X106610000Y-102850000D02*
X106610000Y-101750000D01*
X106610000Y-101350000D02*
X106610000Y-101350000D01*
X106610000Y-100950000D02*
X106610000Y-99850000D01*
X106610000Y-99450000D02*
X106610000Y-99450000D01*
X106610000Y-99050000D02*
X106610000Y-97950000D01*
X106610000Y-97550000D02*
X106610000Y-97550000D01*
X106610000Y-97150000D02*
X106610000Y-96050000D01*
X106610000Y-95650000D02*
X106610000Y-95650000D01*
X106610000Y-95250000D02*
X106610000Y-94150000D01*
X106610000Y-93750000D02*
X106610000Y-93750000D01*
X106610000Y-93350000D02*
X106610000Y-92250000D01*
X106610000Y-91850000D02*
X106610000Y-91850000D01*
X106610000Y-91450000D02*
X106610000Y-90350000D01*
X106610000Y-89950000D02*
X106610000Y-89950000D01*
X106610000Y-89550000D02*
X106610000Y-88450000D01*
X106610000Y-88050000D02*
X106610000Y-88050000D01*
X106610000Y-87650000D02*
X106610000Y-86970000D01*
%TO.C,U14*%
X106610000Y-105850000D02*
X107710000Y-105850000D01*
X108110000Y-105850000D02*
X108110000Y-105850000D01*
X108510000Y-105850000D02*
X109610000Y-105850000D01*
X110010000Y-105850000D02*
X110010000Y-105850000D01*
X110410000Y-105850000D02*
X111510000Y-105850000D01*
X111910000Y-105850000D02*
X111910000Y-105850000D01*
X112310000Y-105850000D02*
X113410000Y-105850000D01*
X113810000Y-105850000D02*
X113810000Y-105850000D01*
X114210000Y-105850000D02*
X115310000Y-105850000D01*
X115710000Y-105850000D02*
X115710000Y-105850000D01*
X116110000Y-105850000D02*
X117210000Y-105850000D01*
X117610000Y-105850000D02*
X117610000Y-105850000D01*
X118010000Y-105850000D02*
X119110000Y-105850000D01*
X119510000Y-105850000D02*
X119510000Y-105850000D01*
X119910000Y-105850000D02*
X121010000Y-105850000D01*
X121410000Y-105850000D02*
X121410000Y-105850000D01*
X121810000Y-105850000D02*
X122910000Y-105850000D01*
X123310000Y-105850000D02*
X123310000Y-105850000D01*
X123710000Y-105850000D02*
X124390000Y-105850000D01*
X124390000Y-105850000D02*
X124390000Y-106950000D01*
X124390000Y-107350000D02*
X124390000Y-107350000D01*
X124390000Y-107750000D02*
X124390000Y-108850000D01*
X124390000Y-109250000D02*
X124390000Y-109250000D01*
X124390000Y-109650000D02*
X124390000Y-110750000D01*
X124390000Y-111150000D02*
X124390000Y-111150000D01*
X124390000Y-111550000D02*
X124390000Y-112650000D01*
X124390000Y-113050000D02*
X124390000Y-113050000D01*
X124390000Y-113450000D02*
X124390000Y-114550000D01*
X124390000Y-114950000D02*
X124390000Y-114950000D01*
X124390000Y-115350000D02*
X124390000Y-116450000D01*
X124390000Y-116850000D02*
X124390000Y-116850000D01*
X124390000Y-117250000D02*
X124390000Y-118350000D01*
X124390000Y-118750000D02*
X124390000Y-118750000D01*
X124390000Y-119150000D02*
X124390000Y-120250000D01*
X124390000Y-120650000D02*
X124390000Y-120650000D01*
X124390000Y-121050000D02*
X124390000Y-122150000D01*
X124390000Y-122550000D02*
X124390000Y-122550000D01*
X124390000Y-122950000D02*
X124390000Y-123630000D01*
X124390000Y-123630000D02*
X123290000Y-123630000D01*
X122890000Y-123630000D02*
X122890000Y-123630000D01*
X122490000Y-123630000D02*
X121390000Y-123630000D01*
X120990000Y-123630000D02*
X120990000Y-123630000D01*
X120590000Y-123630000D02*
X119490000Y-123630000D01*
X119090000Y-123630000D02*
X119090000Y-123630000D01*
X118690000Y-123630000D02*
X117590000Y-123630000D01*
X117190000Y-123630000D02*
X117190000Y-123630000D01*
X116790000Y-123630000D02*
X115690000Y-123630000D01*
X115290000Y-123630000D02*
X115290000Y-123630000D01*
X114890000Y-123630000D02*
X113790000Y-123630000D01*
X113390000Y-123630000D02*
X113390000Y-123630000D01*
X112990000Y-123630000D02*
X111890000Y-123630000D01*
X111490000Y-123630000D02*
X111490000Y-123630000D01*
X111090000Y-123630000D02*
X109990000Y-123630000D01*
X109590000Y-123630000D02*
X109590000Y-123630000D01*
X109190000Y-123630000D02*
X108090000Y-123630000D01*
X107690000Y-123630000D02*
X107690000Y-123630000D01*
X107290000Y-123630000D02*
X106610000Y-123630000D01*
X106610000Y-123630000D02*
X106610000Y-122530000D01*
X106610000Y-122130000D02*
X106610000Y-122130000D01*
X106610000Y-121730000D02*
X106610000Y-120630000D01*
X106610000Y-120230000D02*
X106610000Y-120230000D01*
X106610000Y-119830000D02*
X106610000Y-118730000D01*
X106610000Y-118330000D02*
X106610000Y-118330000D01*
X106610000Y-117930000D02*
X106610000Y-116830000D01*
X106610000Y-116430000D02*
X106610000Y-116430000D01*
X106610000Y-116030000D02*
X106610000Y-114930000D01*
X106610000Y-114530000D02*
X106610000Y-114530000D01*
X106610000Y-114130000D02*
X106610000Y-113030000D01*
X106610000Y-112630000D02*
X106610000Y-112630000D01*
X106610000Y-112230000D02*
X106610000Y-111130000D01*
X106610000Y-110730000D02*
X106610000Y-110730000D01*
X106610000Y-110330000D02*
X106610000Y-109230000D01*
X106610000Y-108830000D02*
X106610000Y-108830000D01*
X106610000Y-108430000D02*
X106610000Y-107330000D01*
X106610000Y-106930000D02*
X106610000Y-106930000D01*
X106610000Y-106530000D02*
X106610000Y-105850000D01*
%TO.C,U13*%
X49970000Y-86970000D02*
X51070000Y-86970000D01*
X51470000Y-86970000D02*
X51470000Y-86970000D01*
X51870000Y-86970000D02*
X52970000Y-86970000D01*
X53370000Y-86970000D02*
X53370000Y-86970000D01*
X53770000Y-86970000D02*
X54870000Y-86970000D01*
X55270000Y-86970000D02*
X55270000Y-86970000D01*
X55670000Y-86970000D02*
X56770000Y-86970000D01*
X57170000Y-86970000D02*
X57170000Y-86970000D01*
X57570000Y-86970000D02*
X58670000Y-86970000D01*
X59070000Y-86970000D02*
X59070000Y-86970000D01*
X59470000Y-86970000D02*
X60570000Y-86970000D01*
X60970000Y-86970000D02*
X60970000Y-86970000D01*
X61370000Y-86970000D02*
X62470000Y-86970000D01*
X62870000Y-86970000D02*
X62870000Y-86970000D01*
X63270000Y-86970000D02*
X64370000Y-86970000D01*
X64770000Y-86970000D02*
X64770000Y-86970000D01*
X65170000Y-86970000D02*
X66270000Y-86970000D01*
X66670000Y-86970000D02*
X66670000Y-86970000D01*
X67070000Y-86970000D02*
X67750000Y-86970000D01*
X67750000Y-86970000D02*
X67750000Y-88070000D01*
X67750000Y-88470000D02*
X67750000Y-88470000D01*
X67750000Y-88870000D02*
X67750000Y-89970000D01*
X67750000Y-90370000D02*
X67750000Y-90370000D01*
X67750000Y-90770000D02*
X67750000Y-91870000D01*
X67750000Y-92270000D02*
X67750000Y-92270000D01*
X67750000Y-92670000D02*
X67750000Y-93770000D01*
X67750000Y-94170000D02*
X67750000Y-94170000D01*
X67750000Y-94570000D02*
X67750000Y-95670000D01*
X67750000Y-96070000D02*
X67750000Y-96070000D01*
X67750000Y-96470000D02*
X67750000Y-97570000D01*
X67750000Y-97970000D02*
X67750000Y-97970000D01*
X67750000Y-98370000D02*
X67750000Y-99470000D01*
X67750000Y-99870000D02*
X67750000Y-99870000D01*
X67750000Y-100270000D02*
X67750000Y-101370000D01*
X67750000Y-101770000D02*
X67750000Y-101770000D01*
X67750000Y-102170000D02*
X67750000Y-103270000D01*
X67750000Y-103670000D02*
X67750000Y-103670000D01*
X67750000Y-104070000D02*
X67750000Y-104750000D01*
X67750000Y-104750000D02*
X66650000Y-104750000D01*
X66250000Y-104750000D02*
X66250000Y-104750000D01*
X65850000Y-104750000D02*
X64750000Y-104750000D01*
X64350000Y-104750000D02*
X64350000Y-104750000D01*
X63950000Y-104750000D02*
X62850000Y-104750000D01*
X62450000Y-104750000D02*
X62450000Y-104750000D01*
X62050000Y-104750000D02*
X60950000Y-104750000D01*
X60550000Y-104750000D02*
X60550000Y-104750000D01*
X60150000Y-104750000D02*
X59050000Y-104750000D01*
X58650000Y-104750000D02*
X58650000Y-104750000D01*
X58250000Y-104750000D02*
X57150000Y-104750000D01*
X56750000Y-104750000D02*
X56750000Y-104750000D01*
X56350000Y-104750000D02*
X55250000Y-104750000D01*
X54850000Y-104750000D02*
X54850000Y-104750000D01*
X54450000Y-104750000D02*
X53350000Y-104750000D01*
X52950000Y-104750000D02*
X52950000Y-104750000D01*
X52550000Y-104750000D02*
X51450000Y-104750000D01*
X51050000Y-104750000D02*
X51050000Y-104750000D01*
X50650000Y-104750000D02*
X49970000Y-104750000D01*
X49970000Y-104750000D02*
X49970000Y-103650000D01*
X49970000Y-103250000D02*
X49970000Y-103250000D01*
X49970000Y-102850000D02*
X49970000Y-101750000D01*
X49970000Y-101350000D02*
X49970000Y-101350000D01*
X49970000Y-100950000D02*
X49970000Y-99850000D01*
X49970000Y-99450000D02*
X49970000Y-99450000D01*
X49970000Y-99050000D02*
X49970000Y-97950000D01*
X49970000Y-97550000D02*
X49970000Y-97550000D01*
X49970000Y-97150000D02*
X49970000Y-96050000D01*
X49970000Y-95650000D02*
X49970000Y-95650000D01*
X49970000Y-95250000D02*
X49970000Y-94150000D01*
X49970000Y-93750000D02*
X49970000Y-93750000D01*
X49970000Y-93350000D02*
X49970000Y-92250000D01*
X49970000Y-91850000D02*
X49970000Y-91850000D01*
X49970000Y-91450000D02*
X49970000Y-90350000D01*
X49970000Y-89950000D02*
X49970000Y-89950000D01*
X49970000Y-89550000D02*
X49970000Y-88450000D01*
X49970000Y-88050000D02*
X49970000Y-88050000D01*
X49970000Y-87650000D02*
X49970000Y-86970000D01*
%TO.C,U11*%
X87730000Y-86970000D02*
X88830000Y-86970000D01*
X89230000Y-86970000D02*
X89230000Y-86970000D01*
X89630000Y-86970000D02*
X90730000Y-86970000D01*
X91130000Y-86970000D02*
X91130000Y-86970000D01*
X91530000Y-86970000D02*
X92630000Y-86970000D01*
X93030000Y-86970000D02*
X93030000Y-86970000D01*
X93430000Y-86970000D02*
X94530000Y-86970000D01*
X94930000Y-86970000D02*
X94930000Y-86970000D01*
X95330000Y-86970000D02*
X96430000Y-86970000D01*
X96830000Y-86970000D02*
X96830000Y-86970000D01*
X97230000Y-86970000D02*
X98330000Y-86970000D01*
X98730000Y-86970000D02*
X98730000Y-86970000D01*
X99130000Y-86970000D02*
X100230000Y-86970000D01*
X100630000Y-86970000D02*
X100630000Y-86970000D01*
X101030000Y-86970000D02*
X102130000Y-86970000D01*
X102530000Y-86970000D02*
X102530000Y-86970000D01*
X102930000Y-86970000D02*
X104030000Y-86970000D01*
X104430000Y-86970000D02*
X104430000Y-86970000D01*
X104830000Y-86970000D02*
X105510000Y-86970000D01*
X105510000Y-86970000D02*
X105510000Y-88070000D01*
X105510000Y-88470000D02*
X105510000Y-88470000D01*
X105510000Y-88870000D02*
X105510000Y-89970000D01*
X105510000Y-90370000D02*
X105510000Y-90370000D01*
X105510000Y-90770000D02*
X105510000Y-91870000D01*
X105510000Y-92270000D02*
X105510000Y-92270000D01*
X105510000Y-92670000D02*
X105510000Y-93770000D01*
X105510000Y-94170000D02*
X105510000Y-94170000D01*
X105510000Y-94570000D02*
X105510000Y-95670000D01*
X105510000Y-96070000D02*
X105510000Y-96070000D01*
X105510000Y-96470000D02*
X105510000Y-97570000D01*
X105510000Y-97970000D02*
X105510000Y-97970000D01*
X105510000Y-98370000D02*
X105510000Y-99470000D01*
X105510000Y-99870000D02*
X105510000Y-99870000D01*
X105510000Y-100270000D02*
X105510000Y-101370000D01*
X105510000Y-101770000D02*
X105510000Y-101770000D01*
X105510000Y-102170000D02*
X105510000Y-103270000D01*
X105510000Y-103670000D02*
X105510000Y-103670000D01*
X105510000Y-104070000D02*
X105510000Y-104750000D01*
X105510000Y-104750000D02*
X104410000Y-104750000D01*
X104010000Y-104750000D02*
X104010000Y-104750000D01*
X103610000Y-104750000D02*
X102510000Y-104750000D01*
X102110000Y-104750000D02*
X102110000Y-104750000D01*
X101710000Y-104750000D02*
X100610000Y-104750000D01*
X100210000Y-104750000D02*
X100210000Y-104750000D01*
X99810000Y-104750000D02*
X98710000Y-104750000D01*
X98310000Y-104750000D02*
X98310000Y-104750000D01*
X97910000Y-104750000D02*
X96810000Y-104750000D01*
X96410000Y-104750000D02*
X96410000Y-104750000D01*
X96010000Y-104750000D02*
X94910000Y-104750000D01*
X94510000Y-104750000D02*
X94510000Y-104750000D01*
X94110000Y-104750000D02*
X93010000Y-104750000D01*
X92610000Y-104750000D02*
X92610000Y-104750000D01*
X92210000Y-104750000D02*
X91110000Y-104750000D01*
X90710000Y-104750000D02*
X90710000Y-104750000D01*
X90310000Y-104750000D02*
X89210000Y-104750000D01*
X88810000Y-104750000D02*
X88810000Y-104750000D01*
X88410000Y-104750000D02*
X87730000Y-104750000D01*
X87730000Y-104750000D02*
X87730000Y-103650000D01*
X87730000Y-103250000D02*
X87730000Y-103250000D01*
X87730000Y-102850000D02*
X87730000Y-101750000D01*
X87730000Y-101350000D02*
X87730000Y-101350000D01*
X87730000Y-100950000D02*
X87730000Y-99850000D01*
X87730000Y-99450000D02*
X87730000Y-99450000D01*
X87730000Y-99050000D02*
X87730000Y-97950000D01*
X87730000Y-97550000D02*
X87730000Y-97550000D01*
X87730000Y-97150000D02*
X87730000Y-96050000D01*
X87730000Y-95650000D02*
X87730000Y-95650000D01*
X87730000Y-95250000D02*
X87730000Y-94150000D01*
X87730000Y-93750000D02*
X87730000Y-93750000D01*
X87730000Y-93350000D02*
X87730000Y-92250000D01*
X87730000Y-91850000D02*
X87730000Y-91850000D01*
X87730000Y-91450000D02*
X87730000Y-90350000D01*
X87730000Y-89950000D02*
X87730000Y-89950000D01*
X87730000Y-89550000D02*
X87730000Y-88450000D01*
X87730000Y-88050000D02*
X87730000Y-88050000D01*
X87730000Y-87650000D02*
X87730000Y-86970000D01*
%TO.C,U15*%
X87730000Y-105850000D02*
X88830000Y-105850000D01*
X89230000Y-105850000D02*
X89230000Y-105850000D01*
X89630000Y-105850000D02*
X90730000Y-105850000D01*
X91130000Y-105850000D02*
X91130000Y-105850000D01*
X91530000Y-105850000D02*
X92630000Y-105850000D01*
X93030000Y-105850000D02*
X93030000Y-105850000D01*
X93430000Y-105850000D02*
X94530000Y-105850000D01*
X94930000Y-105850000D02*
X94930000Y-105850000D01*
X95330000Y-105850000D02*
X96430000Y-105850000D01*
X96830000Y-105850000D02*
X96830000Y-105850000D01*
X97230000Y-105850000D02*
X98330000Y-105850000D01*
X98730000Y-105850000D02*
X98730000Y-105850000D01*
X99130000Y-105850000D02*
X100230000Y-105850000D01*
X100630000Y-105850000D02*
X100630000Y-105850000D01*
X101030000Y-105850000D02*
X102130000Y-105850000D01*
X102530000Y-105850000D02*
X102530000Y-105850000D01*
X102930000Y-105850000D02*
X104030000Y-105850000D01*
X104430000Y-105850000D02*
X104430000Y-105850000D01*
X104830000Y-105850000D02*
X105510000Y-105850000D01*
X105510000Y-105850000D02*
X105510000Y-106950000D01*
X105510000Y-107350000D02*
X105510000Y-107350000D01*
X105510000Y-107750000D02*
X105510000Y-108850000D01*
X105510000Y-109250000D02*
X105510000Y-109250000D01*
X105510000Y-109650000D02*
X105510000Y-110750000D01*
X105510000Y-111150000D02*
X105510000Y-111150000D01*
X105510000Y-111550000D02*
X105510000Y-112650000D01*
X105510000Y-113050000D02*
X105510000Y-113050000D01*
X105510000Y-113450000D02*
X105510000Y-114550000D01*
X105510000Y-114950000D02*
X105510000Y-114950000D01*
X105510000Y-115350000D02*
X105510000Y-116450000D01*
X105510000Y-116850000D02*
X105510000Y-116850000D01*
X105510000Y-117250000D02*
X105510000Y-118350000D01*
X105510000Y-118750000D02*
X105510000Y-118750000D01*
X105510000Y-119150000D02*
X105510000Y-120250000D01*
X105510000Y-120650000D02*
X105510000Y-120650000D01*
X105510000Y-121050000D02*
X105510000Y-122150000D01*
X105510000Y-122550000D02*
X105510000Y-122550000D01*
X105510000Y-122950000D02*
X105510000Y-123630000D01*
X105510000Y-123630000D02*
X104410000Y-123630000D01*
X104010000Y-123630000D02*
X104010000Y-123630000D01*
X103610000Y-123630000D02*
X102510000Y-123630000D01*
X102110000Y-123630000D02*
X102110000Y-123630000D01*
X101710000Y-123630000D02*
X100610000Y-123630000D01*
X100210000Y-123630000D02*
X100210000Y-123630000D01*
X99810000Y-123630000D02*
X98710000Y-123630000D01*
X98310000Y-123630000D02*
X98310000Y-123630000D01*
X97910000Y-123630000D02*
X96810000Y-123630000D01*
X96410000Y-123630000D02*
X96410000Y-123630000D01*
X96010000Y-123630000D02*
X94910000Y-123630000D01*
X94510000Y-123630000D02*
X94510000Y-123630000D01*
X94110000Y-123630000D02*
X93010000Y-123630000D01*
X92610000Y-123630000D02*
X92610000Y-123630000D01*
X92210000Y-123630000D02*
X91110000Y-123630000D01*
X90710000Y-123630000D02*
X90710000Y-123630000D01*
X90310000Y-123630000D02*
X89210000Y-123630000D01*
X88810000Y-123630000D02*
X88810000Y-123630000D01*
X88410000Y-123630000D02*
X87730000Y-123630000D01*
X87730000Y-123630000D02*
X87730000Y-122530000D01*
X87730000Y-122130000D02*
X87730000Y-122130000D01*
X87730000Y-121730000D02*
X87730000Y-120630000D01*
X87730000Y-120230000D02*
X87730000Y-120230000D01*
X87730000Y-119830000D02*
X87730000Y-118730000D01*
X87730000Y-118330000D02*
X87730000Y-118330000D01*
X87730000Y-117930000D02*
X87730000Y-116830000D01*
X87730000Y-116430000D02*
X87730000Y-116430000D01*
X87730000Y-116030000D02*
X87730000Y-114930000D01*
X87730000Y-114530000D02*
X87730000Y-114530000D01*
X87730000Y-114130000D02*
X87730000Y-113030000D01*
X87730000Y-112630000D02*
X87730000Y-112630000D01*
X87730000Y-112230000D02*
X87730000Y-111130000D01*
X87730000Y-110730000D02*
X87730000Y-110730000D01*
X87730000Y-110330000D02*
X87730000Y-109230000D01*
X87730000Y-108830000D02*
X87730000Y-108830000D01*
X87730000Y-108430000D02*
X87730000Y-107330000D01*
X87730000Y-106930000D02*
X87730000Y-106930000D01*
X87730000Y-106530000D02*
X87730000Y-105850000D01*
%TO.C,U5*%
X106610000Y-49210000D02*
X107710000Y-49210000D01*
X108110000Y-49210000D02*
X108110000Y-49210000D01*
X108510000Y-49210000D02*
X109610000Y-49210000D01*
X110010000Y-49210000D02*
X110010000Y-49210000D01*
X110410000Y-49210000D02*
X111510000Y-49210000D01*
X111910000Y-49210000D02*
X111910000Y-49210000D01*
X112310000Y-49210000D02*
X113410000Y-49210000D01*
X113810000Y-49210000D02*
X113810000Y-49210000D01*
X114210000Y-49210000D02*
X115310000Y-49210000D01*
X115710000Y-49210000D02*
X115710000Y-49210000D01*
X116110000Y-49210000D02*
X117210000Y-49210000D01*
X117610000Y-49210000D02*
X117610000Y-49210000D01*
X118010000Y-49210000D02*
X119110000Y-49210000D01*
X119510000Y-49210000D02*
X119510000Y-49210000D01*
X119910000Y-49210000D02*
X121010000Y-49210000D01*
X121410000Y-49210000D02*
X121410000Y-49210000D01*
X121810000Y-49210000D02*
X122910000Y-49210000D01*
X123310000Y-49210000D02*
X123310000Y-49210000D01*
X123710000Y-49210000D02*
X124390000Y-49210000D01*
X124390000Y-49210000D02*
X124390000Y-50310000D01*
X124390000Y-50710000D02*
X124390000Y-50710000D01*
X124390000Y-51110000D02*
X124390000Y-52210000D01*
X124390000Y-52610000D02*
X124390000Y-52610000D01*
X124390000Y-53010000D02*
X124390000Y-54110000D01*
X124390000Y-54510000D02*
X124390000Y-54510000D01*
X124390000Y-54910000D02*
X124390000Y-56010000D01*
X124390000Y-56410000D02*
X124390000Y-56410000D01*
X124390000Y-56810000D02*
X124390000Y-57910000D01*
X124390000Y-58310000D02*
X124390000Y-58310000D01*
X124390000Y-58710000D02*
X124390000Y-59810000D01*
X124390000Y-60210000D02*
X124390000Y-60210000D01*
X124390000Y-60610000D02*
X124390000Y-61710000D01*
X124390000Y-62110000D02*
X124390000Y-62110000D01*
X124390000Y-62510000D02*
X124390000Y-63610000D01*
X124390000Y-64010000D02*
X124390000Y-64010000D01*
X124390000Y-64410000D02*
X124390000Y-65510000D01*
X124390000Y-65910000D02*
X124390000Y-65910000D01*
X124390000Y-66310000D02*
X124390000Y-66990000D01*
X124390000Y-66990000D02*
X123290000Y-66990000D01*
X122890000Y-66990000D02*
X122890000Y-66990000D01*
X122490000Y-66990000D02*
X121390000Y-66990000D01*
X120990000Y-66990000D02*
X120990000Y-66990000D01*
X120590000Y-66990000D02*
X119490000Y-66990000D01*
X119090000Y-66990000D02*
X119090000Y-66990000D01*
X118690000Y-66990000D02*
X117590000Y-66990000D01*
X117190000Y-66990000D02*
X117190000Y-66990000D01*
X116790000Y-66990000D02*
X115690000Y-66990000D01*
X115290000Y-66990000D02*
X115290000Y-66990000D01*
X114890000Y-66990000D02*
X113790000Y-66990000D01*
X113390000Y-66990000D02*
X113390000Y-66990000D01*
X112990000Y-66990000D02*
X111890000Y-66990000D01*
X111490000Y-66990000D02*
X111490000Y-66990000D01*
X111090000Y-66990000D02*
X109990000Y-66990000D01*
X109590000Y-66990000D02*
X109590000Y-66990000D01*
X109190000Y-66990000D02*
X108090000Y-66990000D01*
X107690000Y-66990000D02*
X107690000Y-66990000D01*
X107290000Y-66990000D02*
X106610000Y-66990000D01*
X106610000Y-66990000D02*
X106610000Y-65890000D01*
X106610000Y-65490000D02*
X106610000Y-65490000D01*
X106610000Y-65090000D02*
X106610000Y-63990000D01*
X106610000Y-63590000D02*
X106610000Y-63590000D01*
X106610000Y-63190000D02*
X106610000Y-62090000D01*
X106610000Y-61690000D02*
X106610000Y-61690000D01*
X106610000Y-61290000D02*
X106610000Y-60190000D01*
X106610000Y-59790000D02*
X106610000Y-59790000D01*
X106610000Y-59390000D02*
X106610000Y-58290000D01*
X106610000Y-57890000D02*
X106610000Y-57890000D01*
X106610000Y-57490000D02*
X106610000Y-56390000D01*
X106610000Y-55990000D02*
X106610000Y-55990000D01*
X106610000Y-55590000D02*
X106610000Y-54490000D01*
X106610000Y-54090000D02*
X106610000Y-54090000D01*
X106610000Y-53690000D02*
X106610000Y-52590000D01*
X106610000Y-52190000D02*
X106610000Y-52190000D01*
X106610000Y-51790000D02*
X106610000Y-50690000D01*
X106610000Y-50290000D02*
X106610000Y-50290000D01*
X106610000Y-49890000D02*
X106610000Y-49210000D01*
%TO.C,U16*%
X68850000Y-105850000D02*
X69950000Y-105850000D01*
X70350000Y-105850000D02*
X70350000Y-105850000D01*
X70750000Y-105850000D02*
X71850000Y-105850000D01*
X72250000Y-105850000D02*
X72250000Y-105850000D01*
X72650000Y-105850000D02*
X73750000Y-105850000D01*
X74150000Y-105850000D02*
X74150000Y-105850000D01*
X74550000Y-105850000D02*
X75650000Y-105850000D01*
X76050000Y-105850000D02*
X76050000Y-105850000D01*
X76450000Y-105850000D02*
X77550000Y-105850000D01*
X77950000Y-105850000D02*
X77950000Y-105850000D01*
X78350000Y-105850000D02*
X79450000Y-105850000D01*
X79850000Y-105850000D02*
X79850000Y-105850000D01*
X80250000Y-105850000D02*
X81350000Y-105850000D01*
X81750000Y-105850000D02*
X81750000Y-105850000D01*
X82150000Y-105850000D02*
X83250000Y-105850000D01*
X83650000Y-105850000D02*
X83650000Y-105850000D01*
X84050000Y-105850000D02*
X85150000Y-105850000D01*
X85550000Y-105850000D02*
X85550000Y-105850000D01*
X85950000Y-105850000D02*
X86630000Y-105850000D01*
X86630000Y-105850000D02*
X86630000Y-106950000D01*
X86630000Y-107350000D02*
X86630000Y-107350000D01*
X86630000Y-107750000D02*
X86630000Y-108850000D01*
X86630000Y-109250000D02*
X86630000Y-109250000D01*
X86630000Y-109650000D02*
X86630000Y-110750000D01*
X86630000Y-111150000D02*
X86630000Y-111150000D01*
X86630000Y-111550000D02*
X86630000Y-112650000D01*
X86630000Y-113050000D02*
X86630000Y-113050000D01*
X86630000Y-113450000D02*
X86630000Y-114550000D01*
X86630000Y-114950000D02*
X86630000Y-114950000D01*
X86630000Y-115350000D02*
X86630000Y-116450000D01*
X86630000Y-116850000D02*
X86630000Y-116850000D01*
X86630000Y-117250000D02*
X86630000Y-118350000D01*
X86630000Y-118750000D02*
X86630000Y-118750000D01*
X86630000Y-119150000D02*
X86630000Y-120250000D01*
X86630000Y-120650000D02*
X86630000Y-120650000D01*
X86630000Y-121050000D02*
X86630000Y-122150000D01*
X86630000Y-122550000D02*
X86630000Y-122550000D01*
X86630000Y-122950000D02*
X86630000Y-123630000D01*
X86630000Y-123630000D02*
X85530000Y-123630000D01*
X85130000Y-123630000D02*
X85130000Y-123630000D01*
X84730000Y-123630000D02*
X83630000Y-123630000D01*
X83230000Y-123630000D02*
X83230000Y-123630000D01*
X82830000Y-123630000D02*
X81730000Y-123630000D01*
X81330000Y-123630000D02*
X81330000Y-123630000D01*
X80930000Y-123630000D02*
X79830000Y-123630000D01*
X79430000Y-123630000D02*
X79430000Y-123630000D01*
X79030000Y-123630000D02*
X77930000Y-123630000D01*
X77530000Y-123630000D02*
X77530000Y-123630000D01*
X77130000Y-123630000D02*
X76030000Y-123630000D01*
X75630000Y-123630000D02*
X75630000Y-123630000D01*
X75230000Y-123630000D02*
X74130000Y-123630000D01*
X73730000Y-123630000D02*
X73730000Y-123630000D01*
X73330000Y-123630000D02*
X72230000Y-123630000D01*
X71830000Y-123630000D02*
X71830000Y-123630000D01*
X71430000Y-123630000D02*
X70330000Y-123630000D01*
X69930000Y-123630000D02*
X69930000Y-123630000D01*
X69530000Y-123630000D02*
X68850000Y-123630000D01*
X68850000Y-123630000D02*
X68850000Y-122530000D01*
X68850000Y-122130000D02*
X68850000Y-122130000D01*
X68850000Y-121730000D02*
X68850000Y-120630000D01*
X68850000Y-120230000D02*
X68850000Y-120230000D01*
X68850000Y-119830000D02*
X68850000Y-118730000D01*
X68850000Y-118330000D02*
X68850000Y-118330000D01*
X68850000Y-117930000D02*
X68850000Y-116830000D01*
X68850000Y-116430000D02*
X68850000Y-116430000D01*
X68850000Y-116030000D02*
X68850000Y-114930000D01*
X68850000Y-114530000D02*
X68850000Y-114530000D01*
X68850000Y-114130000D02*
X68850000Y-113030000D01*
X68850000Y-112630000D02*
X68850000Y-112630000D01*
X68850000Y-112230000D02*
X68850000Y-111130000D01*
X68850000Y-110730000D02*
X68850000Y-110730000D01*
X68850000Y-110330000D02*
X68850000Y-109230000D01*
X68850000Y-108830000D02*
X68850000Y-108830000D01*
X68850000Y-108430000D02*
X68850000Y-107330000D01*
X68850000Y-106930000D02*
X68850000Y-106930000D01*
X68850000Y-106530000D02*
X68850000Y-105850000D01*
%TO.C,U12*%
X68850000Y-86970000D02*
X69950000Y-86970000D01*
X70350000Y-86970000D02*
X70350000Y-86970000D01*
X70750000Y-86970000D02*
X71850000Y-86970000D01*
X72250000Y-86970000D02*
X72250000Y-86970000D01*
X72650000Y-86970000D02*
X73750000Y-86970000D01*
X74150000Y-86970000D02*
X74150000Y-86970000D01*
X74550000Y-86970000D02*
X75650000Y-86970000D01*
X76050000Y-86970000D02*
X76050000Y-86970000D01*
X76450000Y-86970000D02*
X77550000Y-86970000D01*
X77950000Y-86970000D02*
X77950000Y-86970000D01*
X78350000Y-86970000D02*
X79450000Y-86970000D01*
X79850000Y-86970000D02*
X79850000Y-86970000D01*
X80250000Y-86970000D02*
X81350000Y-86970000D01*
X81750000Y-86970000D02*
X81750000Y-86970000D01*
X82150000Y-86970000D02*
X83250000Y-86970000D01*
X83650000Y-86970000D02*
X83650000Y-86970000D01*
X84050000Y-86970000D02*
X85150000Y-86970000D01*
X85550000Y-86970000D02*
X85550000Y-86970000D01*
X85950000Y-86970000D02*
X86630000Y-86970000D01*
X86630000Y-86970000D02*
X86630000Y-88070000D01*
X86630000Y-88470000D02*
X86630000Y-88470000D01*
X86630000Y-88870000D02*
X86630000Y-89970000D01*
X86630000Y-90370000D02*
X86630000Y-90370000D01*
X86630000Y-90770000D02*
X86630000Y-91870000D01*
X86630000Y-92270000D02*
X86630000Y-92270000D01*
X86630000Y-92670000D02*
X86630000Y-93770000D01*
X86630000Y-94170000D02*
X86630000Y-94170000D01*
X86630000Y-94570000D02*
X86630000Y-95670000D01*
X86630000Y-96070000D02*
X86630000Y-96070000D01*
X86630000Y-96470000D02*
X86630000Y-97570000D01*
X86630000Y-97970000D02*
X86630000Y-97970000D01*
X86630000Y-98370000D02*
X86630000Y-99470000D01*
X86630000Y-99870000D02*
X86630000Y-99870000D01*
X86630000Y-100270000D02*
X86630000Y-101370000D01*
X86630000Y-101770000D02*
X86630000Y-101770000D01*
X86630000Y-102170000D02*
X86630000Y-103270000D01*
X86630000Y-103670000D02*
X86630000Y-103670000D01*
X86630000Y-104070000D02*
X86630000Y-104750000D01*
X86630000Y-104750000D02*
X85530000Y-104750000D01*
X85130000Y-104750000D02*
X85130000Y-104750000D01*
X84730000Y-104750000D02*
X83630000Y-104750000D01*
X83230000Y-104750000D02*
X83230000Y-104750000D01*
X82830000Y-104750000D02*
X81730000Y-104750000D01*
X81330000Y-104750000D02*
X81330000Y-104750000D01*
X80930000Y-104750000D02*
X79830000Y-104750000D01*
X79430000Y-104750000D02*
X79430000Y-104750000D01*
X79030000Y-104750000D02*
X77930000Y-104750000D01*
X77530000Y-104750000D02*
X77530000Y-104750000D01*
X77130000Y-104750000D02*
X76030000Y-104750000D01*
X75630000Y-104750000D02*
X75630000Y-104750000D01*
X75230000Y-104750000D02*
X74130000Y-104750000D01*
X73730000Y-104750000D02*
X73730000Y-104750000D01*
X73330000Y-104750000D02*
X72230000Y-104750000D01*
X71830000Y-104750000D02*
X71830000Y-104750000D01*
X71430000Y-104750000D02*
X70330000Y-104750000D01*
X69930000Y-104750000D02*
X69930000Y-104750000D01*
X69530000Y-104750000D02*
X68850000Y-104750000D01*
X68850000Y-104750000D02*
X68850000Y-103650000D01*
X68850000Y-103250000D02*
X68850000Y-103250000D01*
X68850000Y-102850000D02*
X68850000Y-101750000D01*
X68850000Y-101350000D02*
X68850000Y-101350000D01*
X68850000Y-100950000D02*
X68850000Y-99850000D01*
X68850000Y-99450000D02*
X68850000Y-99450000D01*
X68850000Y-99050000D02*
X68850000Y-97950000D01*
X68850000Y-97550000D02*
X68850000Y-97550000D01*
X68850000Y-97150000D02*
X68850000Y-96050000D01*
X68850000Y-95650000D02*
X68850000Y-95650000D01*
X68850000Y-95250000D02*
X68850000Y-94150000D01*
X68850000Y-93750000D02*
X68850000Y-93750000D01*
X68850000Y-93350000D02*
X68850000Y-92250000D01*
X68850000Y-91850000D02*
X68850000Y-91850000D01*
X68850000Y-91450000D02*
X68850000Y-90350000D01*
X68850000Y-89950000D02*
X68850000Y-89950000D01*
X68850000Y-89550000D02*
X68850000Y-88450000D01*
X68850000Y-88050000D02*
X68850000Y-88050000D01*
X68850000Y-87650000D02*
X68850000Y-86970000D01*
%TO.C,U9*%
X106610000Y-68090000D02*
X107710000Y-68090000D01*
X108110000Y-68090000D02*
X108110000Y-68090000D01*
X108510000Y-68090000D02*
X109610000Y-68090000D01*
X110010000Y-68090000D02*
X110010000Y-68090000D01*
X110410000Y-68090000D02*
X111510000Y-68090000D01*
X111910000Y-68090000D02*
X111910000Y-68090000D01*
X112310000Y-68090000D02*
X113410000Y-68090000D01*
X113810000Y-68090000D02*
X113810000Y-68090000D01*
X114210000Y-68090000D02*
X115310000Y-68090000D01*
X115710000Y-68090000D02*
X115710000Y-68090000D01*
X116110000Y-68090000D02*
X117210000Y-68090000D01*
X117610000Y-68090000D02*
X117610000Y-68090000D01*
X118010000Y-68090000D02*
X119110000Y-68090000D01*
X119510000Y-68090000D02*
X119510000Y-68090000D01*
X119910000Y-68090000D02*
X121010000Y-68090000D01*
X121410000Y-68090000D02*
X121410000Y-68090000D01*
X121810000Y-68090000D02*
X122910000Y-68090000D01*
X123310000Y-68090000D02*
X123310000Y-68090000D01*
X123710000Y-68090000D02*
X124390000Y-68090000D01*
X124390000Y-68090000D02*
X124390000Y-69190000D01*
X124390000Y-69590000D02*
X124390000Y-69590000D01*
X124390000Y-69990000D02*
X124390000Y-71090000D01*
X124390000Y-71490000D02*
X124390000Y-71490000D01*
X124390000Y-71890000D02*
X124390000Y-72990000D01*
X124390000Y-73390000D02*
X124390000Y-73390000D01*
X124390000Y-73790000D02*
X124390000Y-74890000D01*
X124390000Y-75290000D02*
X124390000Y-75290000D01*
X124390000Y-75690000D02*
X124390000Y-76790000D01*
X124390000Y-77190000D02*
X124390000Y-77190000D01*
X124390000Y-77590000D02*
X124390000Y-78690000D01*
X124390000Y-79090000D02*
X124390000Y-79090000D01*
X124390000Y-79490000D02*
X124390000Y-80590000D01*
X124390000Y-80990000D02*
X124390000Y-80990000D01*
X124390000Y-81390000D02*
X124390000Y-82490000D01*
X124390000Y-82890000D02*
X124390000Y-82890000D01*
X124390000Y-83290000D02*
X124390000Y-84390000D01*
X124390000Y-84790000D02*
X124390000Y-84790000D01*
X124390000Y-85190000D02*
X124390000Y-85870000D01*
X124390000Y-85870000D02*
X123290000Y-85870000D01*
X122890000Y-85870000D02*
X122890000Y-85870000D01*
X122490000Y-85870000D02*
X121390000Y-85870000D01*
X120990000Y-85870000D02*
X120990000Y-85870000D01*
X120590000Y-85870000D02*
X119490000Y-85870000D01*
X119090000Y-85870000D02*
X119090000Y-85870000D01*
X118690000Y-85870000D02*
X117590000Y-85870000D01*
X117190000Y-85870000D02*
X117190000Y-85870000D01*
X116790000Y-85870000D02*
X115690000Y-85870000D01*
X115290000Y-85870000D02*
X115290000Y-85870000D01*
X114890000Y-85870000D02*
X113790000Y-85870000D01*
X113390000Y-85870000D02*
X113390000Y-85870000D01*
X112990000Y-85870000D02*
X111890000Y-85870000D01*
X111490000Y-85870000D02*
X111490000Y-85870000D01*
X111090000Y-85870000D02*
X109990000Y-85870000D01*
X109590000Y-85870000D02*
X109590000Y-85870000D01*
X109190000Y-85870000D02*
X108090000Y-85870000D01*
X107690000Y-85870000D02*
X107690000Y-85870000D01*
X107290000Y-85870000D02*
X106610000Y-85870000D01*
X106610000Y-85870000D02*
X106610000Y-84770000D01*
X106610000Y-84370000D02*
X106610000Y-84370000D01*
X106610000Y-83970000D02*
X106610000Y-82870000D01*
X106610000Y-82470000D02*
X106610000Y-82470000D01*
X106610000Y-82070000D02*
X106610000Y-80970000D01*
X106610000Y-80570000D02*
X106610000Y-80570000D01*
X106610000Y-80170000D02*
X106610000Y-79070000D01*
X106610000Y-78670000D02*
X106610000Y-78670000D01*
X106610000Y-78270000D02*
X106610000Y-77170000D01*
X106610000Y-76770000D02*
X106610000Y-76770000D01*
X106610000Y-76370000D02*
X106610000Y-75270000D01*
X106610000Y-74870000D02*
X106610000Y-74870000D01*
X106610000Y-74470000D02*
X106610000Y-73370000D01*
X106610000Y-72970000D02*
X106610000Y-72970000D01*
X106610000Y-72570000D02*
X106610000Y-71470000D01*
X106610000Y-71070000D02*
X106610000Y-71070000D01*
X106610000Y-70670000D02*
X106610000Y-69570000D01*
X106610000Y-69170000D02*
X106610000Y-69170000D01*
X106610000Y-68770000D02*
X106610000Y-68090000D01*
%TD*%
D11*
%TO.C,H8*%
X16000000Y-72170000D03*
%TD*%
D12*
%TO.C,U7*%
X82680000Y-76820000D03*
X72520000Y-76820000D03*
%TD*%
%TO.C,U6*%
X53640000Y-76820000D03*
X63800000Y-76820000D03*
%TD*%
D11*
%TO.C,H3*%
X127760000Y-16300000D03*
%TD*%
D13*
%TO.C,D13*%
X114120000Y-121240000D03*
X116920000Y-121240000D03*
%TD*%
%TO.C,D11*%
X76340000Y-102360000D03*
X79140000Y-102360000D03*
%TD*%
%TO.C,D9*%
X114120000Y-102360000D03*
X116920000Y-102360000D03*
%TD*%
D11*
%TO.C,H2*%
X71860000Y-16320000D03*
%TD*%
D13*
%TO.C,D2*%
X76340000Y-64600000D03*
X79140000Y-64600000D03*
%TD*%
D12*
%TO.C,U4*%
X91400000Y-57940000D03*
X101560000Y-57940000D03*
%TD*%
D11*
%TO.C,H1*%
X15960000Y-16300000D03*
%TD*%
D13*
%TO.C,D7*%
X98020000Y-83480000D03*
X95220000Y-83480000D03*
%TD*%
%TO.C,D14*%
X98020000Y-121240000D03*
X95220000Y-121240000D03*
%TD*%
%TO.C,D12*%
X57480000Y-102360000D03*
X60280000Y-102360000D03*
%TD*%
%TO.C,D3*%
X95220000Y-64600000D03*
X98020000Y-64600000D03*
%TD*%
D11*
%TO.C,H6*%
X71880000Y-128090000D03*
%TD*%
D12*
%TO.C,U3*%
X72520000Y-57940000D03*
X82680000Y-57940000D03*
%TD*%
%TO.C,U2*%
X53640000Y-57940000D03*
X63800000Y-57940000D03*
%TD*%
D13*
%TO.C,D10*%
X95240000Y-102360000D03*
X98040000Y-102360000D03*
%TD*%
D11*
%TO.C,H7*%
X15950000Y-128080000D03*
%TD*%
D13*
%TO.C,D6*%
X79140000Y-83480000D03*
X76340000Y-83480000D03*
%TD*%
D12*
%TO.C,U17*%
X53640000Y-114580000D03*
X63800000Y-114580000D03*
%TD*%
D13*
%TO.C,D15*%
X76340000Y-121240000D03*
X79140000Y-121240000D03*
%TD*%
D12*
%TO.C,U8*%
X101560000Y-76820000D03*
X91400000Y-76820000D03*
%TD*%
D14*
%TO.C,C1*%
X26600000Y-68600000D03*
X26600000Y-73600000D03*
%TD*%
D12*
%TO.C,U10*%
X110280000Y-95700000D03*
X120440000Y-95700000D03*
%TD*%
%TO.C,U14*%
X110280000Y-114580000D03*
X120440000Y-114580000D03*
%TD*%
D11*
%TO.C,H5*%
X127740000Y-128050000D03*
%TD*%
D12*
%TO.C,U13*%
X53640000Y-95700000D03*
X63800000Y-95700000D03*
%TD*%
D13*
%TO.C,D4*%
X114100000Y-64600000D03*
X116900000Y-64600000D03*
%TD*%
D12*
%TO.C,U11*%
X91400000Y-95700000D03*
X101560000Y-95700000D03*
%TD*%
D14*
%TO.C,C2*%
X24150000Y-73610000D03*
X24150000Y-68610000D03*
%TD*%
D12*
%TO.C,U15*%
X91400000Y-114580000D03*
X101560000Y-114580000D03*
%TD*%
D13*
%TO.C,D5*%
X57460000Y-83480000D03*
X60260000Y-83480000D03*
%TD*%
%TO.C,D16*%
X57460000Y-121240000D03*
X60260000Y-121240000D03*
%TD*%
D11*
%TO.C,H4*%
X127740000Y-72190000D03*
%TD*%
D12*
%TO.C,U5*%
X110280000Y-57940000D03*
X120440000Y-57940000D03*
%TD*%
D15*
%TO.C,U1*%
X42805000Y-66730000D03*
X41535000Y-66730000D03*
X40265000Y-66730000D03*
X38995000Y-66730000D03*
X37725000Y-66730000D03*
X36455000Y-66730000D03*
X35185000Y-66730000D03*
X33915000Y-66730000D03*
X32645000Y-66730000D03*
X31375000Y-66730000D03*
X30105000Y-66730000D03*
X28835000Y-66730000D03*
X28835000Y-76030000D03*
X30105000Y-76030000D03*
X31375000Y-76030000D03*
X32645000Y-76030000D03*
X33915000Y-76030000D03*
X35185000Y-76030000D03*
X36455000Y-76030000D03*
X37725000Y-76030000D03*
X38995000Y-76030000D03*
X40265000Y-76030000D03*
X41535000Y-76030000D03*
X42805000Y-76030000D03*
%TD*%
D13*
%TO.C,D1*%
X57460000Y-64600000D03*
X60260000Y-64600000D03*
%TD*%
D12*
%TO.C,U16*%
X72520000Y-114580000D03*
X82680000Y-114580000D03*
%TD*%
D16*
%TO.C,SW1*%
X86350000Y-24050000D03*
D17*
X83850000Y-24050000D03*
X81350000Y-24050000D03*
X86350000Y-20750000D03*
X83850000Y-20750000D03*
X81350000Y-20750000D03*
%TD*%
D18*
%TO.C,BT1*%
X49790000Y-38140000D03*
D19*
X121790000Y-38140000D03*
D20*
X57535000Y-38140000D03*
X113145000Y-38140000D03*
%TD*%
D12*
%TO.C,U12*%
X72520000Y-95700000D03*
X82680000Y-95700000D03*
%TD*%
D13*
%TO.C,D8*%
X114100000Y-83480000D03*
X116900000Y-83480000D03*
%TD*%
D12*
%TO.C,U9*%
X120440000Y-76820000D03*
X110280000Y-76820000D03*
%TD*%
M02*
