M48
; DRILL file {KiCad 7.0.9} date Sun May 12 14:32:31 2024
; FORMAT={-:-/ absolute / inch / decimal}
; #@! TF.CreationDate,2024-05-12T14:32:31+05:30
; #@! TF.GenerationSoftware,Kicad,Pcbnew,7.0.9
; #@! TF.FileFunction,NonPlated,1,2,NPTH
FMAT,2
INCH
; #@! TA.AperFunction,NonPlated,NPTH,ComponentDrill
T1C0.0669
; #@! TA.AperFunction,NonPlated,NPTH,ComponentDrill
T2C0.0984
; #@! TA.AperFunction,NonPlated,NPTH,ComponentDrill
T3C0.1260
%
G90
G05
T1
X2.1118Y-2.2811
X2.1118Y-3.0244
X2.1118Y-3.7677
X2.1118Y-4.511
X2.5118Y-2.2811
X2.5118Y-3.0244
X2.5118Y-3.7677
X2.5118Y-4.511
X2.8551Y-2.2811
X2.8551Y-3.0244
X2.8551Y-3.7677
X2.8551Y-4.511
X3.2551Y-2.2811
X3.2551Y-3.0244
X3.2551Y-3.7677
X3.2551Y-4.511
X3.5984Y-2.2811
X3.5984Y-3.0244
X3.5984Y-3.7677
X3.5984Y-4.511
X3.9984Y-2.2811
X3.9984Y-3.0244
X3.9984Y-3.7677
X3.9984Y-4.511
X4.3417Y-2.2811
X4.3417Y-3.0244
X4.3417Y-3.7677
X4.3417Y-4.511
X4.7417Y-2.2811
X4.7417Y-3.0244
X4.7417Y-3.7677
X4.7417Y-4.511
T2
X0.628Y-5.0425
X0.6283Y-0.6417
X0.6299Y-2.8413
X2.8291Y-0.6425
X2.8299Y-5.0429
X5.0291Y-2.8421
X5.0291Y-5.0413
X5.0299Y-0.6417
T3
X2.2652Y-1.5016
X4.4545Y-1.5016
T0
M30
