  0
SECTION
  2
HEADER
  9
$ACADVER
  1
AC1009
  9
$FILLMODE
 70
 0
  9
$SPLFRAME
 70
 1
  9
$EXTMIN
 10
0
 20
0
 30
0.0
  9
$EXTMAX
 10
1058.33
 20
1058.33
 30
0.0
  0
ENDSEC
  0
SECTION
  2
TABLES
  0
TABLE
  2
LAYER
 70
1
  0
LAYER
  2
0
 70
     0
 62
     7
  6
CONTINUOUS
  0
ENDTAB
  0
ENDSEC
  0
SECTION
  2
ENTITIES
  0
LINE
  8
0
 62
     0
 10
113.371
 20
114.91
 30
0.0
 11
113.488
 21
114.906
 31
0.0
  0
LINE
  8
0
 62
     0
 10
113.488
 20
114.906
 30
0.0
 11
113.605
 21
114.893
 31
0.0
  0
LINE
  8
0
 62
     0
 10
113.605
 20
114.893
 30
0.0
 11
113.721
 21
114.869
 31
0.0
  0
LINE
  8
0
 62
     0
 10
113.721
 20
114.869
 30
0.0
 11
113.834
 21
114.837
 31
0.0
  0
LINE
  8
0
 62
     0
 10
113.834
 20
114.837
 30
0.0
 11
113.946
 21
114.796
 31
0.0
  0
LINE
  8
0
 62
     0
 10
113.946
 20
114.796
 30
0.0
 11
114.052
 21
114.747
 31
0.0
  0
LINE
  8
0
 62
     0
 10
114.052
 20
114.747
 30
0.0
 11
114.154
 21
114.689
 31
0.0
  0
LINE
  8
0
 62
     0
 10
114.154
 20
114.689
 30
0.0
 11
114.253
 21
114.624
 31
0.0
  0
LINE
  8
0
 62
     0
 10
114.253
 20
114.624
 30
0.0
 11
114.346
 21
114.551
 31
0.0
  0
LINE
  8
0
 62
     0
 10
114.346
 20
114.551
 30
0.0
 11
114.431
 21
114.471
 31
0.0
  0
LINE
  8
0
 62
     0
 10
114.431
 20
114.471
 30
0.0
 11
114.511
 21
114.385
 31
0.0
  0
LINE
  8
0
 62
     0
 10
114.511
 20
114.385
 30
0.0
 11
114.584
 21
114.292
 31
0.0
  0
LINE
  8
0
 62
     0
 10
114.584
 20
114.292
 30
0.0
 11
114.65
 21
114.194
 31
0.0
  0
LINE
  8
0
 62
     0
 10
114.65
 20
114.194
 30
0.0
 11
114.708
 21
114.09
 31
0.0
  0
LINE
  8
0
 62
     0
 10
114.708
 20
114.09
 30
0.0
 11
114.756
 21
113.984
 31
0.0
  0
LINE
  8
0
 62
     0
 10
114.756
 20
113.984
 30
0.0
 11
114.797
 21
113.874
 31
0.0
  0
LINE
  8
0
 62
     0
 10
114.797
 20
113.874
 30
0.0
 11
114.829
 21
113.761
 31
0.0
  0
LINE
  8
0
 62
     0
 10
114.829
 20
113.761
 30
0.0
 11
114.852
 21
113.646
 31
0.0
  0
LINE
  8
0
 62
     0
 10
114.852
 20
113.646
 30
0.0
 11
114.866
 21
113.528
 31
0.0
  0
LINE
  8
0
 62
     0
 10
114.866
 20
113.528
 30
0.0
 11
114.872
 21
113.41
 31
0.0
  0
LINE
  8
0
 62
     0
 10
114.872
 20
113.41
 30
0.0
 11
114.872
 21
1.63435
 31
0.0
  0
LINE
  8
0
 62
     0
 10
114.872
 20
1.63435
 30
0.0
 11
114.866
 21
1.51722
 31
0.0
  0
LINE
  8
0
 62
     0
 10
114.866
 20
1.51722
 30
0.0
 11
114.852
 21
1.40009
 31
0.0
  0
LINE
  8
0
 62
     0
 10
114.852
 20
1.40009
 30
0.0
 11
114.829
 21
1.28433
 31
0.0
  0
LINE
  8
0
 62
     0
 10
114.829
 20
1.28433
 30
0.0
 11
114.797
 21
1.17133
 31
0.0
  0
LINE
  8
0
 62
     0
 10
114.797
 20
1.17133
 30
0.0
 11
114.756
 21
1.05971
 31
0.0
  0
LINE
  8
0
 62
     0
 10
114.756
 20
1.05971
 30
0.0
 11
114.708
 21
0.953604
 31
0.0
  0
LINE
  8
0
 62
     0
 10
114.708
 20
0.953604
 30
0.0
 11
114.65
 21
0.851627
 31
0.0
  0
LINE
  8
0
 62
     0
 10
114.65
 20
0.851627
 30
0.0
 11
114.584
 21
0.752408
 31
0.0
  0
LINE
  8
0
 62
     0
 10
114.584
 20
0.752408
 30
0.0
 11
114.511
 21
0.660079
 31
0.0
  0
LINE
  8
0
 62
     0
 10
114.511
 20
0.660079
 30
0.0
 11
114.431
 21
0.574643
 31
0.0
  0
LINE
  8
0
 62
     0
 10
114.431
 20
0.574643
 30
0.0
 11
114.346
 21
0.494714
 31
0.0
  0
LINE
  8
0
 62
     0
 10
114.346
 20
0.494714
 30
0.0
 11
114.253
 21
0.421679
 31
0.0
  0
LINE
  8
0
 62
     0
 10
114.253
 20
0.421679
 30
0.0
 11
114.154
 21
0.355533
 31
0.0
  0
LINE
  8
0
 62
     0
 10
114.154
 20
0.355533
 30
0.0
 11
114.052
 21
0.297656
 31
0.0
  0
LINE
  8
0
 62
     0
 10
114.052
 20
0.297656
 30
0.0
 11
113.946
 21
0.249425
 31
0.0
  0
LINE
  8
0
 62
     0
 10
113.946
 20
0.249425
 30
0.0
 11
113.834
 21
0.208084
 31
0.0
  0
LINE
  8
0
 62
     0
 10
113.834
 20
0.208084
 30
0.0
 11
113.721
 21
0.176389
 31
0.0
  0
LINE
  8
0
 62
     0
 10
113.721
 20
0.176389
 30
0.0
 11
113.605
 21
0.152962
 31
0.0
  0
LINE
  8
0
 62
     0
 10
113.605
 20
0.152962
 30
0.0
 11
113.488
 21
0.139182
 31
0.0
  0
LINE
  8
0
 62
     0
 10
113.488
 20
0.139182
 30
0.0
 11
113.37
 21
0.13367
 31
0.0
  0
LINE
  8
0
 62
     0
 10
113.37
 20
0.13367
 30
0.0
 11
1.59577
 21
0.13367
 31
0.0
  0
LINE
  8
0
 62
     0
 10
1.59577
 20
0.13367
 30
0.0
 11
1.47726
 21
0.139182
 31
0.0
  0
LINE
  8
0
 62
     0
 10
1.47726
 20
0.139182
 30
0.0
 11
1.36012
 21
0.152962
 31
0.0
  0
LINE
  8
0
 62
     0
 10
1.36012
 20
0.152962
 30
0.0
 11
1.24437
 21
0.176389
 31
0.0
  0
LINE
  8
0
 62
     0
 10
1.24437
 20
0.176389
 30
0.0
 11
1.13137
 21
0.208084
 31
0.0
  0
LINE
  8
0
 62
     0
 10
1.13137
 20
0.208084
 30
0.0
 11
1.02113
 21
0.249425
 31
0.0
  0
LINE
  8
0
 62
     0
 10
1.02113
 20
0.249425
 30
0.0
 11
0.915017
 21
0.297656
 31
0.0
  0
LINE
  8
0
 62
     0
 10
0.915017
 20
0.297656
 30
0.0
 11
0.811664
 21
0.355533
 31
0.0
  0
LINE
  8
0
 62
     0
 10
0.811664
 20
0.355533
 30
0.0
 11
0.713825
 21
0.421679
 31
0.0
  0
LINE
  8
0
 62
     0
 10
0.713825
 20
0.421679
 30
0.0
 11
0.620116
 21
0.494714
 31
0.0
  0
LINE
  8
0
 62
     0
 10
0.620116
 20
0.494714
 30
0.0
 11
0.534681
 21
0.574643
 31
0.0
  0
LINE
  8
0
 62
     0
 10
0.534681
 20
0.574643
 30
0.0
 11
0.454752
 21
0.660079
 31
0.0
  0
LINE
  8
0
 62
     0
 10
0.454752
 20
0.660079
 30
0.0
 11
0.381716
 21
0.752408
 31
0.0
  0
LINE
  8
0
 62
     0
 10
0.381716
 20
0.752408
 30
0.0
 11
0.316949
 21
0.851627
 31
0.0
  0
LINE
  8
0
 62
     0
 10
0.316949
 20
0.851627
 30
0.0
 11
0.259071
 21
0.953604
 31
0.0
  0
LINE
  8
0
 62
     0
 10
0.259071
 20
0.953604
 30
0.0
 11
0.209462
 21
1.05971
 31
0.0
  0
LINE
  8
0
 62
     0
 10
0.209462
 20
1.05971
 30
0.0
 11
0.168121
 21
1.17133
 31
0.0
  0
LINE
  8
0
 62
     0
 10
0.168121
 20
1.17133
 30
0.0
 11
0.136426
 21
1.28433
 31
0.0
  0
LINE
  8
0
 62
     0
 10
0.136426
 20
1.28433
 30
0.0
 11
0.112999
 21
1.40009
 31
0.0
  0
LINE
  8
0
 62
     0
 10
0.112999
 20
1.40009
 30
0.0
 11
0.0992188
 21
1.51722
 31
0.0
  0
LINE
  8
0
 62
     0
 10
0.0992188
 20
1.51722
 30
0.0
 11
0.0950846
 21
1.63573
 31
0.0
  0
LINE
  8
0
 62
     0
 10
0.0950846
 20
1.63573
 30
0.0
 11
0.0950846
 21
113.41
 31
0.0
  0
LINE
  8
0
 62
     0
 10
0.0950846
 20
113.41
 30
0.0
 11
0.0992188
 21
113.528
 31
0.0
  0
LINE
  8
0
 62
     0
 10
0.0992188
 20
113.528
 30
0.0
 11
0.112999
 21
113.646
 31
0.0
  0
LINE
  8
0
 62
     0
 10
0.112999
 20
113.646
 30
0.0
 11
0.136426
 21
113.761
 31
0.0
  0
LINE
  8
0
 62
     0
 10
0.136426
 20
113.761
 30
0.0
 11
0.168121
 21
113.874
 31
0.0
  0
LINE
  8
0
 62
     0
 10
0.168121
 20
113.874
 30
0.0
 11
0.209462
 21
113.984
 31
0.0
  0
LINE
  8
0
 62
     0
 10
0.209462
 20
113.984
 30
0.0
 11
0.259071
 21
114.09
 31
0.0
  0
LINE
  8
0
 62
     0
 10
0.259071
 20
114.09
 30
0.0
 11
0.316949
 21
114.194
 31
0.0
  0
LINE
  8
0
 62
     0
 10
0.316949
 20
114.194
 30
0.0
 11
0.381716
 21
114.292
 31
0.0
  0
LINE
  8
0
 62
     0
 10
0.381716
 20
114.292
 30
0.0
 11
0.454752
 21
114.385
 31
0.0
  0
LINE
  8
0
 62
     0
 10
0.454752
 20
114.385
 30
0.0
 11
0.534681
 21
114.471
 31
0.0
  0
LINE
  8
0
 62
     0
 10
0.534681
 20
114.471
 30
0.0
 11
0.620116
 21
114.551
 31
0.0
  0
LINE
  8
0
 62
     0
 10
0.620116
 20
114.551
 30
0.0
 11
0.713825
 21
114.624
 31
0.0
  0
LINE
  8
0
 62
     0
 10
0.713825
 20
114.624
 30
0.0
 11
0.811664
 21
114.689
 31
0.0
  0
LINE
  8
0
 62
     0
 10
0.811664
 20
114.689
 30
0.0
 11
0.915017
 21
114.747
 31
0.0
  0
LINE
  8
0
 62
     0
 10
0.915017
 20
114.747
 30
0.0
 11
1.02113
 21
114.796
 31
0.0
  0
LINE
  8
0
 62
     0
 10
1.02113
 20
114.796
 30
0.0
 11
1.13137
 21
114.837
 31
0.0
  0
LINE
  8
0
 62
     0
 10
1.13137
 20
114.837
 30
0.0
 11
1.24437
 21
114.869
 31
0.0
  0
LINE
  8
0
 62
     0
 10
1.24437
 20
114.869
 30
0.0
 11
1.36012
 21
114.893
 31
0.0
  0
LINE
  8
0
 62
     0
 10
1.36012
 20
114.893
 30
0.0
 11
1.47726
 21
114.906
 31
0.0
  0
LINE
  8
0
 62
     0
 10
1.47726
 20
114.906
 30
0.0
 11
1.59577
 21
114.91
 31
0.0
  0
LINE
  8
0
 62
     0
 10
1.59577
 20
114.91
 30
0.0
 11
113.371
 21
114.91
 31
0.0
  0
LINE
  8
0
 62
     0
 10
112.984
 20
2.8236
 30
0.0
 11
112.637
 21
2.64583
 31
0.0
  0
LINE
  8
0
 62
     0
 10
112.637
 20
2.64583
 30
0.0
 11
112.36
 21
2.36885
 31
0.0
  0
LINE
  8
0
 62
     0
 10
112.36
 20
2.36885
 30
0.0
 11
112.182
 21
2.02158
 31
0.0
  0
LINE
  8
0
 62
     0
 10
112.182
 20
2.02158
 30
0.0
 11
112.12
 21
1.63435
 31
0.0
  0
LINE
  8
0
 62
     0
 10
112.12
 20
1.63435
 30
0.0
 11
112.182
 21
1.2485
 31
0.0
  0
LINE
  8
0
 62
     0
 10
112.182
 20
1.2485
 30
0.0
 11
112.36
 21
0.899859
 31
0.0
  0
LINE
  8
0
 62
     0
 10
112.36
 20
0.899859
 30
0.0
 11
112.637
 21
0.622875
 31
0.0
  0
LINE
  8
0
 62
     0
 10
112.637
 20
0.622875
 30
0.0
 11
112.984
 21
0.446486
 31
0.0
  0
LINE
  8
0
 62
     0
 10
112.984
 20
0.446486
 30
0.0
 11
113.371
 21
0.384471
 31
0.0
  0
LINE
  8
0
 62
     0
 10
113.371
 20
0.384471
 30
0.0
 11
113.757
 21
0.446486
 31
0.0
  0
LINE
  8
0
 62
     0
 10
113.757
 20
0.446486
 30
0.0
 11
114.106
 21
0.622875
 31
0.0
  0
LINE
  8
0
 62
     0
 10
114.106
 20
0.622875
 30
0.0
 11
114.383
 21
0.899859
 31
0.0
  0
LINE
  8
0
 62
     0
 10
114.383
 20
0.899859
 30
0.0
 11
114.559
 21
1.2485
 31
0.0
  0
LINE
  8
0
 62
     0
 10
114.559
 20
1.2485
 30
0.0
 11
114.621
 21
1.63435
 31
0.0
  0
LINE
  8
0
 62
     0
 10
114.621
 20
1.63435
 30
0.0
 11
114.559
 21
2.02158
 31
0.0
  0
LINE
  8
0
 62
     0
 10
114.559
 20
2.02158
 30
0.0
 11
114.383
 21
2.36885
 31
0.0
  0
LINE
  8
0
 62
     0
 10
114.383
 20
2.36885
 30
0.0
 11
114.106
 21
2.64583
 31
0.0
  0
LINE
  8
0
 62
     0
 10
114.106
 20
2.64583
 30
0.0
 11
113.757
 21
2.8236
 31
0.0
  0
LINE
  8
0
 62
     0
 10
113.757
 20
2.8236
 30
0.0
 11
113.371
 21
2.88423
 31
0.0
  0
LINE
  8
0
 62
     0
 10
113.371
 20
2.88423
 30
0.0
 11
112.984
 21
2.8236
 31
0.0
  0
LINE
  8
0
 62
     0
 10
57.0964
 20
2.8236
 30
0.0
 11
56.7489
 21
2.64583
 31
0.0
  0
LINE
  8
0
 62
     0
 10
56.7489
 20
2.64583
 30
0.0
 11
56.472
 21
2.36885
 31
0.0
  0
LINE
  8
0
 62
     0
 10
56.472
 20
2.36885
 30
0.0
 11
56.2942
 21
2.02158
 31
0.0
  0
LINE
  8
0
 62
     0
 10
56.2942
 20
2.02158
 30
0.0
 11
56.2335
 21
1.63435
 31
0.0
  0
LINE
  8
0
 62
     0
 10
56.2335
 20
1.63435
 30
0.0
 11
56.2942
 21
1.2485
 31
0.0
  0
LINE
  8
0
 62
     0
 10
56.2942
 20
1.2485
 30
0.0
 11
56.472
 21
0.899859
 31
0.0
  0
LINE
  8
0
 62
     0
 10
56.472
 20
0.899859
 30
0.0
 11
56.7489
 21
0.622875
 31
0.0
  0
LINE
  8
0
 62
     0
 10
56.7489
 20
0.622875
 30
0.0
 11
57.0964
 21
0.446486
 31
0.0
  0
LINE
  8
0
 62
     0
 10
57.0964
 20
0.446486
 30
0.0
 11
57.4834
 21
0.384471
 31
0.0
  0
LINE
  8
0
 62
     0
 10
57.4834
 20
0.384471
 30
0.0
 11
57.8693
 21
0.446486
 31
0.0
  0
LINE
  8
0
 62
     0
 10
57.8693
 20
0.446486
 30
0.0
 11
58.2179
 21
0.622875
 31
0.0
  0
LINE
  8
0
 62
     0
 10
58.2179
 20
0.622875
 30
0.0
 11
58.4951
 21
0.899859
 31
0.0
  0
LINE
  8
0
 62
     0
 10
58.4951
 20
0.899859
 30
0.0
 11
58.6715
 21
1.2485
 31
0.0
  0
LINE
  8
0
 62
     0
 10
58.6715
 20
1.2485
 30
0.0
 11
58.7333
 21
1.63435
 31
0.0
  0
LINE
  8
0
 62
     0
 10
58.7333
 20
1.63435
 30
0.0
 11
58.6715
 21
2.02158
 31
0.0
  0
LINE
  8
0
 62
     0
 10
58.6715
 20
2.02158
 30
0.0
 11
58.4951
 21
2.36885
 31
0.0
  0
LINE
  8
0
 62
     0
 10
58.4951
 20
2.36885
 30
0.0
 11
58.2179
 21
2.64583
 31
0.0
  0
LINE
  8
0
 62
     0
 10
58.2179
 20
2.64583
 30
0.0
 11
57.8693
 21
2.8236
 31
0.0
  0
LINE
  8
0
 62
     0
 10
57.8693
 20
2.8236
 30
0.0
 11
57.4834
 21
2.88423
 31
0.0
  0
LINE
  8
0
 62
     0
 10
57.4834
 20
2.88423
 30
0.0
 11
57.0964
 21
2.8236
 31
0.0
  0
LINE
  8
0
 62
     0
 10
1.20854
 20
2.8236
 30
0.0
 11
0.859896
 21
2.64583
 31
0.0
  0
LINE
  8
0
 62
     0
 10
0.859896
 20
2.64583
 30
0.0
 11
0.582909
 21
2.36885
 31
0.0
  0
LINE
  8
0
 62
     0
 10
0.582909
 20
2.36885
 30
0.0
 11
0.40652
 21
2.02158
 31
0.0
  0
LINE
  8
0
 62
     0
 10
0.40652
 20
2.02158
 30
0.0
 11
0.34451
 21
1.63435
 31
0.0
  0
LINE
  8
0
 62
     0
 10
0.34451
 20
1.63435
 30
0.0
 11
0.40652
 21
1.2485
 31
0.0
  0
LINE
  8
0
 62
     0
 10
0.40652
 20
1.2485
 30
0.0
 11
0.582909
 21
0.899859
 31
0.0
  0
LINE
  8
0
 62
     0
 10
0.582909
 20
0.899859
 30
0.0
 11
0.859896
 21
0.622875
 31
0.0
  0
LINE
  8
0
 62
     0
 10
0.859896
 20
0.622875
 30
0.0
 11
1.20854
 21
0.446486
 31
0.0
  0
LINE
  8
0
 62
     0
 10
1.20854
 20
0.446486
 30
0.0
 11
1.59577
 21
0.384471
 31
0.0
  0
LINE
  8
0
 62
     0
 10
1.59577
 20
0.384471
 30
0.0
 11
1.98162
 21
0.446486
 31
0.0
  0
LINE
  8
0
 62
     0
 10
1.98162
 20
0.446486
 30
0.0
 11
2.32888
 21
0.622875
 31
0.0
  0
LINE
  8
0
 62
     0
 10
2.32888
 20
0.622875
 30
0.0
 11
2.60587
 21
0.899859
 31
0.0
  0
LINE
  8
0
 62
     0
 10
2.60587
 20
0.899859
 30
0.0
 11
2.78364
 21
1.2485
 31
0.0
  0
LINE
  8
0
 62
     0
 10
2.78364
 20
1.2485
 30
0.0
 11
2.84565
 21
1.63435
 31
0.0
  0
LINE
  8
0
 62
     0
 10
2.84565
 20
1.63435
 30
0.0
 11
2.78364
 21
2.02158
 31
0.0
  0
LINE
  8
0
 62
     0
 10
2.78364
 20
2.02158
 30
0.0
 11
2.60587
 21
2.36885
 31
0.0
  0
LINE
  8
0
 62
     0
 10
2.60587
 20
2.36885
 30
0.0
 11
2.32888
 21
2.64583
 31
0.0
  0
LINE
  8
0
 62
     0
 10
2.32888
 20
2.64583
 30
0.0
 11
1.98162
 21
2.8236
 31
0.0
  0
LINE
  8
0
 62
     0
 10
1.98162
 20
2.8236
 30
0.0
 11
1.59577
 21
2.88423
 31
0.0
  0
LINE
  8
0
 62
     0
 10
1.59577
 20
2.88423
 30
0.0
 11
1.20854
 21
2.8236
 31
0.0
  0
LINE
  8
0
 62
     0
 10
3.09507
 20
111.911
 30
0.0
 11
111.872
 21
111.911
 31
0.0
  0
LINE
  8
0
 62
     0
 10
111.872
 20
111.911
 30
0.0
 11
111.872
 21
3.13366
 31
0.0
  0
LINE
  8
0
 62
     0
 10
111.872
 20
3.13366
 30
0.0
 11
3.09507
 21
3.13366
 31
0.0
  0
LINE
  8
0
 62
     0
 10
3.09507
 20
3.13366
 30
0.0
 11
3.09507
 21
111.911
 31
0.0
  0
LINE
  8
0
 62
     0
 10
112.984
 20
58.7114
 30
0.0
 11
112.637
 21
58.5336
 31
0.0
  0
LINE
  8
0
 62
     0
 10
112.637
 20
58.5336
 30
0.0
 11
112.36
 21
58.2567
 31
0.0
  0
LINE
  8
0
 62
     0
 10
112.36
 20
58.2567
 30
0.0
 11
112.182
 21
57.9092
 31
0.0
  0
LINE
  8
0
 62
     0
 10
112.182
 20
57.9092
 30
0.0
 11
112.12
 21
57.5222
 31
0.0
  0
LINE
  8
0
 62
     0
 10
112.12
 20
57.5222
 30
0.0
 11
112.182
 21
57.1362
 31
0.0
  0
LINE
  8
0
 62
     0
 10
112.182
 20
57.1362
 30
0.0
 11
112.36
 21
56.7877
 31
0.0
  0
LINE
  8
0
 62
     0
 10
112.36
 20
56.7877
 30
0.0
 11
112.637
 21
56.5108
 31
0.0
  0
LINE
  8
0
 62
     0
 10
112.637
 20
56.5108
 30
0.0
 11
112.984
 21
56.3344
 31
0.0
  0
LINE
  8
0
 62
     0
 10
112.984
 20
56.3344
 30
0.0
 11
113.371
 21
56.2723
 31
0.0
  0
LINE
  8
0
 62
     0
 10
113.371
 20
56.2723
 30
0.0
 11
113.757
 21
56.3344
 31
0.0
  0
LINE
  8
0
 62
     0
 10
113.757
 20
56.3344
 30
0.0
 11
114.106
 21
56.5108
 31
0.0
  0
LINE
  8
0
 62
     0
 10
114.106
 20
56.5108
 30
0.0
 11
114.383
 21
56.7877
 31
0.0
  0
LINE
  8
0
 62
     0
 10
114.383
 20
56.7877
 30
0.0
 11
114.559
 21
57.1362
 31
0.0
  0
LINE
  8
0
 62
     0
 10
114.559
 20
57.1362
 30
0.0
 11
114.621
 21
57.5222
 31
0.0
  0
LINE
  8
0
 62
     0
 10
114.621
 20
57.5222
 30
0.0
 11
114.559
 21
57.9092
 31
0.0
  0
LINE
  8
0
 62
     0
 10
114.559
 20
57.9092
 30
0.0
 11
114.383
 21
58.2567
 31
0.0
  0
LINE
  8
0
 62
     0
 10
114.383
 20
58.2567
 30
0.0
 11
114.106
 21
58.5336
 31
0.0
  0
LINE
  8
0
 62
     0
 10
114.106
 20
58.5336
 30
0.0
 11
113.757
 21
58.7114
 31
0.0
  0
LINE
  8
0
 62
     0
 10
113.757
 20
58.7114
 30
0.0
 11
113.371
 21
58.7721
 31
0.0
  0
LINE
  8
0
 62
     0
 10
113.371
 20
58.7721
 30
0.0
 11
112.984
 21
58.7114
 31
0.0
  0
LINE
  8
0
 62
     0
 10
1.20854
 20
58.7114
 30
0.0
 11
0.859896
 21
58.5336
 31
0.0
  0
LINE
  8
0
 62
     0
 10
0.859896
 20
58.5336
 30
0.0
 11
0.582909
 21
58.2567
 31
0.0
  0
LINE
  8
0
 62
     0
 10
0.582909
 20
58.2567
 30
0.0
 11
0.40652
 21
57.9092
 31
0.0
  0
LINE
  8
0
 62
     0
 10
0.40652
 20
57.9092
 30
0.0
 11
0.34451
 21
57.5222
 31
0.0
  0
LINE
  8
0
 62
     0
 10
0.34451
 20
57.5222
 30
0.0
 11
0.40652
 21
57.1362
 31
0.0
  0
LINE
  8
0
 62
     0
 10
0.40652
 20
57.1362
 30
0.0
 11
0.582909
 21
56.7877
 31
0.0
  0
LINE
  8
0
 62
     0
 10
0.582909
 20
56.7877
 30
0.0
 11
0.859896
 21
56.5108
 31
0.0
  0
LINE
  8
0
 62
     0
 10
0.859896
 20
56.5108
 30
0.0
 11
1.20854
 21
56.3344
 31
0.0
  0
LINE
  8
0
 62
     0
 10
1.20854
 20
56.3344
 30
0.0
 11
1.59577
 21
56.2723
 31
0.0
  0
LINE
  8
0
 62
     0
 10
1.59577
 20
56.2723
 30
0.0
 11
1.98162
 21
56.3344
 31
0.0
  0
LINE
  8
0
 62
     0
 10
1.98162
 20
56.3344
 30
0.0
 11
2.32888
 21
56.5108
 31
0.0
  0
LINE
  8
0
 62
     0
 10
2.32888
 20
56.5108
 30
0.0
 11
2.60587
 21
56.7877
 31
0.0
  0
LINE
  8
0
 62
     0
 10
2.60587
 20
56.7877
 30
0.0
 11
2.78364
 21
57.1362
 31
0.0
  0
LINE
  8
0
 62
     0
 10
2.78364
 20
57.1362
 30
0.0
 11
2.84565
 21
57.5222
 31
0.0
  0
LINE
  8
0
 62
     0
 10
2.84565
 20
57.5222
 30
0.0
 11
2.78364
 21
57.9092
 31
0.0
  0
LINE
  8
0
 62
     0
 10
2.78364
 20
57.9092
 30
0.0
 11
2.60587
 21
58.2567
 31
0.0
  0
LINE
  8
0
 62
     0
 10
2.60587
 20
58.2567
 30
0.0
 11
2.32888
 21
58.5336
 31
0.0
  0
LINE
  8
0
 62
     0
 10
2.32888
 20
58.5336
 30
0.0
 11
1.98162
 21
58.7114
 31
0.0
  0
LINE
  8
0
 62
     0
 10
1.98162
 20
58.7114
 30
0.0
 11
1.59577
 21
58.7721
 31
0.0
  0
LINE
  8
0
 62
     0
 10
1.59577
 20
58.7721
 30
0.0
 11
1.20854
 21
58.7114
 31
0.0
  0
LINE
  8
0
 62
     0
 10
57.0964
 20
114.599
 30
0.0
 11
56.7489
 21
114.423
 31
0.0
  0
LINE
  8
0
 62
     0
 10
56.7489
 20
114.423
 30
0.0
 11
56.472
 21
114.146
 31
0.0
  0
LINE
  8
0
 62
     0
 10
56.472
 20
114.146
 30
0.0
 11
56.2942
 21
113.797
 31
0.0
  0
LINE
  8
0
 62
     0
 10
56.2942
 20
113.797
 30
0.0
 11
56.2335
 21
113.41
 31
0.0
  0
LINE
  8
0
 62
     0
 10
56.2335
 20
113.41
 30
0.0
 11
56.2942
 21
113.024
 31
0.0
  0
LINE
  8
0
 62
     0
 10
56.2942
 20
113.024
 30
0.0
 11
56.472
 21
112.677
 31
0.0
  0
LINE
  8
0
 62
     0
 10
56.472
 20
112.677
 30
0.0
 11
56.7489
 21
112.4
 31
0.0
  0
LINE
  8
0
 62
     0
 10
56.7489
 20
112.4
 30
0.0
 11
57.0964
 21
112.222
 31
0.0
  0
LINE
  8
0
 62
     0
 10
57.0964
 20
112.222
 30
0.0
 11
57.4834
 21
112.16
 31
0.0
  0
LINE
  8
0
 62
     0
 10
57.4834
 20
112.16
 30
0.0
 11
57.8693
 21
112.222
 31
0.0
  0
LINE
  8
0
 62
     0
 10
57.8693
 20
112.222
 30
0.0
 11
58.2179
 21
112.4
 31
0.0
  0
LINE
  8
0
 62
     0
 10
58.2179
 20
112.4
 30
0.0
 11
58.4951
 21
112.677
 31
0.0
  0
LINE
  8
0
 62
     0
 10
58.4951
 20
112.677
 30
0.0
 11
58.6715
 21
113.024
 31
0.0
  0
LINE
  8
0
 62
     0
 10
58.6715
 20
113.024
 30
0.0
 11
58.7333
 21
113.41
 31
0.0
  0
LINE
  8
0
 62
     0
 10
58.7333
 20
113.41
 30
0.0
 11
58.6715
 21
113.797
 31
0.0
  0
LINE
  8
0
 62
     0
 10
58.6715
 20
113.797
 30
0.0
 11
58.4951
 21
114.146
 31
0.0
  0
LINE
  8
0
 62
     0
 10
58.4951
 20
114.146
 30
0.0
 11
58.2179
 21
114.423
 31
0.0
  0
LINE
  8
0
 62
     0
 10
58.2179
 20
114.423
 30
0.0
 11
57.8693
 21
114.599
 31
0.0
  0
LINE
  8
0
 62
     0
 10
57.8693
 20
114.599
 30
0.0
 11
57.4834
 21
114.66
 31
0.0
  0
LINE
  8
0
 62
     0
 10
57.4834
 20
114.66
 30
0.0
 11
57.0964
 21
114.599
 31
0.0
  0
LINE
  8
0
 62
     0
 10
112.984
 20
114.599
 30
0.0
 11
112.637
 21
114.423
 31
0.0
  0
LINE
  8
0
 62
     0
 10
112.637
 20
114.423
 30
0.0
 11
112.36
 21
114.146
 31
0.0
  0
LINE
  8
0
 62
     0
 10
112.36
 20
114.146
 30
0.0
 11
112.182
 21
113.797
 31
0.0
  0
LINE
  8
0
 62
     0
 10
112.182
 20
113.797
 30
0.0
 11
112.12
 21
113.41
 31
0.0
  0
LINE
  8
0
 62
     0
 10
112.12
 20
113.41
 30
0.0
 11
112.182
 21
113.024
 31
0.0
  0
LINE
  8
0
 62
     0
 10
112.182
 20
113.024
 30
0.0
 11
112.36
 21
112.677
 31
0.0
  0
LINE
  8
0
 62
     0
 10
112.36
 20
112.677
 30
0.0
 11
112.637
 21
112.4
 31
0.0
  0
LINE
  8
0
 62
     0
 10
112.637
 20
112.4
 30
0.0
 11
112.984
 21
112.222
 31
0.0
  0
LINE
  8
0
 62
     0
 10
112.984
 20
112.222
 30
0.0
 11
113.371
 21
112.16
 31
0.0
  0
LINE
  8
0
 62
     0
 10
113.371
 20
112.16
 30
0.0
 11
113.757
 21
112.222
 31
0.0
  0
LINE
  8
0
 62
     0
 10
113.757
 20
112.222
 30
0.0
 11
114.106
 21
112.4
 31
0.0
  0
LINE
  8
0
 62
     0
 10
114.106
 20
112.4
 30
0.0
 11
114.383
 21
112.677
 31
0.0
  0
LINE
  8
0
 62
     0
 10
114.383
 20
112.677
 30
0.0
 11
114.559
 21
113.024
 31
0.0
  0
LINE
  8
0
 62
     0
 10
114.559
 20
113.024
 30
0.0
 11
114.621
 21
113.41
 31
0.0
  0
LINE
  8
0
 62
     0
 10
114.621
 20
113.41
 30
0.0
 11
114.559
 21
113.797
 31
0.0
  0
LINE
  8
0
 62
     0
 10
114.559
 20
113.797
 30
0.0
 11
114.383
 21
114.146
 31
0.0
  0
LINE
  8
0
 62
     0
 10
114.383
 20
114.146
 30
0.0
 11
114.106
 21
114.423
 31
0.0
  0
LINE
  8
0
 62
     0
 10
114.106
 20
114.423
 30
0.0
 11
113.757
 21
114.599
 31
0.0
  0
LINE
  8
0
 62
     0
 10
113.757
 20
114.599
 30
0.0
 11
113.371
 21
114.66
 31
0.0
  0
LINE
  8
0
 62
     0
 10
113.371
 20
114.66
 30
0.0
 11
112.984
 21
114.599
 31
0.0
  0
LINE
  8
0
 62
     0
 10
1.20854
 20
114.599
 30
0.0
 11
0.859896
 21
114.423
 31
0.0
  0
LINE
  8
0
 62
     0
 10
0.859896
 20
114.423
 30
0.0
 11
0.582909
 21
114.146
 31
0.0
  0
LINE
  8
0
 62
     0
 10
0.582909
 20
114.146
 30
0.0
 11
0.40652
 21
113.797
 31
0.0
  0
LINE
  8
0
 62
     0
 10
0.40652
 20
113.797
 30
0.0
 11
0.34451
 21
113.41
 31
0.0
  0
LINE
  8
0
 62
     0
 10
0.34451
 20
113.41
 30
0.0
 11
0.40652
 21
113.024
 31
0.0
  0
LINE
  8
0
 62
     0
 10
0.40652
 20
113.024
 30
0.0
 11
0.582909
 21
112.677
 31
0.0
  0
LINE
  8
0
 62
     0
 10
0.582909
 20
112.677
 30
0.0
 11
0.859896
 21
112.4
 31
0.0
  0
LINE
  8
0
 62
     0
 10
0.859896
 20
112.4
 30
0.0
 11
1.20854
 21
112.222
 31
0.0
  0
LINE
  8
0
 62
     0
 10
1.20854
 20
112.222
 30
0.0
 11
1.59577
 21
112.16
 31
0.0
  0
LINE
  8
0
 62
     0
 10
1.59577
 20
112.16
 30
0.0
 11
1.98162
 21
112.222
 31
0.0
  0
LINE
  8
0
 62
     0
 10
1.98162
 20
112.222
 30
0.0
 11
2.32888
 21
112.4
 31
0.0
  0
LINE
  8
0
 62
     0
 10
2.32888
 20
112.4
 30
0.0
 11
2.60587
 21
112.677
 31
0.0
  0
LINE
  8
0
 62
     0
 10
2.60587
 20
112.677
 30
0.0
 11
2.78364
 21
113.024
 31
0.0
  0
LINE
  8
0
 62
     0
 10
2.78364
 20
113.024
 30
0.0
 11
2.84565
 21
113.41
 31
0.0
  0
LINE
  8
0
 62
     0
 10
2.84565
 20
113.41
 30
0.0
 11
2.78364
 21
113.797
 31
0.0
  0
LINE
  8
0
 62
     0
 10
2.78364
 20
113.797
 30
0.0
 11
2.60587
 21
114.146
 31
0.0
  0
LINE
  8
0
 62
     0
 10
2.60587
 20
114.146
 30
0.0
 11
2.32888
 21
114.423
 31
0.0
  0
LINE
  8
0
 62
     0
 10
2.32888
 20
114.423
 30
0.0
 11
1.98162
 21
114.599
 31
0.0
  0
LINE
  8
0
 62
     0
 10
1.98162
 20
114.599
 30
0.0
 11
1.59577
 21
114.66
 31
0.0
  0
LINE
  8
0
 62
     0
 10
1.59577
 20
114.66
 30
0.0
 11
1.20854
 21
114.599
 31
0.0
  0
ENDSEC
  0
EOF
