  0
SECTION
  2
HEADER
  9
$ACADVER
  1
AC1009
  9
$FILLMODE
 70
 0
  9
$SPLFRAME
 70
 1
  9
$EXTMIN
 10
0
 20
0
 30
0.0
  9
$EXTMAX
 10
1058.33
 20
1058.33
 30
0.0
  0
ENDSEC
  0
SECTION
  2
TABLES
  0
TABLE
  2
LAYER
 70
1
  0
LAYER
  2
0
 70
     0
 62
     7
  6
CONTINUOUS
  0
ENDTAB
  0
ENDSEC
  0
SECTION
  2
ENTITIES
  0
LINE
  8
0
 62
     0
 10
115.372
 20
117.027
 30
0.0
 11
115.488
 21
117.023
 31
0.0
  0
LINE
  8
0
 62
     0
 10
115.488
 20
117.023
 30
0.0
 11
115.605
 21
117.009
 31
0.0
  0
LINE
  8
0
 62
     0
 10
115.605
 20
117.009
 30
0.0
 11
115.722
 21
116.986
 31
0.0
  0
LINE
  8
0
 62
     0
 10
115.722
 20
116.986
 30
0.0
 11
115.835
 21
116.954
 31
0.0
  0
LINE
  8
0
 62
     0
 10
115.835
 20
116.954
 30
0.0
 11
115.945
 21
116.913
 31
0.0
  0
LINE
  8
0
 62
     0
 10
115.945
 20
116.913
 30
0.0
 11
116.052
 21
116.863
 31
0.0
  0
LINE
  8
0
 62
     0
 10
116.052
 20
116.863
 30
0.0
 11
116.155
 21
116.805
 31
0.0
  0
LINE
  8
0
 62
     0
 10
116.155
 20
116.805
 30
0.0
 11
116.253
 21
116.741
 31
0.0
  0
LINE
  8
0
 62
     0
 10
116.253
 20
116.741
 30
0.0
 11
116.345
 21
116.667
 31
0.0
  0
LINE
  8
0
 62
     0
 10
116.345
 20
116.667
 30
0.0
 11
116.432
 21
116.587
 31
0.0
  0
LINE
  8
0
 62
     0
 10
116.432
 20
116.587
 30
0.0
 11
116.512
 21
116.502
 31
0.0
  0
LINE
  8
0
 62
     0
 10
116.512
 20
116.502
 30
0.0
 11
116.585
 21
116.409
 31
0.0
  0
LINE
  8
0
 62
     0
 10
116.585
 20
116.409
 30
0.0
 11
116.65
 21
116.31
 31
0.0
  0
LINE
  8
0
 62
     0
 10
116.65
 20
116.31
 30
0.0
 11
116.707
 21
116.207
 31
0.0
  0
LINE
  8
0
 62
     0
 10
116.707
 20
116.207
 30
0.0
 11
116.757
 21
116.101
 31
0.0
  0
LINE
  8
0
 62
     0
 10
116.757
 20
116.101
 30
0.0
 11
116.797
 21
115.991
 31
0.0
  0
LINE
  8
0
 62
     0
 10
116.797
 20
115.991
 30
0.0
 11
116.83
 21
115.878
 31
0.0
  0
LINE
  8
0
 62
     0
 10
116.83
 20
115.878
 30
0.0
 11
116.852
 21
115.762
 31
0.0
  0
LINE
  8
0
 62
     0
 10
116.852
 20
115.762
 30
0.0
 11
116.866
 21
115.645
 31
0.0
  0
LINE
  8
0
 62
     0
 10
116.866
 20
115.645
 30
0.0
 11
116.871
 21
115.527
 31
0.0
  0
LINE
  8
0
 62
     0
 10
116.871
 20
115.527
 30
0.0
 11
116.871
 21
1.75011
 31
0.0
  0
LINE
  8
0
 62
     0
 10
116.871
 20
1.75011
 30
0.0
 11
116.866
 21
1.63435
 31
0.0
  0
LINE
  8
0
 62
     0
 10
116.866
 20
1.63435
 30
0.0
 11
116.852
 21
1.51722
 31
0.0
  0
LINE
  8
0
 62
     0
 10
116.852
 20
1.51722
 30
0.0
 11
116.83
 21
1.40009
 31
0.0
  0
LINE
  8
0
 62
     0
 10
116.83
 20
1.40009
 30
0.0
 11
116.797
 21
1.28709
 31
0.0
  0
LINE
  8
0
 62
     0
 10
116.797
 20
1.28709
 30
0.0
 11
116.757
 21
1.17685
 31
0.0
  0
LINE
  8
0
 62
     0
 10
116.757
 20
1.17685
 30
0.0
 11
116.707
 21
1.07074
 31
0.0
  0
LINE
  8
0
 62
     0
 10
116.707
 20
1.07074
 30
0.0
 11
116.65
 21
0.967384
 31
0.0
  0
LINE
  8
0
 62
     0
 10
116.65
 20
0.967384
 30
0.0
 11
116.585
 21
0.869541
 31
0.0
  0
LINE
  8
0
 62
     0
 10
116.585
 20
0.869541
 30
0.0
 11
116.512
 21
0.777215
 31
0.0
  0
LINE
  8
0
 62
     0
 10
116.512
 20
0.777215
 30
0.0
 11
116.432
 21
0.690397
 31
0.0
  0
LINE
  8
0
 62
     0
 10
116.432
 20
0.690397
 30
0.0
 11
116.345
 21
0.610471
 31
0.0
  0
LINE
  8
0
 62
     0
 10
116.345
 20
0.610471
 30
0.0
 11
116.253
 21
0.537436
 31
0.0
  0
LINE
  8
0
 62
     0
 10
116.253
 20
0.537436
 30
0.0
 11
116.155
 21
0.472666
 31
0.0
  0
LINE
  8
0
 62
     0
 10
116.155
 20
0.472666
 30
0.0
 11
116.052
 21
0.414789
 31
0.0
  0
LINE
  8
0
 62
     0
 10
116.052
 20
0.414789
 30
0.0
 11
115.945
 21
0.365181
 31
0.0
  0
LINE
  8
0
 62
     0
 10
115.945
 20
0.365181
 30
0.0
 11
115.835
 21
0.325217
 31
0.0
  0
LINE
  8
0
 62
     0
 10
115.835
 20
0.325217
 30
0.0
 11
115.722
 21
0.292144
 31
0.0
  0
LINE
  8
0
 62
     0
 10
115.722
 20
0.292144
 30
0.0
 11
115.605
 21
0.270095
 31
0.0
  0
LINE
  8
0
 62
     0
 10
115.605
 20
0.270095
 30
0.0
 11
115.488
 21
0.256315
 31
0.0
  0
LINE
  8
0
 62
     0
 10
115.488
 20
0.256315
 30
0.0
 11
115.371
 21
0.250803
 31
0.0
  0
LINE
  8
0
 62
     0
 10
115.371
 20
0.250803
 30
0.0
 11
1.59577
 21
0.250803
 31
0.0
  0
LINE
  8
0
 62
     0
 10
1.59577
 20
0.250803
 30
0.0
 11
1.47726
 21
0.256315
 31
0.0
  0
LINE
  8
0
 62
     0
 10
1.47726
 20
0.256315
 30
0.0
 11
1.36012
 21
0.270095
 31
0.0
  0
LINE
  8
0
 62
     0
 10
1.36012
 20
0.270095
 30
0.0
 11
1.24437
 21
0.292144
 31
0.0
  0
LINE
  8
0
 62
     0
 10
1.24437
 20
0.292144
 30
0.0
 11
1.13137
 21
0.325217
 31
0.0
  0
LINE
  8
0
 62
     0
 10
1.13137
 20
0.325217
 30
0.0
 11
1.02113
 21
0.365181
 31
0.0
  0
LINE
  8
0
 62
     0
 10
1.02113
 20
0.365181
 30
0.0
 11
0.915017
 21
0.414789
 31
0.0
  0
LINE
  8
0
 62
     0
 10
0.915017
 20
0.414789
 30
0.0
 11
0.811664
 21
0.472666
 31
0.0
  0
LINE
  8
0
 62
     0
 10
0.811664
 20
0.472666
 30
0.0
 11
0.713825
 21
0.537436
 31
0.0
  0
LINE
  8
0
 62
     0
 10
0.713825
 20
0.537436
 30
0.0
 11
0.620116
 21
0.610471
 31
0.0
  0
LINE
  8
0
 62
     0
 10
0.620116
 20
0.610471
 30
0.0
 11
0.534681
 21
0.690397
 31
0.0
  0
LINE
  8
0
 62
     0
 10
0.534681
 20
0.690397
 30
0.0
 11
0.454752
 21
0.777215
 31
0.0
  0
LINE
  8
0
 62
     0
 10
0.454752
 20
0.777215
 30
0.0
 11
0.381716
 21
0.869541
 31
0.0
  0
LINE
  8
0
 62
     0
 10
0.381716
 20
0.869541
 30
0.0
 11
0.316949
 21
0.967384
 31
0.0
  0
LINE
  8
0
 62
     0
 10
0.316949
 20
0.967384
 30
0.0
 11
0.259071
 21
1.07074
 31
0.0
  0
LINE
  8
0
 62
     0
 10
0.259071
 20
1.07074
 30
0.0
 11
0.209462
 21
1.17685
 31
0.0
  0
LINE
  8
0
 62
     0
 10
0.209462
 20
1.17685
 30
0.0
 11
0.168121
 21
1.28709
 31
0.0
  0
LINE
  8
0
 62
     0
 10
0.168121
 20
1.28709
 30
0.0
 11
0.136426
 21
1.40009
 31
0.0
  0
LINE
  8
0
 62
     0
 10
0.136426
 20
1.40009
 30
0.0
 11
0.112999
 21
1.51722
 31
0.0
  0
LINE
  8
0
 62
     0
 10
0.112999
 20
1.51722
 30
0.0
 11
0.0992188
 21
1.63435
 31
0.0
  0
LINE
  8
0
 62
     0
 10
0.0992188
 20
1.63435
 30
0.0
 11
0.0950846
 21
1.75149
 31
0.0
  0
LINE
  8
0
 62
     0
 10
0.0950846
 20
1.75149
 30
0.0
 11
0.0950846
 21
115.527
 31
0.0
  0
LINE
  8
0
 62
     0
 10
0.0950846
 20
115.527
 30
0.0
 11
0.0992188
 21
115.645
 31
0.0
  0
LINE
  8
0
 62
     0
 10
0.0992188
 20
115.645
 30
0.0
 11
0.112999
 21
115.762
 31
0.0
  0
LINE
  8
0
 62
     0
 10
0.112999
 20
115.762
 30
0.0
 11
0.136426
 21
115.878
 31
0.0
  0
LINE
  8
0
 62
     0
 10
0.136426
 20
115.878
 30
0.0
 11
0.168121
 21
115.991
 31
0.0
  0
LINE
  8
0
 62
     0
 10
0.168121
 20
115.991
 30
0.0
 11
0.209462
 21
116.101
 31
0.0
  0
LINE
  8
0
 62
     0
 10
0.209462
 20
116.101
 30
0.0
 11
0.259071
 21
116.207
 31
0.0
  0
LINE
  8
0
 62
     0
 10
0.259071
 20
116.207
 30
0.0
 11
0.316949
 21
116.31
 31
0.0
  0
LINE
  8
0
 62
     0
 10
0.316949
 20
116.31
 30
0.0
 11
0.381716
 21
116.409
 31
0.0
  0
LINE
  8
0
 62
     0
 10
0.381716
 20
116.409
 30
0.0
 11
0.454752
 21
116.502
 31
0.0
  0
LINE
  8
0
 62
     0
 10
0.454752
 20
116.502
 30
0.0
 11
0.534681
 21
116.587
 31
0.0
  0
LINE
  8
0
 62
     0
 10
0.534681
 20
116.587
 30
0.0
 11
0.620116
 21
116.667
 31
0.0
  0
LINE
  8
0
 62
     0
 10
0.620116
 20
116.667
 30
0.0
 11
0.713825
 21
116.741
 31
0.0
  0
LINE
  8
0
 62
     0
 10
0.713825
 20
116.741
 30
0.0
 11
0.811664
 21
116.805
 31
0.0
  0
LINE
  8
0
 62
     0
 10
0.811664
 20
116.805
 30
0.0
 11
0.915017
 21
116.863
 31
0.0
  0
LINE
  8
0
 62
     0
 10
0.915017
 20
116.863
 30
0.0
 11
1.02113
 21
116.913
 31
0.0
  0
LINE
  8
0
 62
     0
 10
1.02113
 20
116.913
 30
0.0
 11
1.13137
 21
116.954
 31
0.0
  0
LINE
  8
0
 62
     0
 10
1.13137
 20
116.954
 30
0.0
 11
1.24437
 21
116.986
 31
0.0
  0
LINE
  8
0
 62
     0
 10
1.24437
 20
116.986
 30
0.0
 11
1.36012
 21
117.009
 31
0.0
  0
LINE
  8
0
 62
     0
 10
1.36012
 20
117.009
 30
0.0
 11
1.47726
 21
117.023
 31
0.0
  0
LINE
  8
0
 62
     0
 10
1.47726
 20
117.023
 30
0.0
 11
1.59577
 21
117.027
 31
0.0
  0
LINE
  8
0
 62
     0
 10
1.59577
 20
117.027
 30
0.0
 11
115.372
 21
117.027
 31
0.0
  0
LINE
  8
0
 62
     0
 10
113.484
 20
4.44003
 30
0.0
 11
113.137
 21
4.26226
 31
0.0
  0
LINE
  8
0
 62
     0
 10
113.137
 20
4.26226
 30
0.0
 11
112.86
 21
3.9853
 31
0.0
  0
LINE
  8
0
 62
     0
 10
112.86
 20
3.9853
 30
0.0
 11
112.682
 21
3.63802
 31
0.0
  0
LINE
  8
0
 62
     0
 10
112.682
 20
3.63802
 30
0.0
 11
112.62
 21
3.25079
 31
0.0
  0
LINE
  8
0
 62
     0
 10
112.62
 20
3.25079
 30
0.0
 11
112.682
 21
2.86494
 31
0.0
  0
LINE
  8
0
 62
     0
 10
112.682
 20
2.86494
 30
0.0
 11
112.86
 21
2.5163
 31
0.0
  0
LINE
  8
0
 62
     0
 10
112.86
 20
2.5163
 30
0.0
 11
113.137
 21
2.23931
 31
0.0
  0
LINE
  8
0
 62
     0
 10
113.137
 20
2.23931
 30
0.0
 11
113.484
 21
2.06292
 31
0.0
  0
LINE
  8
0
 62
     0
 10
113.484
 20
2.06292
 30
0.0
 11
113.871
 21
2.00091
 31
0.0
  0
LINE
  8
0
 62
     0
 10
113.871
 20
2.00091
 30
0.0
 11
114.257
 21
2.06292
 31
0.0
  0
LINE
  8
0
 62
     0
 10
114.257
 20
2.06292
 30
0.0
 11
114.606
 21
2.23931
 31
0.0
  0
LINE
  8
0
 62
     0
 10
114.606
 20
2.23931
 30
0.0
 11
114.883
 21
2.5163
 31
0.0
  0
LINE
  8
0
 62
     0
 10
114.883
 20
2.5163
 30
0.0
 11
115.059
 21
2.86494
 31
0.0
  0
LINE
  8
0
 62
     0
 10
115.059
 20
2.86494
 30
0.0
 11
115.121
 21
3.25079
 31
0.0
  0
LINE
  8
0
 62
     0
 10
115.121
 20
3.25079
 30
0.0
 11
115.059
 21
3.63802
 31
0.0
  0
LINE
  8
0
 62
     0
 10
115.059
 20
3.63802
 30
0.0
 11
114.883
 21
3.9853
 31
0.0
  0
LINE
  8
0
 62
     0
 10
114.883
 20
3.9853
 30
0.0
 11
114.606
 21
4.26226
 31
0.0
  0
LINE
  8
0
 62
     0
 10
114.606
 20
4.26226
 30
0.0
 11
114.257
 21
4.44003
 31
0.0
  0
LINE
  8
0
 62
     0
 10
114.257
 20
4.44003
 30
0.0
 11
113.871
 21
4.50067
 31
0.0
  0
LINE
  8
0
 62
     0
 10
113.871
 20
4.50067
 30
0.0
 11
113.484
 21
4.44003
 31
0.0
  0
LINE
  8
0
 62
     0
 10
58.0969
 20
4.44003
 30
0.0
 11
57.748
 21
4.26226
 31
0.0
  0
LINE
  8
0
 62
     0
 10
57.748
 20
4.26226
 30
0.0
 11
57.471
 21
3.9853
 31
0.0
  0
LINE
  8
0
 62
     0
 10
57.471
 20
3.9853
 30
0.0
 11
57.2946
 21
3.63802
 31
0.0
  0
LINE
  8
0
 62
     0
 10
57.2946
 20
3.63802
 30
0.0
 11
57.2325
 21
3.25079
 31
0.0
  0
LINE
  8
0
 62
     0
 10
57.2325
 20
3.25079
 30
0.0
 11
57.2946
 21
2.86494
 31
0.0
  0
LINE
  8
0
 62
     0
 10
57.2946
 20
2.86494
 30
0.0
 11
57.471
 21
2.5163
 31
0.0
  0
LINE
  8
0
 62
     0
 10
57.471
 20
2.5163
 30
0.0
 11
57.748
 21
2.23931
 31
0.0
  0
LINE
  8
0
 62
     0
 10
57.748
 20
2.23931
 30
0.0
 11
58.0969
 21
2.06292
 31
0.0
  0
LINE
  8
0
 62
     0
 10
58.0969
 20
2.06292
 30
0.0
 11
58.4824
 21
2.00091
 31
0.0
  0
LINE
  8
0
 62
     0
 10
58.4824
 20
2.00091
 30
0.0
 11
58.8698
 21
2.06292
 31
0.0
  0
LINE
  8
0
 62
     0
 10
58.8698
 20
2.06292
 30
0.0
 11
59.2169
 21
2.23931
 31
0.0
  0
LINE
  8
0
 62
     0
 10
59.2169
 20
2.23931
 30
0.0
 11
59.4942
 21
2.5163
 31
0.0
  0
LINE
  8
0
 62
     0
 10
59.4942
 20
2.5163
 30
0.0
 11
59.6706
 21
2.86494
 31
0.0
  0
LINE
  8
0
 62
     0
 10
59.6706
 20
2.86494
 30
0.0
 11
59.7337
 21
3.25079
 31
0.0
  0
LINE
  8
0
 62
     0
 10
59.7337
 20
3.25079
 30
0.0
 11
59.6706
 21
3.63802
 31
0.0
  0
LINE
  8
0
 62
     0
 10
59.6706
 20
3.63802
 30
0.0
 11
59.4942
 21
3.9853
 31
0.0
  0
LINE
  8
0
 62
     0
 10
59.4942
 20
3.9853
 30
0.0
 11
59.2169
 21
4.26226
 31
0.0
  0
LINE
  8
0
 62
     0
 10
59.2169
 20
4.26226
 30
0.0
 11
58.8698
 21
4.44003
 31
0.0
  0
LINE
  8
0
 62
     0
 10
58.8698
 20
4.44003
 30
0.0
 11
58.4839
 21
4.50067
 31
0.0
  0
LINE
  8
0
 62
     0
 10
58.4839
 20
4.50067
 30
0.0
 11
58.0969
 21
4.44003
 31
0.0
  0
LINE
  8
0
 62
     0
 10
2.70784
 20
4.44003
 30
0.0
 11
2.36058
 21
4.26226
 31
0.0
  0
LINE
  8
0
 62
     0
 10
2.36058
 20
4.26226
 30
0.0
 11
2.08359
 21
3.9853
 31
0.0
  0
LINE
  8
0
 62
     0
 10
2.08359
 20
3.9853
 30
0.0
 11
1.90583
 21
3.63802
 31
0.0
  0
LINE
  8
0
 62
     0
 10
1.90583
 20
3.63802
 30
0.0
 11
1.84381
 21
3.25079
 31
0.0
  0
LINE
  8
0
 62
     0
 10
1.84381
 20
3.25079
 30
0.0
 11
1.90583
 21
2.86494
 31
0.0
  0
LINE
  8
0
 62
     0
 10
1.90583
 20
2.86494
 30
0.0
 11
2.08359
 21
2.5163
 31
0.0
  0
LINE
  8
0
 62
     0
 10
2.08359
 20
2.5163
 30
0.0
 11
2.36058
 21
2.23931
 31
0.0
  0
LINE
  8
0
 62
     0
 10
2.36058
 20
2.23931
 30
0.0
 11
2.70784
 21
2.06292
 31
0.0
  0
LINE
  8
0
 62
     0
 10
2.70784
 20
2.06292
 30
0.0
 11
3.09507
 21
2.00091
 31
0.0
  0
LINE
  8
0
 62
     0
 10
3.09507
 20
2.00091
 30
0.0
 11
3.48093
 21
2.06292
 31
0.0
  0
LINE
  8
0
 62
     0
 10
3.48093
 20
2.06292
 30
0.0
 11
3.82958
 21
2.23931
 31
0.0
  0
LINE
  8
0
 62
     0
 10
3.82958
 20
2.23931
 30
0.0
 11
4.10655
 21
2.5163
 31
0.0
  0
LINE
  8
0
 62
     0
 10
4.10655
 20
2.5163
 30
0.0
 11
4.28293
 21
2.86494
 31
0.0
  0
LINE
  8
0
 62
     0
 10
4.28293
 20
2.86494
 30
0.0
 11
4.34495
 21
3.25079
 31
0.0
  0
LINE
  8
0
 62
     0
 10
4.34495
 20
3.25079
 30
0.0
 11
4.28293
 21
3.63802
 31
0.0
  0
LINE
  8
0
 62
     0
 10
4.28293
 20
3.63802
 30
0.0
 11
4.10655
 21
3.9853
 31
0.0
  0
LINE
  8
0
 62
     0
 10
4.10655
 20
3.9853
 30
0.0
 11
3.82958
 21
4.26226
 31
0.0
  0
LINE
  8
0
 62
     0
 10
3.82958
 20
4.26226
 30
0.0
 11
3.48093
 21
4.44003
 31
0.0
  0
LINE
  8
0
 62
     0
 10
3.48093
 20
4.44003
 30
0.0
 11
3.09507
 21
4.50067
 31
0.0
  0
LINE
  8
0
 62
     0
 10
3.09507
 20
4.50067
 30
0.0
 11
2.70784
 21
4.44003
 31
0.0
  0
LINE
  8
0
 62
     0
 10
34.67
 20
82.4523
 30
0.0
 11
110.871
 21
82.4523
 31
0.0
  0
LINE
  8
0
 62
     0
 10
110.871
 20
82.4523
 30
0.0
 11
110.871
 21
6.2508
 31
0.0
  0
LINE
  8
0
 62
     0
 10
110.871
 20
6.2508
 30
0.0
 11
34.67
 21
6.2508
 31
0.0
  0
LINE
  8
0
 62
     0
 10
34.67
 20
6.2508
 30
0.0
 11
34.67
 21
82.4523
 31
0.0
  0
LINE
  8
0
 62
     0
 10
113.484
 20
59.8276
 30
0.0
 11
113.137
 21
59.6512
 31
0.0
  0
LINE
  8
0
 62
     0
 10
113.137
 20
59.6512
 30
0.0
 11
112.86
 21
59.3743
 31
0.0
  0
LINE
  8
0
 62
     0
 10
112.86
 20
59.3743
 30
0.0
 11
112.682
 21
59.0254
 31
0.0
  0
LINE
  8
0
 62
     0
 10
112.682
 20
59.0254
 30
0.0
 11
112.62
 21
58.6398
 31
0.0
  0
LINE
  8
0
 62
     0
 10
112.62
 20
58.6398
 30
0.0
 11
112.682
 21
58.2524
 31
0.0
  0
LINE
  8
0
 62
     0
 10
112.682
 20
58.2524
 30
0.0
 11
112.86
 21
57.9053
 31
0.0
  0
LINE
  8
0
 62
     0
 10
112.86
 20
57.9053
 30
0.0
 11
113.137
 21
57.628
 31
0.0
  0
LINE
  8
0
 62
     0
 10
113.137
 20
57.628
 30
0.0
 11
113.484
 21
57.4516
 31
0.0
  0
LINE
  8
0
 62
     0
 10
113.484
 20
57.4516
 30
0.0
 11
113.871
 21
57.3885
 31
0.0
  0
LINE
  8
0
 62
     0
 10
113.871
 20
57.3885
 30
0.0
 11
114.257
 21
57.4516
 31
0.0
  0
LINE
  8
0
 62
     0
 10
114.257
 20
57.4516
 30
0.0
 11
114.606
 21
57.628
 31
0.0
  0
LINE
  8
0
 62
     0
 10
114.606
 20
57.628
 30
0.0
 11
114.883
 21
57.9053
 31
0.0
  0
LINE
  8
0
 62
     0
 10
114.883
 20
57.9053
 30
0.0
 11
115.059
 21
58.2524
 31
0.0
  0
LINE
  8
0
 62
     0
 10
115.059
 20
58.2524
 30
0.0
 11
115.121
 21
58.6384
 31
0.0
  0
LINE
  8
0
 62
     0
 10
115.121
 20
58.6384
 30
0.0
 11
115.059
 21
59.0254
 31
0.0
  0
LINE
  8
0
 62
     0
 10
115.059
 20
59.0254
 30
0.0
 11
114.883
 21
59.3743
 31
0.0
  0
LINE
  8
0
 62
     0
 10
114.883
 20
59.3743
 30
0.0
 11
114.606
 21
59.6512
 31
0.0
  0
LINE
  8
0
 62
     0
 10
114.606
 20
59.6512
 30
0.0
 11
114.257
 21
59.8276
 31
0.0
  0
LINE
  8
0
 62
     0
 10
114.257
 20
59.8276
 30
0.0
 11
113.871
 21
59.8883
 31
0.0
  0
LINE
  8
0
 62
     0
 10
113.871
 20
59.8883
 30
0.0
 11
113.484
 21
59.8276
 31
0.0
  0
LINE
  8
0
 62
     0
 10
2.70784
 20
59.8276
 30
0.0
 11
2.36058
 21
59.6512
 31
0.0
  0
LINE
  8
0
 62
     0
 10
2.36058
 20
59.6512
 30
0.0
 11
2.08359
 21
59.3743
 31
0.0
  0
LINE
  8
0
 62
     0
 10
2.08359
 20
59.3743
 30
0.0
 11
1.90583
 21
59.0254
 31
0.0
  0
LINE
  8
0
 62
     0
 10
1.90583
 20
59.0254
 30
0.0
 11
1.84381
 21
58.6398
 31
0.0
  0
LINE
  8
0
 62
     0
 10
1.84381
 20
58.6398
 30
0.0
 11
1.90583
 21
58.2524
 31
0.0
  0
LINE
  8
0
 62
     0
 10
1.90583
 20
58.2524
 30
0.0
 11
2.08359
 21
57.9053
 31
0.0
  0
LINE
  8
0
 62
     0
 10
2.08359
 20
57.9053
 30
0.0
 11
2.36058
 21
57.628
 31
0.0
  0
LINE
  8
0
 62
     0
 10
2.36058
 20
57.628
 30
0.0
 11
2.70784
 21
57.4516
 31
0.0
  0
LINE
  8
0
 62
     0
 10
2.70784
 20
57.4516
 30
0.0
 11
3.09507
 21
57.3885
 31
0.0
  0
LINE
  8
0
 62
     0
 10
3.09507
 20
57.3885
 30
0.0
 11
3.48093
 21
57.4516
 31
0.0
  0
LINE
  8
0
 62
     0
 10
3.48093
 20
57.4516
 30
0.0
 11
3.82958
 21
57.628
 31
0.0
  0
LINE
  8
0
 62
     0
 10
3.82958
 20
57.628
 30
0.0
 11
4.10655
 21
57.9053
 31
0.0
  0
LINE
  8
0
 62
     0
 10
4.10655
 20
57.9053
 30
0.0
 11
4.28293
 21
58.2524
 31
0.0
  0
LINE
  8
0
 62
     0
 10
4.28293
 20
58.2524
 30
0.0
 11
4.34495
 21
58.6384
 31
0.0
  0
LINE
  8
0
 62
     0
 10
4.34495
 20
58.6384
 30
0.0
 11
4.28293
 21
59.0254
 31
0.0
  0
LINE
  8
0
 62
     0
 10
4.28293
 20
59.0254
 30
0.0
 11
4.10655
 21
59.3743
 31
0.0
  0
LINE
  8
0
 62
     0
 10
4.10655
 20
59.3743
 30
0.0
 11
3.82958
 21
59.6512
 31
0.0
  0
LINE
  8
0
 62
     0
 10
3.82958
 20
59.6512
 30
0.0
 11
3.48093
 21
59.8276
 31
0.0
  0
LINE
  8
0
 62
     0
 10
3.48093
 20
59.8276
 30
0.0
 11
3.09507
 21
59.8883
 31
0.0
  0
LINE
  8
0
 62
     0
 10
3.09507
 20
59.8883
 30
0.0
 11
2.70784
 21
59.8276
 31
0.0
  0
LINE
  8
0
 62
     0
 10
58.0969
 20
115.217
 30
0.0
 11
57.748
 21
115.039
 31
0.0
  0
LINE
  8
0
 62
     0
 10
57.748
 20
115.039
 30
0.0
 11
57.471
 21
114.762
 31
0.0
  0
LINE
  8
0
 62
     0
 10
57.471
 20
114.762
 30
0.0
 11
57.2946
 21
114.414
 31
0.0
  0
LINE
  8
0
 62
     0
 10
57.2946
 20
114.414
 30
0.0
 11
57.2325
 21
114.027
 31
0.0
  0
LINE
  8
0
 62
     0
 10
57.2325
 20
114.027
 30
0.0
 11
57.2946
 21
113.641
 31
0.0
  0
LINE
  8
0
 62
     0
 10
57.2946
 20
113.641
 30
0.0
 11
57.471
 21
113.293
 31
0.0
  0
LINE
  8
0
 62
     0
 10
57.471
 20
113.293
 30
0.0
 11
57.748
 21
113.016
 31
0.0
  0
LINE
  8
0
 62
     0
 10
57.748
 20
113.016
 30
0.0
 11
58.0969
 21
112.839
 31
0.0
  0
LINE
  8
0
 62
     0
 10
58.0969
 20
112.839
 30
0.0
 11
58.4824
 21
112.777
 31
0.0
  0
LINE
  8
0
 62
     0
 10
58.4824
 20
112.777
 30
0.0
 11
58.8698
 21
112.839
 31
0.0
  0
LINE
  8
0
 62
     0
 10
58.8698
 20
112.839
 30
0.0
 11
59.2169
 21
113.016
 31
0.0
  0
LINE
  8
0
 62
     0
 10
59.2169
 20
113.016
 30
0.0
 11
59.4942
 21
113.293
 31
0.0
  0
LINE
  8
0
 62
     0
 10
59.4942
 20
113.293
 30
0.0
 11
59.6706
 21
113.641
 31
0.0
  0
LINE
  8
0
 62
     0
 10
59.6706
 20
113.641
 30
0.0
 11
59.7337
 21
114.027
 31
0.0
  0
LINE
  8
0
 62
     0
 10
59.7337
 20
114.027
 30
0.0
 11
59.6706
 21
114.414
 31
0.0
  0
LINE
  8
0
 62
     0
 10
59.6706
 20
114.414
 30
0.0
 11
59.4942
 21
114.762
 31
0.0
  0
LINE
  8
0
 62
     0
 10
59.4942
 20
114.762
 30
0.0
 11
59.2169
 21
115.039
 31
0.0
  0
LINE
  8
0
 62
     0
 10
59.2169
 20
115.039
 30
0.0
 11
58.8698
 21
115.217
 31
0.0
  0
LINE
  8
0
 62
     0
 10
58.8698
 20
115.217
 30
0.0
 11
58.4839
 21
115.277
 31
0.0
  0
LINE
  8
0
 62
     0
 10
58.4839
 20
115.277
 30
0.0
 11
58.0969
 21
115.217
 31
0.0
  0
LINE
  8
0
 62
     0
 10
113.484
 20
115.217
 30
0.0
 11
113.137
 21
115.039
 31
0.0
  0
LINE
  8
0
 62
     0
 10
113.137
 20
115.039
 30
0.0
 11
112.86
 21
114.762
 31
0.0
  0
LINE
  8
0
 62
     0
 10
112.86
 20
114.762
 30
0.0
 11
112.682
 21
114.414
 31
0.0
  0
LINE
  8
0
 62
     0
 10
112.682
 20
114.414
 30
0.0
 11
112.62
 21
114.027
 31
0.0
  0
LINE
  8
0
 62
     0
 10
112.62
 20
114.027
 30
0.0
 11
112.682
 21
113.641
 31
0.0
  0
LINE
  8
0
 62
     0
 10
112.682
 20
113.641
 30
0.0
 11
112.86
 21
113.293
 31
0.0
  0
LINE
  8
0
 62
     0
 10
112.86
 20
113.293
 30
0.0
 11
113.137
 21
113.016
 31
0.0
  0
LINE
  8
0
 62
     0
 10
113.137
 20
113.016
 30
0.0
 11
113.484
 21
112.839
 31
0.0
  0
LINE
  8
0
 62
     0
 10
113.484
 20
112.839
 30
0.0
 11
113.871
 21
112.777
 31
0.0
  0
LINE
  8
0
 62
     0
 10
113.871
 20
112.777
 30
0.0
 11
114.257
 21
112.839
 31
0.0
  0
LINE
  8
0
 62
     0
 10
114.257
 20
112.839
 30
0.0
 11
114.606
 21
113.016
 31
0.0
  0
LINE
  8
0
 62
     0
 10
114.606
 20
113.016
 30
0.0
 11
114.883
 21
113.293
 31
0.0
  0
LINE
  8
0
 62
     0
 10
114.883
 20
113.293
 30
0.0
 11
115.059
 21
113.641
 31
0.0
  0
LINE
  8
0
 62
     0
 10
115.059
 20
113.641
 30
0.0
 11
115.121
 21
114.027
 31
0.0
  0
LINE
  8
0
 62
     0
 10
115.121
 20
114.027
 30
0.0
 11
115.059
 21
114.414
 31
0.0
  0
LINE
  8
0
 62
     0
 10
115.059
 20
114.414
 30
0.0
 11
114.883
 21
114.762
 31
0.0
  0
LINE
  8
0
 62
     0
 10
114.883
 20
114.762
 30
0.0
 11
114.606
 21
115.039
 31
0.0
  0
LINE
  8
0
 62
     0
 10
114.606
 20
115.039
 30
0.0
 11
114.257
 21
115.217
 31
0.0
  0
LINE
  8
0
 62
     0
 10
114.257
 20
115.217
 30
0.0
 11
113.871
 21
115.277
 31
0.0
  0
LINE
  8
0
 62
     0
 10
113.871
 20
115.277
 30
0.0
 11
113.484
 21
115.217
 31
0.0
  0
LINE
  8
0
 62
     0
 10
2.70784
 20
115.217
 30
0.0
 11
2.36058
 21
115.039
 31
0.0
  0
LINE
  8
0
 62
     0
 10
2.36058
 20
115.039
 30
0.0
 11
2.08359
 21
114.762
 31
0.0
  0
LINE
  8
0
 62
     0
 10
2.08359
 20
114.762
 30
0.0
 11
1.90583
 21
114.414
 31
0.0
  0
LINE
  8
0
 62
     0
 10
1.90583
 20
114.414
 30
0.0
 11
1.84381
 21
114.027
 31
0.0
  0
LINE
  8
0
 62
     0
 10
1.84381
 20
114.027
 30
0.0
 11
1.90583
 21
113.641
 31
0.0
  0
LINE
  8
0
 62
     0
 10
1.90583
 20
113.641
 30
0.0
 11
2.08359
 21
113.293
 31
0.0
  0
LINE
  8
0
 62
     0
 10
2.08359
 20
113.293
 30
0.0
 11
2.36058
 21
113.016
 31
0.0
  0
LINE
  8
0
 62
     0
 10
2.36058
 20
113.016
 30
0.0
 11
2.70784
 21
112.839
 31
0.0
  0
LINE
  8
0
 62
     0
 10
2.70784
 20
112.839
 30
0.0
 11
3.09507
 21
112.777
 31
0.0
  0
LINE
  8
0
 62
     0
 10
3.09507
 20
112.777
 30
0.0
 11
3.48093
 21
112.839
 31
0.0
  0
LINE
  8
0
 62
     0
 10
3.48093
 20
112.839
 30
0.0
 11
3.82958
 21
113.016
 31
0.0
  0
LINE
  8
0
 62
     0
 10
3.82958
 20
113.016
 30
0.0
 11
4.10655
 21
113.293
 31
0.0
  0
LINE
  8
0
 62
     0
 10
4.10655
 20
113.293
 30
0.0
 11
4.28293
 21
113.641
 31
0.0
  0
LINE
  8
0
 62
     0
 10
4.28293
 20
113.641
 30
0.0
 11
4.34495
 21
114.027
 31
0.0
  0
LINE
  8
0
 62
     0
 10
4.34495
 20
114.027
 30
0.0
 11
4.28293
 21
114.414
 31
0.0
  0
LINE
  8
0
 62
     0
 10
4.28293
 20
114.414
 30
0.0
 11
4.10655
 21
114.762
 31
0.0
  0
LINE
  8
0
 62
     0
 10
4.10655
 20
114.762
 30
0.0
 11
3.82958
 21
115.039
 31
0.0
  0
LINE
  8
0
 62
     0
 10
3.82958
 20
115.039
 30
0.0
 11
3.48093
 21
115.217
 31
0.0
  0
LINE
  8
0
 62
     0
 10
3.48093
 20
115.217
 30
0.0
 11
3.09507
 21
115.277
 31
0.0
  0
LINE
  8
0
 62
     0
 10
3.09507
 20
115.277
 30
0.0
 11
2.70784
 21
115.217
 31
0.0
  0
ENDSEC
  0
EOF
